<svg width="653" height="496" viewBox="0 0 653 496" fill="none" xmlns="http://www.w3.org/2000/svg">
<g clip-path="url(#clip0)">
<path opacity="0.1" d="M155.122 413.922C149.624 413.366 143.881 412.77 138.674 414.226C133.467 415.682 129.152 419.933 130.698 423.996C134.152 433.054 154.424 426.746 163.771 432.937C167.108 435.15 168.408 438.631 171.015 441.348C175.232 445.761 182.483 447.818 189.482 448.95C231.526 455.75 279.456 438.249 316.306 455.103C328.24 460.564 337.651 469.253 350.737 472.896C368.072 477.722 387.056 472.566 404.993 469.26C427.362 465.171 450.164 463.975 472.839 465.701C489.611 466.995 511.92 467.429 517.289 455.246C520.743 447.411 513.434 438.689 503.731 434.982C494.029 431.274 482.67 431.391 471.836 431.747C450.924 432.497 430.006 434.011 409.094 433.274C368.654 431.837 330.452 415.805 291.073 415.274C245.213 414.718 201.196 418.567 155.122 413.922Z" fill="#0E8993"/>
<path opacity="0.1" d="M112.606 211.121C106.138 217.662 105.743 227.691 105.743 227.691C105.743 227.691 115.763 227.121 122.205 220.574C128.647 214.026 129.074 204.004 129.074 204.004C129.074 204.004 119.048 204.593 112.606 211.121Z" fill="#0E8993"/>
<path opacity="0.1" d="M138.642 49.5276C140.925 58.4238 149.302 63.9556 149.302 63.9556C149.302 63.9556 153.978 55.0724 151.695 46.1762C149.412 37.28 141.035 31.7546 141.035 31.7546C141.035 31.7546 136.333 40.6379 138.642 49.5276Z" fill="#0E8993"/>
<path opacity="0.1" d="M516.933 73.997C510.465 80.5381 510.063 90.5665 510.063 90.5665C510.063 90.5665 520.089 89.9972 526.532 83.4496C532.974 76.902 533.395 66.8735 533.395 66.8735C533.395 66.8735 523.375 67.4882 516.933 73.997Z" fill="#0E8993"/>
<path opacity="0.1" d="M319.786 165.663C319.035 174.812 325.135 182.783 325.135 182.783C325.135 182.783 332.464 175.918 333.214 166.763C333.964 157.608 327.865 149.656 327.865 149.656C327.865 149.656 320.536 156.508 319.786 165.663Z" fill="#0E8993"/>
<path opacity="0.1" d="M531.985 293.969C531.235 303.118 537.334 311.089 537.334 311.089C537.334 311.089 544.663 304.224 545.413 295.076C546.163 285.927 540.064 277.956 540.064 277.956C540.064 277.956 532.735 284.821 531.985 293.969Z" fill="#0E8993"/>
<path opacity="0.1" d="M379.397 62.3572C337.535 61.0956 297.664 49.4173 259.592 36.6067C221.519 23.7962 183.809 9.63349 142.949 2.85297C116.668 -1.50778 86.6102 -2.12243 65.4394 10.0734C45.0579 21.8035 38.4731 42.0609 34.935 60.8562C32.27 74.993 30.7047 89.8739 38.0009 103.111C43.0721 112.305 52.063 120.03 58.2855 128.83C79.9349 159.465 64.6309 197.236 41.1769 227.173C30.1808 241.206 17.4059 254.586 8.91304 269.525C0.420167 284.464 -3.50609 301.571 3.92598 316.801C11.2869 331.902 28.8354 343.244 47.8457 351.221C86.4549 367.396 131.934 372.061 176.312 374.688C274.521 380.511 373.246 377.988 471.713 375.464C508.155 374.533 544.753 373.588 580.6 368.71C600.51 366.005 621.059 361.709 635.516 351.331C653.86 338.159 658.407 315.857 646.111 299.339C625.49 271.641 568.492 264.757 554.061 235.027C546.131 218.665 554.274 200.439 565.807 185.261C590.542 152.704 631.997 124.139 634.177 86.9172C635.678 61.3608 615.749 35.7657 584.934 23.6733C552.638 10.9922 507.845 12.5903 484.029 33.5723C459.481 55.1497 416.364 63.4636 379.397 62.3572Z" fill="#0E8993"/>
<path d="M518.168 184.154C517.277 184.382 516.452 184.819 515.762 185.427C515.071 186.035 514.535 186.799 514.197 187.655L513.55 187.551L511.137 187.163C511.137 187.163 498.356 186.108 495.969 186.27C493.582 186.432 492.088 184.077 492.088 184.077L482.586 176.035L481.849 175.388C482.877 174.999 483.518 174.799 483.518 174.799C483.518 174.799 458.02 143.096 452.521 142.481C447.023 141.867 437.935 134.465 437.845 134.394L437.748 133.889C437.547 132.822 437.399 131.741 437.289 130.654L438.641 131.483C438.641 131.107 438.641 130.732 438.679 130.357C438.881 126.444 440.201 122.672 442.483 119.487C445.141 115.799 449.074 112.901 450.646 108.65C451.272 106.822 451.555 104.894 451.48 102.963C451.52 99.4845 450.603 96.062 448.828 93.0704C447.923 91.5749 446.712 90.2884 445.274 89.2958C443.835 88.3032 442.203 87.6271 440.484 87.3121C439.578 87.1698 438.653 87.1504 437.761 86.9433C432.45 85.6946 430.497 78.5712 425.335 76.8243C422.929 76.0091 420.251 76.5461 417.929 77.5554C415.607 78.5647 413.505 80.014 411.234 81.1333C408.964 82.2526 406.39 83.0743 404.326 84.6594C404.113 84.8212 403.886 85.0153 403.679 85.2158L403.272 85.6105C402.42 86.4751 401.679 87.4422 401.066 88.4896L400.969 88.6514C400.904 88.7614 400.846 88.8778 400.788 88.9943C400.73 89.1108 400.691 89.1755 400.652 89.266C400.613 89.3566 400.549 89.4731 400.503 89.5766L400.368 89.8872L400.251 90.1848C400.212 90.2948 400.167 90.4048 400.135 90.5212C400.102 90.6377 400.07 90.7088 400.044 90.8059L399.947 91.1488L399.889 91.427C399.889 91.5435 399.844 91.6664 399.824 91.7829C399.805 91.8993 399.824 91.9575 399.824 92.0416C399.824 92.1258 399.824 92.2875 399.824 92.4104C399.824 92.5334 399.824 92.5722 399.824 92.6498C399.824 92.7275 399.824 92.9086 399.824 93.0445C399.824 93.1804 399.824 93.1739 399.824 93.2386C399.849 93.4288 399.888 93.6169 399.941 93.8015C400.29 94.992 401.493 96.2083 402.412 97.2694C402.308 97.3664 402.205 97.457 402.101 97.5605C399.918 99.6652 398.181 102.189 396.995 104.98C395.809 107.772 395.199 110.774 395.199 113.807C395.2 115.154 395.324 116.499 395.568 117.824C394.393 116.936 393.129 116.171 391.797 115.541C387.417 113.44 382.625 112.335 377.767 112.306C369.844 112.215 358.712 109.239 358.712 109.239C358.996 109.782 359.213 110.358 359.359 110.953C358.874 110.675 358.35 110.378 357.774 110.067C353.133 107.575 348.102 105.89 342.897 105.085C342.897 105.085 339.598 105.544 339.158 98.6151C339.007 96.45 338.617 94.3083 337.994 92.2293C336.1 85.8919 334.788 79.3951 334.074 72.8194L332.968 62.6486C332.968 62.6486 337.949 36.1218 334.954 24.8123C335.918 21.2668 335.374 18.0189 332.198 15.6832C319.669 6.45704 307.03 42.3653 307.03 42.3653L302.334 46.9266C301.13 46.1413 299.771 45.6229 298.35 45.4062C298.35 45.4062 295.821 47.9942 294.061 55.0594C293.13 58.8055 286.765 65.0619 281.008 70.102C276.92 73.6799 272.975 77.4001 269.035 81.1333C266.125 83.9024 259.637 87.8621 245.484 90.1007C243.266 90.45 241.248 90.78 239.404 91.0841C239.875 89.4124 240.115 87.6838 240.116 85.947C240.094 81.5752 238.586 77.3408 235.84 73.9394C233.094 70.538 229.274 68.1718 225.006 67.2294C225.07 66.7766 225.07 66.317 225.006 65.8642C224.767 64.89 224.274 63.9968 223.576 63.2762C220.594 59.5883 217.36 55.7969 212.923 54.0501C211.093 53.3382 209.133 53.0228 207.173 53.1249H206.189C205.989 53.1249 205.795 53.1249 205.594 53.1249C203.502 53.2407 201.459 53.8016 199.601 54.77C197.742 55.7384 196.112 57.0921 194.818 58.7408C193.227 60.8694 192.27 63.3927 190.898 65.6636C188.35 69.8691 184.43 73.1105 180.181 75.6727C177.626 77.219 174.941 78.5518 172.528 80.3051C163.777 86.6651 159.741 98.421 161.94 108.928C162.91 113.541 164.961 118.083 164.411 122.761C163.977 126.391 162.024 129.652 160.032 132.731C158.04 135.811 155.931 138.942 155.142 142.507C154.353 146.072 155.181 150.271 158.169 152.432C159.269 153.222 160.601 153.726 161.539 154.684C162.163 155.422 162.685 156.24 163.091 157.117C164.678 159.984 166.83 162.499 169.417 164.51C172.005 166.521 174.973 167.985 178.143 168.814C179.148 169.071 180.185 169.184 181.222 169.151H181.332H181.532C183.906 169.299 186.338 168.665 187.134 166.563C187.255 166.085 187.435 165.624 187.671 165.191C187.894 164.868 188.228 164.638 188.609 164.544C189.374 164.719 190.112 164.998 190.801 165.372C194.115 167.091 197.74 168.127 201.461 168.42C202.083 168.469 202.707 168.48 203.331 168.452C204.625 168.573 205.931 168.387 207.14 167.908C208.304 167.318 209.308 166.457 210.07 165.398C210.239 165.185 210.394 164.958 210.556 164.751C209.701 169.918 208.093 174.932 205.782 179.632C205.782 179.632 201.901 186.102 202.179 192.624C202.03 195 202.533 197.371 203.635 199.482C203.635 199.482 203.744 199.197 203.971 198.751C205.083 200.614 208.732 206.573 211.125 208.663C211.241 214.816 211.215 222.521 210.446 224.106C209.152 226.817 205.064 246.104 222.645 259.258L226.7 268.141L210.006 269.325C208.318 269.092 186.487 266.155 186.377 270.431C186.267 274.876 189.676 318.16 200.995 315.229C211.545 312.499 208.065 299.876 207.541 298.181L207.917 298.078L207.503 297.961L215.944 289.958C216.103 288.983 215.87 287.986 215.297 287.182L215.381 287.137L235.769 288.049L240.562 298.466C240.562 298.466 248.693 310.836 242.101 321.246C235.51 331.657 228.693 347.935 227.593 357.808C226.694 365.883 220.717 373.815 218.576 376.429C214.754 377.723 200.09 383.481 205.944 392.196C212.645 402.173 234.404 421.162 243.201 420.509C251.998 419.855 248.473 413.456 248.473 413.456L241.118 406.326C241.118 406.326 239.825 391.135 240.349 386.69C240.633 384.38 238.932 382.718 237.114 382.012C237.807 377.063 239.559 367.681 243.324 362.499C248.596 355.227 265.523 323.226 265.523 323.226C265.523 323.226 270.905 318.451 269.695 304.243C269.21 298.511 268.938 293.477 268.783 289.498L287.942 290.359C287.942 290.359 308.492 288.295 294.533 266.271C280.575 244.247 250.905 222.664 250.905 222.664L250.64 209.031C251.985 209.368 252.774 209.536 252.774 209.536C252.774 209.536 252.658 209.044 252.464 208.164L252.774 208.236C252.774 208.236 248.486 189.673 247.166 174.915L248.376 175.472C261.125 190.23 269.721 177.756 269.721 177.756C269.721 177.756 296.649 139.893 294.01 141.627C293.736 141.763 293.439 141.842 293.134 141.861C292.83 141.88 292.525 141.838 292.237 141.737L294.178 135.552C294.178 135.552 302.127 123.402 290.588 116.569C281.17 110.992 281.416 128.474 281.823 135.08L281.358 134.685C281.358 134.685 272.347 148.272 267.509 155.842C262.671 163.412 258.609 158.43 258.609 158.43L252.496 151.539C253.5 148.779 253.993 145.859 253.951 142.921C254.085 140.872 253.786 138.818 253.074 136.892C252.362 134.965 251.252 133.211 249.818 131.741C245.154 126.986 243.79 122.379 243.647 118.834C243.693 116.997 244.109 115.188 244.87 113.515L276.636 96.6936C276.636 96.6936 283.337 96.7971 292.347 82.9125C298.186 74.0325 304.613 65.553 311.584 57.5309C311.584 57.5309 311.396 57.2592 311.073 56.8127C311.396 56.431 311.584 56.224 311.584 56.224C311.584 56.224 311.215 55.687 310.588 54.8588L315.484 49.2105C315.33 51.7633 315.31 54.3226 315.426 56.8774L317.962 65.4501L319.385 113.179C319.385 113.179 317.845 117.708 327.742 122.295C336.112 126.177 349.372 132.647 353.24 134.556C353.097 134.905 353.013 135.093 353.013 135.093L354.165 135.015L354.333 135.093C373.667 133.359 373.007 152.665 373.007 152.665C373.007 152.665 374.3 191.938 368.395 205.609C362.489 219.28 363.337 236.199 363.337 236.199C363.337 236.199 363.925 233.313 367.218 237.085C367.153 237.415 367.082 237.771 367.004 238.14C365.115 247.605 361.183 267.74 360.452 275.905C359.647 283.346 358.212 290.705 356.163 297.903L354.223 334.025L366.584 334.626L366.448 335.92C366.38 336.576 366.154 337.206 365.789 337.755C365.424 338.304 364.931 338.755 364.352 339.071C360.122 341.368 350.122 349.423 350.924 374.281L350.497 378.279C349.812 385.051 347.759 391.612 344.462 397.566C344.178 398.071 343.925 398.556 343.712 399.022C343.744 398.76 343.863 398.517 344.048 398.329C344.048 398.329 337.625 399.662 338.945 417.021C340.264 434.38 342.244 437.415 344.883 437.628C347.522 437.842 360.406 440.992 359.714 434.594C359.022 428.195 358.421 413.98 359.275 411.813C360.128 409.645 363.634 403.797 360.309 402.386C361.274 398.405 361.741 394.319 361.7 390.223C361.7 390.223 368.168 380.026 372.793 376.228C377.418 372.43 379.908 365.98 381.584 357.679C381.7 357.135 395.212 348.129 393.227 340.65C392.877 339.356 392.625 338.211 392.431 337.175C392.347 336.716 392.276 336.283 392.211 335.881H392.45L395.199 319.39V335.448L396.829 335.661L396.771 336.955L396.079 352.354C395.954 355.353 395.297 358.306 394.139 361.076C391.228 367.966 385.859 383.306 387.321 399.895L387.166 414.686C386.7 414.776 379.986 416.361 381.26 433.125C382.554 450.477 384.553 453.518 387.192 453.732C389.831 453.945 402.716 457.096 402.03 450.697C401.344 444.299 400.736 430.084 401.59 427.917C402.444 425.749 403.983 420.017 400.659 418.606C400.676 416.662 401.15 414.75 402.043 413.023C403.492 410.558 408.33 398.841 411.972 389.828C415.695 380.706 417.764 370.994 418.084 361.147C418.084 361.037 418.084 360.927 418.084 360.817C418.182 357.495 418.895 354.219 420.186 351.157C421.675 347.731 422.853 344.177 423.705 340.54C423.796 340.106 423.867 339.686 423.932 339.246L427.088 339.666L437.864 293.018C437.864 293.018 440.814 267.733 439.371 256.314C439.313 255.842 439.249 255.408 439.171 254.988L439.818 255.046C439.818 255.046 442.017 249.41 441.357 225.323C440.697 201.235 445.756 193.62 445.756 193.62C448.485 184.963 451.499 182.065 453.259 181.094C453.712 180.805 454.23 180.636 454.766 180.602L462.922 189.939L464.423 191.66C464.426 191.625 464.426 191.591 464.423 191.556L465.07 192.313C465.021 191.929 465.003 191.542 465.018 191.155C469.371 193.685 479.43 199.598 485.432 203.843C493.259 209.374 495.406 208.727 502.25 208.152C506.402 207.809 512.017 205.479 515.781 203.707L516.124 203.545C517.137 204.086 518.204 204.519 519.307 204.839C519.307 204.839 530.354 214.201 531.422 197.114C532.489 180.027 518.168 184.154 518.168 184.154ZM231.623 383.145C230.498 382.81 229.413 382.352 228.389 381.779L231.623 383.145ZM214.327 198.181L214.365 200.608L214.197 200.685C214.249 199.831 214.288 198.99 214.327 198.181ZM387.121 414.744V415.688C387.001 415.56 386.934 415.391 386.934 415.216C386.934 415.041 387.001 414.872 387.121 414.744Z" fill="url(#paint0_linear)"/>
<path d="M422.386 130.454H403.628V150.187H422.386V130.454Z" fill="#D3B9B7"/>
<path d="M380.834 358.306C379.185 366.556 376.74 372.967 372.212 376.746C367.684 380.524 361.326 390.656 361.326 390.656C361.216 404.133 357.658 408.229 357.658 408.229L353.991 409.199H344.935C344.935 409.199 343.318 404.67 342.995 401.979C342.885 401.079 343.525 399.572 344.418 397.954C347.655 392.025 349.667 385.506 350.336 378.784L350.757 374.805C349.993 350.109 359.812 342.093 363.933 339.809C364.502 339.491 364.986 339.041 365.343 338.495C365.7 337.95 365.919 337.326 365.983 336.677L366.714 329.619L391.074 330.816C391.074 330.816 390.556 332.964 391.481 337.933C391.669 338.961 391.921 340.106 392.257 341.381C394.198 348.815 380.938 357.763 380.834 358.306Z" fill="#FBDDDB"/>
<path d="M422.14 341.251C421.304 344.864 420.151 348.395 418.693 351.804C417.424 354.852 416.722 358.106 416.623 361.405C416.623 361.515 416.623 361.625 416.623 361.735C416.308 371.515 414.278 381.164 410.627 390.242C407.05 399.196 402.308 410.849 400.885 413.301C398.518 417.396 399.915 424.3 399.915 424.3L386.202 423.329L386.442 400.251C385.012 383.772 390.277 368.548 393.13 361.671C394.282 358.92 394.939 355.987 395.07 353.007L395.717 337.699L395.918 333.17C395.918 333.17 420.161 329.722 422.205 335.221C422.768 336.677 422.632 338.845 422.14 341.251Z" fill="#FBDDDB"/>
<path opacity="0.1" d="M391.481 337.933L365.957 336.677L366.688 329.619L391.073 330.816C391.073 330.816 390.537 332.957 391.481 337.933Z" fill="black"/>
<path opacity="0.1" d="M422.14 341.251L395.711 337.699L395.911 333.17C395.911 333.17 420.155 329.722 422.199 335.221C422.768 336.677 422.632 338.845 422.14 341.251Z" fill="black"/>
<path d="M436.028 294.034L425.465 340.404L394.204 336.198V320.237L391.5 336.638L353.984 334.801L355.925 298.893C357.935 291.727 359.342 284.405 360.129 277.005C360.86 268.891 364.702 248.88 366.559 239.479C367.206 236.38 367.568 234.426 367.568 234.426C367.568 234.426 431.824 247.793 436.028 252.645C436.746 253.474 437.218 255.233 437.509 257.569C438.92 268.904 436.028 294.034 436.028 294.034Z" fill="#BDD2E8"/>
<path opacity="0.1" d="M360.995 297.055C360.995 297.055 386.286 283.792 392.45 286.593L360.995 297.055Z" fill="black"/>
<path opacity="0.1" d="M374.792 253.707C374.792 253.707 395.814 269.668 396.461 273.977L374.792 253.707Z" fill="black"/>
<path opacity="0.1" d="M369.081 308.701C369.081 308.701 384.282 308.054 389.133 311.936L369.081 308.701Z" fill="black"/>
<path opacity="0.1" d="M396.461 291.633C396.461 291.633 403.686 315.287 400.556 321.757C397.425 328.227 394.197 320.243 394.197 320.243L396.461 291.633Z" fill="black"/>
<path d="M386.313 414.925C386.313 414.925 379.198 416.005 380.491 433.254C381.785 450.503 383.725 453.531 386.313 453.745C388.9 453.958 401.513 457.09 400.866 450.723C400.22 444.357 399.573 430.239 400.433 428.078C401.293 425.917 402.781 420.23 399.521 418.826L398.816 422.152C398.816 422.152 391.914 415.785 387.82 420.424C387.644 419.293 387.36 418.182 386.972 417.105C386.565 416.096 385.672 415.572 386.313 414.925Z" fill="#F5FDFE"/>
<path d="M516.526 203.241C516.526 203.241 514.896 204.153 512.503 205.292C508.809 207.052 503.305 209.368 499.23 209.711C492.516 210.28 490.413 210.927 482.736 205.428C476.843 201.209 466.979 195.328 462.684 192.818L460.815 191.711L460.627 191.601V191.524L464.191 181.728L476.804 175.019L479.935 177.704L489.256 185.694C489.256 185.694 490.711 188.036 493.059 187.875C495.407 187.713 507.936 188.761 507.936 188.761L510.303 189.149L515.291 189.977L516.526 203.241Z" fill="#FBDDDB"/>
<path opacity="0.1" d="M516.525 203.241C516.525 203.241 514.895 204.153 512.502 205.292C509.973 203.998 506.829 201.572 508.039 197.58C509.132 193.989 509.429 191.187 510.329 189.169L515.316 189.997L516.525 203.241Z" fill="black"/>
<path d="M514.831 185.772C514.831 185.772 528.9 181.728 527.852 198.712C526.804 215.695 515.963 206.398 515.963 206.398C515.963 206.398 506.746 203.972 508.686 197.58C510.627 191.187 510.064 187.312 514.831 185.772Z" fill="#FBDDDB"/>
<path d="M368.971 130.777L354.314 136.937L354.087 137.034L353.926 136.956L353.014 136.497C349.223 134.608 336.196 128.144 328.001 124.307C318.298 119.778 319.805 115.249 319.805 115.249L318.408 67.8053L315.924 59.2843C315.924 59.2843 314.172 30.4024 328.214 23.1625C342.257 15.9227 333.175 64.9973 333.175 64.9973L334.262 75.194C334.964 81.7169 336.252 88.1633 338.111 94.455C338.718 96.5235 339.099 98.6515 339.249 100.802C339.683 107.699 342.917 107.24 342.917 107.24C348.025 108.042 352.957 109.719 357.496 112.196C359.182 113.086 360.795 114.107 362.322 115.249L368.971 130.777Z" fill="#FBDDDB"/>
<path d="M421.15 153.422L408.641 152.128C408.641 152.128 412.328 146.642 413.951 141.304C414.181 140.572 414.364 139.827 414.501 139.072C414.876 136.956 414.779 134.996 413.815 133.579C410.154 128.189 435.594 120.639 435.594 120.639C435.285 123.622 435.192 126.623 435.316 129.619C435.388 131.704 435.605 133.782 435.963 135.837C436.732 140.023 438.265 143.963 441.189 145.982C449.177 151.481 421.15 153.422 421.15 153.422Z" fill="#FBDDDB"/>
<path opacity="0.1" d="M421.15 153.422L408.641 152.128C408.641 152.128 412.328 146.642 413.951 141.304C415.394 143.355 415.892 143.31 417.916 143.717C417.916 143.717 430.542 145.587 435.976 135.837C436.745 140.023 438.278 143.963 441.202 145.982C449.177 151.481 421.15 153.422 421.15 153.422Z" fill="black"/>
<path opacity="0.1" d="M462.71 192.818C462.695 193.202 462.712 193.588 462.761 193.969L460.821 191.711L460.659 191.524L464.223 181.728L476.836 175.019L479.967 177.704C475.485 179.418 462.91 184.86 462.71 192.818Z" fill="black"/>
<path opacity="0.1" d="M368.971 130.777L354.314 136.937H353.926L352.794 137.014C352.794 137.014 352.878 136.827 353.014 136.477C354.236 133.508 359.909 119.009 357.458 112.176C359.143 113.066 360.757 114.088 362.283 115.23L368.971 130.777Z" fill="black"/>
<path opacity="0.1" d="M437.508 257.55C431.803 257.038 374.727 251.759 369.404 243.354C368.562 241.985 367.61 240.687 366.558 239.472C367.204 236.373 367.567 234.419 367.567 234.419C367.567 234.419 431.823 247.786 436.027 252.639C436.745 253.454 437.217 255.207 437.508 257.55Z" fill="black"/>
<path d="M417.916 144.364C417.916 144.364 430.678 146.253 436.073 136.335C436.073 136.335 445.083 143.737 450.471 144.371C455.859 145.005 480.872 176.501 480.872 176.501C480.872 176.501 460.821 182.97 462.114 193.322L452.625 182.323C452.625 182.323 447.884 182.103 443.79 195.263C443.79 195.263 438.828 202.807 439.475 226.746C440.122 250.685 437.968 256.295 437.968 256.295C437.968 256.295 375.006 250.905 369.404 242.061C363.803 233.216 362.936 237.532 362.936 237.532C362.936 237.532 362.069 220.71 367.891 207.123C373.712 193.536 372.418 154.503 372.418 154.503C372.418 154.503 373.065 135.306 354.094 137.034C354.094 137.034 362.069 118.484 358.408 111.367C358.408 111.367 369.32 114.331 377.095 114.421C381.867 114.458 386.57 115.564 390.86 117.656C393.195 118.801 395.349 120.244 396.571 121.965C400.232 127.141 406.274 124.773 406.274 124.773C407.796 129.51 409.677 134.123 411.901 138.574C412.153 139.046 412.405 139.512 412.664 139.958C413.039 140.605 413.427 141.252 413.816 141.783C415.368 144.002 415.808 143.944 417.916 144.364Z" fill="#0E8993"/>
<path opacity="0.1" d="M435.316 129.6C434.628 130.577 433.863 131.496 433.026 132.349C430.923 134.509 428.408 136.224 425.631 137.396C422.854 138.567 419.87 139.17 416.856 139.169C416.076 139.169 415.297 139.13 414.521 139.052C414.896 136.937 414.799 134.976 413.835 133.559C410.174 128.17 435.614 120.619 435.614 120.619C435.298 123.602 435.199 126.603 435.316 129.6Z" fill="black"/>
<path d="M439.475 115.896C439.475 120.375 438.148 124.753 435.66 128.477C433.172 132.201 429.637 135.103 425.5 136.817C421.363 138.531 416.811 138.98 412.42 138.106C408.028 137.232 403.994 135.075 400.828 131.909C397.662 128.742 395.506 124.707 394.632 120.314C393.759 115.921 394.207 111.368 395.921 107.23C397.634 103.093 400.536 99.556 404.259 97.0677C407.982 94.5795 412.359 93.2514 416.836 93.2514C419.812 93.2403 422.761 93.8184 425.513 94.9525C428.265 96.0865 430.765 97.7541 432.869 99.8591C434.974 101.964 436.641 104.465 437.775 107.217C438.908 109.97 439.486 112.919 439.475 115.896Z" fill="#FBDDDB"/>
<path opacity="0.1" d="M450.691 167.656L451.157 182.809C451.157 182.809 457.916 177.361 458.13 172.185C458.343 167.009 450.691 167.656 450.691 167.656Z" fill="black"/>
<path opacity="0.1" d="M396.138 182.809C396.138 182.809 413.926 207.233 424.275 209.711C434.624 212.189 400.019 190.728 396.138 182.809Z" fill="black"/>
<path opacity="0.1" d="M415.006 185.351C415.006 185.351 424.922 196.557 432.037 197.955L415.006 185.351Z" fill="black"/>
<path opacity="0.1" d="M380.077 213.593C380.077 213.593 398.188 231.385 408.538 232.466L380.077 213.593Z" fill="black"/>
<path opacity="0.1" d="M439.475 115.896C439.478 121.816 437.155 127.5 433.007 131.722L430.523 130.176C429.562 129.675 428.733 128.955 428.104 128.073C427.282 126.701 427.521 124.98 427.586 123.382C427.722 119.998 426.791 116.336 424.145 114.221C419.857 110.785 412.981 112.687 408.621 109.316C407.571 108.425 406.647 107.395 405.872 106.256L401.784 100.776C401.538 100.453 401.241 100.129 400.924 99.7474C404.107 96.6168 408.144 94.4973 412.527 93.6552C416.911 92.8131 421.446 93.2861 425.562 95.0146C429.677 96.7432 433.19 99.6503 435.659 103.37C438.128 107.09 439.442 111.457 439.436 115.922L439.475 115.896Z" fill="black"/>
<path d="M403.194 86.898C405.219 85.3517 407.69 84.5365 409.967 83.3978C412.244 82.2591 414.255 80.8098 416.532 79.8393C418.809 78.8688 421.441 78.2995 423.802 79.1082C428.867 80.8486 430.782 87.9268 435.989 89.169C436.868 89.376 437.774 89.3955 438.66 89.5313C440.351 89.852 441.955 90.5283 443.366 91.5154C444.776 92.5025 445.961 93.7779 446.842 95.2572C448.58 98.2424 449.475 101.644 449.43 105.098C449.502 107.015 449.223 108.929 448.608 110.746C447.069 114.971 443.207 117.863 440.601 121.519C438.133 125.017 436.823 129.201 436.855 133.482L430.542 129.554C429.58 129.056 428.751 128.335 428.123 127.452C427.302 126.08 427.541 124.359 427.606 122.761C427.742 119.377 426.81 115.715 424.171 113.6C419.876 110.164 413 112.066 408.647 108.695C407.597 107.804 406.673 106.774 405.898 105.635L401.81 100.155C400.924 98.9645 399.223 97.4829 398.835 96.0336C397.975 92.9151 400.918 88.6514 403.194 86.898Z" fill="#DCC7A7"/>
<path opacity="0.1" d="M431.248 128.823C430.285 128.325 429.456 127.604 428.828 126.721C428.007 125.349 428.246 123.628 428.311 122.03C428.447 118.646 427.515 114.984 424.87 112.868C420.581 109.433 413.706 111.335 409.346 107.964C408.296 107.072 407.371 106.043 406.597 104.904L402.509 99.4238C401.616 98.2333 399.922 96.7517 399.534 95.3024C398.829 92.805 400.614 89.5506 402.522 87.4673C400.381 89.4471 398.033 93.2061 398.829 96.0076C399.242 97.4569 400.918 98.9385 401.804 100.129L405.892 105.609C406.666 106.748 407.591 107.778 408.641 108.669C412.981 112.04 419.857 110.138 424.165 113.574C426.804 115.689 427.735 119.351 427.6 122.735C427.535 124.333 427.295 126.054 428.117 127.426C428.744 128.309 429.574 129.03 430.536 129.528L436.849 133.456C436.849 133.08 436.849 132.705 436.888 132.336L431.248 128.823Z" fill="black"/>
<path d="M344.01 398.711C344.01 398.711 337.71 400.005 339.003 417.286C340.297 434.568 342.237 437.563 344.825 437.777C347.412 437.99 360.025 441.122 359.378 434.755C358.732 428.389 358.085 414.271 358.945 412.11C359.805 409.95 363.22 404.146 359.96 402.742L357.328 406.184C357.328 406.184 350.426 399.818 346.332 404.457C346.332 404.457 342.503 400.219 344.01 398.711Z" fill="#F5FDFE"/>
<path opacity="0.1" d="M347.994 409.426C349.359 410.073 350.633 410.862 351.992 411.509C353.329 412.21 354.822 412.561 356.332 412.531C356.973 412.519 357.593 412.304 358.104 411.916" fill="black"/>
<path opacity="0.1" d="M389.456 426.325C390.265 427.069 390.892 428.02 391.804 428.635C393.098 429.502 394.754 429.553 396.332 429.573C396.595 429.597 396.859 429.564 397.108 429.476C397.39 429.322 397.628 429.1 397.8 428.829L398.647 427.735" fill="black"/>
<path d="M283.162 139.402C283.162 139.402 280.251 111.801 291.571 118.594C302.89 125.388 295.096 137.461 295.096 137.461L292.437 145.982L283.162 139.402Z" fill="#FFEDEC"/>
<path d="M301.273 51.1968L307.742 44.8433C307.742 44.8433 320.141 9.14854 332.431 18.3165C344.721 27.4844 316.856 50.6663 316.856 50.6663L309.469 59.2907L301.273 51.1968Z" fill="#FFEDEC"/>
<path d="M206.616 192.358L206.293 199.689C206.293 199.689 212.224 210.041 214.702 210.798C217.179 211.555 216.966 188.903 216.966 188.903L206.616 192.358Z" fill="#FF5374"/>
<path d="M206.616 192.358L206.293 199.689C206.293 199.689 212.224 210.041 214.702 210.798C217.179 211.555 216.966 188.903 216.966 188.903L206.616 192.358Z" fill="#0D747C"/>
<path d="M216.532 184.31L216.972 211.328H247.043L244.779 195.587L216.532 184.31Z" fill="#FFEDEC"/>
<path d="M223.544 251.766L224.947 260.39L242.522 299.43C242.522 299.43 250.497 311.723 244.029 322.075C237.56 332.427 230.879 348.602 229.799 358.41C228.718 368.218 220.206 377.82 220.206 377.82L238.751 385.694C238.751 385.694 240.044 370.276 245.219 363.049C250.394 355.822 266.991 324.016 266.991 324.016C266.991 324.016 272.276 319.267 271.092 305.143C269.908 291.019 270.012 281.094 270.012 281.094L268.181 258.559L223.544 251.766Z" fill="#575988"/>
<path opacity="0.1" d="M223.544 251.766L224.947 260.39L242.522 299.43C242.522 299.43 250.497 311.723 244.029 322.075C237.56 332.427 230.879 348.602 229.799 358.41C228.718 368.218 220.206 377.82 220.206 377.82L238.751 385.694C238.751 385.694 240.044 370.276 245.219 363.049C250.394 355.822 266.991 324.016 266.991 324.016C266.991 324.016 272.276 319.267 271.092 305.143C269.908 291.019 270.012 281.094 270.012 281.094L268.181 258.559L223.544 251.766Z" fill="black"/>
<path d="M221.817 376.636C221.817 376.636 201.979 382.672 208.557 392.597C215.136 402.522 236.481 421.388 245.103 420.741C253.726 420.094 250.278 413.728 250.278 413.728L243.053 406.611C243.053 406.611 241.759 391.517 242.303 387.098C242.846 382.679 236.158 380.628 235.291 383.216C234.424 385.804 221.817 376.636 221.817 376.636Z" fill="#AAABAC"/>
<path d="M234.321 199.851L218.596 201.591C217.191 201.746 215.896 202.423 214.966 203.489C214.037 204.554 213.541 205.929 213.577 207.343C213.745 213.632 213.855 223.634 212.975 225.459C211.682 228.157 207.697 247.353 224.942 260.396L248.337 267.837L210.821 270.535L212.011 291.349L217.833 288.114L288.984 291.349C288.984 291.349 309.146 289.298 295.452 267.41C281.759 245.522 252.658 224.061 252.658 224.061L252.335 207.019L250.174 202.063L234.321 199.851Z" fill="#575988"/>
<path opacity="0.1" d="M253.835 267.507C256.385 266.393 259.138 265.818 261.92 265.818C264.703 265.818 267.456 266.393 270.006 267.507H253.835Z" fill="black"/>
<path d="M212.659 270.418C212.659 270.418 189.483 267.08 189.373 271.499C189.263 275.918 192.607 318.943 203.713 316.032C214.819 313.12 210.071 298.886 210.071 298.886L218.377 290.909C218.377 290.909 219.237 286.49 213.739 286.917L212.659 270.418Z" fill="#AAABAC"/>
<path d="M251.035 149.754L260.194 160.216C260.194 160.216 264.185 165.178 268.926 157.628C273.667 150.077 282.509 136.6 282.509 136.6C282.509 136.6 292.322 145.225 294.909 143.504C297.496 141.783 271.086 179.419 271.086 179.419C271.086 179.419 262.678 191.815 250.168 177.154L246.507 175.427L251.035 149.754Z" fill="#0E868F"/>
<path d="M223.014 107.24C233.552 107.24 242.096 98.6944 242.096 88.1533C242.096 77.6122 233.552 69.0669 223.014 69.0669C212.476 69.0669 203.933 77.6122 203.933 88.1533C203.933 98.6944 212.476 107.24 223.014 107.24Z" fill="#FFEDEC"/>
<path opacity="0.1" d="M223.008 98.4274C223.008 98.4274 206.61 106.191 208.551 119.778C210.491 133.365 210.815 150.511 210.815 150.511C210.815 150.511 218.26 161.51 208.389 182.537C208.389 182.537 202.083 193.212 206.287 200.976C206.287 200.976 210.951 188.683 223.008 197.741C235.064 206.799 254.476 211.005 254.476 211.005C254.476 211.005 244.45 167.009 250.595 160.863C250.595 160.863 261.268 145.011 251.565 134.983C241.863 124.954 246.714 115.573 246.714 115.573L277.872 98.8609C277.872 98.8609 284.443 98.9644 293.286 85.164C299.01 76.3448 305.313 67.9154 312.154 59.9312C312.154 59.9312 305.465 49.9027 299.217 49.1458C299.217 49.1458 296.733 51.7337 295.013 58.7472C294.094 62.4674 287.852 68.685 282.205 73.6993C278.195 77.2577 274.327 80.9521 270.465 84.6982C267.606 87.4479 261.242 91.3816 247.361 93.6073C224.515 97.2499 223.008 98.4274 223.008 98.4274Z" fill="black"/>
<path d="M223.008 97.1335C223.008 97.1335 206.61 104.897 208.551 118.484C210.491 132.071 210.815 149.217 210.815 149.217C210.815 149.217 218.26 160.216 208.389 181.243C208.389 181.243 202.083 191.918 206.287 199.682C206.287 199.682 210.951 187.389 223.008 196.447C235.064 205.505 254.476 209.711 254.476 209.711C254.476 209.711 244.45 165.715 250.595 159.569C250.595 159.569 261.268 143.717 251.565 133.689C241.863 123.66 246.714 114.279 246.714 114.279L277.872 97.567C277.872 97.567 284.443 97.6705 293.286 83.8701C299.01 75.0509 305.313 66.6214 312.154 58.6372C312.154 58.6372 305.465 48.6088 299.217 47.8518C299.217 47.8518 296.733 50.4398 295.013 57.4532C294.094 61.1735 287.852 67.3911 282.205 72.4053C278.195 75.9638 274.327 79.6581 270.465 83.4042C267.606 86.154 261.242 90.0877 247.361 92.3134C224.515 95.956 223.008 97.1335 223.008 97.1335Z" fill="#0E8993"/>
<path opacity="0.1" d="M237.128 178.441C237.128 178.441 249.845 197.204 250.168 200.439C250.174 200.439 248.234 180.272 237.128 178.441Z" fill="black"/>
<path opacity="0.1" d="M220.42 115.25C220.42 115.25 229.288 125.925 242.102 116.977C238.56 118.18 234.811 118.647 231.083 118.35C227.355 118.053 223.726 116.998 220.42 115.25Z" fill="black"/>
<path opacity="0.1" d="M227.296 68.1933C227.063 67.2237 226.582 66.3316 225.899 65.6053C222.975 61.9369 219.799 58.1713 215.446 56.4309C212.556 55.3511 209.397 55.2245 206.43 56.0697C203.464 56.9149 200.845 58.6874 198.958 61.1281C197.393 63.2373 196.461 65.7477 195.11 68.0057C192.613 72.1853 188.751 75.4073 184.599 77.9565C182.095 79.4899 179.456 80.8162 177.095 82.5566C168.512 88.8778 164.547 100.563 166.707 111.024C167.658 115.605 169.67 120.121 169.126 124.773C168.706 128.383 166.785 131.618 164.838 134.685C162.891 137.752 160.815 140.857 160.039 144.39C159.262 147.923 160.077 152.109 163.007 154.25C164.088 155.04 165.388 155.544 166.313 156.489C166.925 157.224 167.436 158.038 167.833 158.909C169.374 161.752 171.478 164.251 174.017 166.253C176.556 168.256 179.476 169.719 182.6 170.555C185.381 171.286 189.114 171.02 190.129 168.329C190.246 167.854 190.422 167.395 190.653 166.964C191.571 165.67 193.596 166.394 195.019 167.138C198.259 168.832 201.808 169.851 205.452 170.134C206.898 170.325 208.368 170.149 209.728 169.623C210.876 169.04 211.864 168.185 212.606 167.132C216.009 162.7 216.985 156.909 217.568 151.352C217.949 147.735 218.214 144.054 217.522 140.482C216.423 134.75 212.936 129.393 213.454 123.583C214.003 117.371 219.042 112.293 219.812 106.114C220.203 102.879 219.396 99.6124 217.542 96.9329C216.858 96.1054 216.278 95.1972 215.815 94.2284C215.594 93.7385 215.525 93.1935 215.617 92.6641C215.71 92.1346 215.959 91.6451 216.332 91.2587C216.742 90.9701 217.196 90.7514 217.677 90.6117C221.837 89.0136 224.055 84.847 224.353 80.5833C224.469 78.9658 224.353 77.4777 224.799 75.899C225.511 73.4599 227.665 70.7942 227.296 68.1933Z" fill="black"/>
<path d="M226.002 68.1933C225.769 67.2237 225.288 66.3316 224.605 65.6053C221.681 61.9369 218.505 58.1713 214.152 56.4309C211.262 55.3511 208.103 55.2245 205.137 56.0697C202.17 56.9149 199.551 58.6874 197.664 61.1281C196.099 63.2373 195.168 65.7477 193.816 68.0057C191.319 72.1853 187.457 75.4073 183.305 77.9565C180.801 79.4899 178.162 80.8162 175.801 82.5566C167.218 88.8778 163.253 100.563 165.413 111.024C166.364 115.605 168.376 120.121 167.833 124.773C167.412 128.383 165.491 131.618 163.544 134.685C161.597 137.752 159.521 140.857 158.745 144.39C157.968 147.923 158.783 152.109 161.714 154.25C162.794 155.04 164.094 155.544 165.019 156.489C165.631 157.224 166.142 158.038 166.539 158.909C168.08 161.752 170.184 164.251 172.723 166.253C175.262 168.256 178.182 169.719 181.306 170.555C184.087 171.286 187.82 171.02 188.835 168.329C188.952 167.854 189.128 167.395 189.359 166.964C190.278 165.67 192.302 166.394 193.725 167.138C196.965 168.832 200.514 169.851 204.158 170.134C205.604 170.325 207.074 170.149 208.434 169.623C209.582 169.04 210.57 168.185 211.312 167.132C214.715 162.7 215.691 156.909 216.274 151.352C216.655 147.735 216.92 144.054 216.228 140.482C215.129 134.75 211.642 129.393 212.16 123.583C212.71 117.371 217.748 112.293 218.518 106.114C218.909 102.879 218.102 99.6124 216.248 96.9329C215.564 96.1054 214.984 95.1972 214.521 94.2284C214.3 93.7385 214.231 93.1935 214.323 92.6641C214.416 92.1346 214.665 91.6451 215.038 91.2587C215.448 90.9701 215.902 90.7514 216.384 90.6117C220.543 89.0136 222.761 84.847 223.059 80.5833C223.175 78.9658 223.059 77.4777 223.505 75.899C224.217 73.4599 226.371 70.7942 226.002 68.1933Z" fill="#DCC7A7"/>
<g opacity="0.1">
<path opacity="0.1" d="M187.431 166.931C187.2 167.364 187.022 167.822 186.901 168.297C186.299 169.901 184.728 170.639 182.975 170.82C185.413 171.066 188.02 170.477 188.841 168.297C188.963 167.822 189.141 167.364 189.372 166.931C189.535 166.694 189.758 166.504 190.019 166.382C189.035 166.097 188.026 166.11 187.431 166.931Z" fill="black"/>
<path opacity="0.1" d="M226.034 68.187C225.808 67.215 225.325 66.3213 224.637 65.599C221.713 61.9306 218.537 58.1651 214.184 56.4246C212.292 55.6858 210.259 55.3807 208.233 55.5318C209.608 55.6184 210.962 55.9196 212.244 56.4246C216.597 58.1651 219.773 61.9306 222.696 65.599C223.385 66.3213 223.867 67.215 224.094 68.187C224.462 70.775 222.315 73.46 221.603 75.8539C221.131 77.4326 221.267 78.9142 221.157 80.5382C220.853 84.7954 218.641 88.9491 214.475 90.5666C213.994 90.7063 213.539 90.925 213.13 91.2136C212.756 91.6012 212.507 92.0923 212.416 92.623C212.325 93.1538 212.396 93.6997 212.619 94.1898C213.079 95.1584 213.657 96.0666 214.339 96.8942C216.195 99.5707 217.005 102.835 216.616 106.069C215.84 112.26 210.795 117.333 210.251 123.538C209.734 129.36 213.227 134.705 214.32 140.431C215.006 144.002 214.747 147.683 214.365 151.3C213.783 156.858 212.813 162.655 209.404 167.08C208.665 168.133 207.678 168.988 206.532 169.571C205.862 169.865 205.147 170.042 204.417 170.095C205.791 170.259 207.185 170.079 208.473 169.571C209.621 169.004 210.613 168.164 211.364 167.126C214.773 162.7 215.743 156.903 216.325 151.345C216.707 147.729 216.972 144.047 216.28 140.476C215.187 134.75 211.694 129.386 212.211 123.583C212.768 117.365 217.8 112.293 218.576 106.114C218.965 102.88 218.155 99.616 216.299 96.9395C215.617 96.1119 215.039 95.2036 214.579 94.2351C214.356 93.745 214.285 93.1991 214.376 92.6683C214.467 92.1376 214.716 91.6465 215.09 91.2589C215.499 90.9703 215.954 90.7516 216.435 90.6119C220.601 89.0074 222.813 84.8407 223.117 80.5835C223.227 78.9595 223.117 77.4779 223.563 75.8992C224.255 73.46 226.403 70.7944 226.034 68.187Z" fill="black"/>
</g>
<path opacity="0.1" d="M201.546 296.525C202.654 297.735 204.081 298.609 205.664 299.046C207.246 299.484 208.919 299.466 210.492 298.996" fill="black"/>
<path opacity="0.1" d="M242.994 407.161C242.376 407.66 241.657 408.02 240.886 408.214C240.116 408.408 239.312 408.433 238.531 408.287" fill="black"/>
<path opacity="0.1" d="M68.0138 427.244C77.6342 427.244 85.433 425.926 85.433 424.3C85.433 422.674 77.6342 421.356 68.0138 421.356C58.3935 421.356 50.5947 422.674 50.5947 424.3C50.5947 425.926 58.3935 427.244 68.0138 427.244Z" fill="#0E8993"/>
<path d="M544.908 485.862C554.529 485.862 562.327 484.544 562.327 482.918C562.327 481.292 554.529 479.974 544.908 479.974C535.288 479.974 527.489 481.292 527.489 482.918C527.489 484.544 535.288 485.862 544.908 485.862Z" fill="#0E8993"/>
<path opacity="0.1" d="M544.908 429.198C554.529 429.198 562.327 427.88 562.327 426.254C562.327 424.628 554.529 423.31 544.908 423.31C535.288 423.31 527.489 424.628 527.489 426.254C527.489 427.88 535.288 429.198 544.908 429.198Z" fill="#0E8993"/>
<path opacity="0.1" d="M117.406 454.579C127.027 454.579 134.826 453.261 134.826 451.635C134.826 450.01 127.027 448.692 117.406 448.692C107.786 448.692 99.9873 450.01 99.9873 451.635C99.9873 453.261 107.786 454.579 117.406 454.579Z" fill="#0E8993"/>
<path d="M599.999 456.035C614.364 456.035 626.008 454.065 626.008 451.635C626.008 449.206 614.364 447.236 599.999 447.236C585.635 447.236 573.99 449.206 573.99 451.635C573.99 454.065 585.635 456.035 599.999 456.035Z" fill="#0E8993"/>
<path opacity="0.1" d="M226.041 496C258.464 496 284.747 491.556 284.747 486.075C284.747 480.594 258.464 476.15 226.041 476.15C193.619 476.15 167.335 480.594 167.335 486.075C167.335 491.556 193.619 496 226.041 496Z" fill="#0E8993"/>
<path d="M610.749 444.441C611.936 443.472 612.802 442.166 613.233 440.695C613.55 439.207 612.916 437.427 611.5 436.884C609.908 436.276 608.207 437.376 606.92 438.495C605.633 439.614 604.152 440.876 602.463 440.643C603.332 439.857 603.981 438.858 604.348 437.746C604.716 436.634 604.788 435.445 604.559 434.296C604.486 433.82 604.285 433.373 603.977 433.002C603.091 432.057 601.493 432.465 600.432 433.209C597.069 435.577 596.131 440.145 596.111 444.26C595.775 442.778 596.06 441.232 596.053 439.731C596.047 438.23 595.626 436.496 594.346 435.7C593.554 435.264 592.662 435.041 591.758 435.053C590.245 435.001 588.563 435.15 587.528 436.256C586.234 437.634 586.577 439.938 587.696 441.432C588.815 442.927 590.51 443.891 592.069 444.939C593.323 445.685 594.393 446.705 595.199 447.922C595.292 448.091 595.37 448.269 595.432 448.452H604.908C607.027 447.384 608.992 446.035 610.749 444.441Z" fill="#0E8993"/>
<path d="M555.665 475.879C556.85 474.909 557.714 473.603 558.142 472.132C558.459 470.644 557.832 468.897 556.409 468.322C554.817 467.713 553.116 468.813 551.829 469.933C550.542 471.052 549.061 472.314 547.372 472.081C548.241 471.294 548.89 470.296 549.257 469.184C549.625 468.071 549.697 466.883 549.468 465.734C549.398 465.256 549.197 464.808 548.886 464.44C548.006 463.495 546.402 463.903 545.348 464.647C541.984 467.015 541.046 471.582 541.027 475.697C540.684 474.216 540.969 472.669 540.962 471.168C540.956 469.667 540.535 467.933 539.255 467.138C538.461 466.711 537.569 466.499 536.667 466.523C535.154 466.471 533.472 466.62 532.437 467.726C531.143 469.104 531.486 471.408 532.605 472.902C533.724 474.397 535.419 475.361 536.984 476.409C538.237 477.156 539.304 478.175 540.109 479.392C540.202 479.561 540.28 479.739 540.341 479.922H549.817C551.939 478.843 553.906 477.483 555.665 475.879Z" fill="#0E8993"/>
<path d="M137.135 417.513C137.135 417.513 128.047 386.645 138.842 363.929C143.439 354.425 144.828 343.686 142.801 333.326C141.8 328.418 140.352 323.612 138.474 318.969" stroke="#535461" stroke-width="2" stroke-miterlimit="10"/>
<path d="M145.168 304.612C145.168 308.397 138.318 319.363 138.318 319.363C138.318 319.363 131.475 308.397 131.475 304.612C131.447 303.695 131.603 302.782 131.934 301.926C132.266 301.071 132.766 300.29 133.404 299.632C134.043 298.973 134.807 298.449 135.652 298.092C136.496 297.734 137.404 297.55 138.322 297.55C139.239 297.55 140.147 297.734 140.991 298.092C141.836 298.449 142.601 298.973 143.239 299.632C143.878 300.29 144.377 301.071 144.709 301.926C145.04 302.782 145.196 303.695 145.168 304.612Z" fill="#0E8993"/>
<path d="M156.487 325.568C154.43 328.739 142.723 334.225 142.723 334.225C142.723 334.225 142.936 321.285 144.993 318.121C146.004 316.651 147.548 315.633 149.298 315.284C151.047 314.935 152.864 315.282 154.362 316.252C155.859 317.222 156.919 318.739 157.316 320.479C157.713 322.218 157.416 324.044 156.487 325.568Z" fill="#0E8993"/>
<path d="M155.996 361.373C152.62 363.081 139.741 361.904 139.741 361.904C139.741 361.904 146.449 350.847 149.825 349.145C151.439 348.388 153.285 348.289 154.97 348.871C156.655 349.453 158.047 350.669 158.85 352.26C159.653 353.852 159.804 355.694 159.272 357.396C158.739 359.098 157.564 360.524 155.996 361.373Z" fill="#0E8993"/>
<path d="M149.521 388.398C146.481 390.643 133.59 391.633 133.59 391.633C133.59 391.633 138.338 379.599 141.352 377.348C142.815 376.372 144.597 375.996 146.329 376.298C148.061 376.6 149.611 377.556 150.658 378.97C151.704 380.383 152.167 382.145 151.951 383.891C151.734 385.636 150.855 387.231 149.495 388.346L149.521 388.398Z" fill="#0E8993"/>
<path d="M128.344 334.963C131.06 337.596 143.693 340.326 143.693 340.326C143.693 340.326 140.601 327.768 137.871 325.135C136.558 323.923 134.824 323.273 133.039 323.322C131.253 323.371 129.557 324.116 128.313 325.398C127.068 326.68 126.374 328.397 126.377 330.184C126.38 331.971 127.081 333.686 128.331 334.963H128.344Z" fill="#0E8993"/>
<path d="M121.177 366.646C124.554 368.348 137.426 367.17 137.426 367.17C137.426 367.17 130.718 356.113 127.342 354.411C125.725 353.637 123.869 353.527 122.172 354.106C120.475 354.685 119.073 355.906 118.266 357.508C117.459 359.109 117.312 360.963 117.857 362.671C118.401 364.38 119.593 365.807 121.177 366.646Z" fill="#0E8993"/>
<path d="M118.428 398.394C121.468 400.646 134.359 401.629 134.359 401.629C134.359 401.629 129.612 389.595 126.597 387.35C125.135 386.374 123.352 385.998 121.62 386.3C119.888 386.602 118.338 387.559 117.292 388.972C116.245 390.386 115.782 392.148 115.998 393.893C116.215 395.639 117.094 397.234 118.454 398.349L118.428 398.394Z" fill="#0E8993"/>
<path d="M115.634 415.572C115.634 415.572 126.701 413.372 129.657 410.441C132.613 407.51 145.886 402.386 147.361 406.048C148.836 409.71 167.283 422.165 154.741 424.365C142.199 426.564 125.226 427.296 121.539 425.833C117.852 424.371 115.634 415.572 115.634 415.572Z" fill="#A8A8A8"/>
<path opacity="0.2" d="M154.76 422.987C142.218 425.186 125.246 425.917 121.559 424.449C118.745 423.336 116.792 417.979 116.022 415.475L115.634 415.572C115.634 415.572 117.846 424.365 121.539 425.833C125.233 427.302 142.199 426.564 154.741 424.365C158.363 423.718 159.398 422.242 159.01 420.353C158.719 421.563 157.458 422.514 154.76 422.987Z" fill="black"/>
<path d="M548.473 383.811C548.473 383.811 552.03 388.463 546.836 395.457C541.642 402.451 537.36 408.397 539.074 412.777C539.074 412.777 546.914 399.74 553.305 399.559C559.695 399.378 555.478 391.633 548.473 383.811Z" fill="#0E8993"/>
<path opacity="0.1" d="M548.472 383.811C548.784 384.262 549.03 384.754 549.203 385.273C555.426 392.584 558.738 399.41 552.754 399.578C547.185 399.74 540.504 409.704 538.899 412.221C538.952 412.416 539.015 412.608 539.087 412.797C539.087 412.797 546.927 399.76 553.317 399.578C559.708 399.397 555.478 391.633 548.472 383.811Z" fill="black"/>
<path d="M555.083 389.737C555.083 391.374 554.896 392.701 554.669 392.701C554.443 392.701 554.262 391.407 554.262 389.737C554.262 388.068 554.488 388.87 554.715 388.87C554.941 388.87 555.083 388.101 555.083 389.737Z" fill="#FFD037"/>
<path d="M557.347 391.691C555.911 392.474 554.656 392.946 554.553 392.746C554.449 392.545 555.517 391.756 556.953 390.973C558.388 390.19 557.826 390.76 557.936 390.973C558.046 391.187 558.783 390.908 557.347 391.691Z" fill="#FFD037"/>
<path d="M529.708 383.811C529.708 383.811 526.15 388.463 531.344 395.457C536.538 402.451 540.82 408.397 539.106 412.777C539.106 412.777 531.273 399.74 524.876 399.559C518.479 399.378 522.69 391.633 529.708 383.811Z" fill="#0E8993"/>
<path opacity="0.1" d="M529.708 383.811C529.397 384.262 529.151 384.754 528.978 385.273C522.755 392.584 519.443 399.41 525.426 399.578C530.996 399.74 537.677 409.704 539.282 412.221C539.23 412.417 539.165 412.609 539.087 412.797C539.087 412.797 531.254 399.76 524.857 399.578C518.46 399.397 522.69 391.633 529.708 383.811Z" fill="black"/>
<path d="M523.098 389.737C523.098 391.374 523.285 392.701 523.512 392.701C523.738 392.701 523.919 391.407 523.919 389.737C523.919 388.068 523.693 388.87 523.466 388.87C523.24 388.87 523.098 388.101 523.098 389.737Z" fill="#FFD037"/>
<path d="M520.833 391.691C522.269 392.474 523.518 392.946 523.628 392.746C523.738 392.545 522.664 391.756 521.228 390.973C519.792 390.19 520.355 390.76 520.245 390.973C520.135 391.187 519.397 390.908 520.833 391.691Z" fill="#FFD037"/>
<path d="M524.229 412.188C524.229 412.188 534.165 411.878 537.166 409.749C540.167 407.62 552.451 405.071 553.195 408.455C553.938 411.839 568.123 425.465 556.907 425.555C545.691 425.646 530.847 423.808 527.858 421.99C524.87 420.172 524.229 412.188 524.229 412.188Z" fill="#A8A8A8"/>
<path opacity="0.2" d="M557.101 424.397C545.885 424.488 531.041 422.65 528.052 420.832C525.775 419.448 524.863 414.472 524.566 412.175H524.229C524.229 412.175 524.876 420.192 527.852 422.01C530.827 423.828 545.685 425.665 556.901 425.575C560.135 425.575 561.254 424.397 561.196 422.695C560.743 423.737 559.507 424.378 557.101 424.397Z" fill="black"/>
</g>
<defs>
<linearGradient id="paint0_linear" x1="343.188" y1="454.722" x2="343.188" y2="14.1692" gradientUnits="userSpaceOnUse">
<stop stop-color="#808080" stop-opacity="0.25"/>
<stop offset="0.54" stop-color="#808080" stop-opacity="0.12"/>
<stop offset="1" stop-color="#808080" stop-opacity="0.1"/>
</linearGradient>
<clipPath id="clip0">
<rect width="653" height="496" fill="white"/>
</clipPath>
</defs>
</svg>
