<svg width="229" height="144" viewBox="0 0 229 144" fill="none" xmlns="http://www.w3.org/2000/svg">
<path d="M63.3414 24.9999C-16.808 52.6967 15.7511 97.5207 42.0493 116.471" stroke="#C4C4C4" stroke-width="3"/>
<g clip-path="url(#clip0)">
<path d="M19.834 115.8L42.4039 117.412L44.016 94.842" stroke="#C4C4C4" stroke-width="2" stroke-linecap="round" stroke-linejoin="round"/>
</g>
<path d="M91.712 30.784C93.4613 30.784 94.816 30.5387 95.776 30.048C96.736 29.5573 97.216 28.8427 97.216 27.904C97.216 27.072 96.928 26.3573 96.352 25.76C95.776 25.1413 95.0613 24.6187 94.208 24.192C93.3547 23.7653 92.192 23.264 90.72 22.688C90.592 22.6453 90.2827 22.528 89.792 22.336C87.7867 21.5253 86.24 20.7147 85.152 19.904C84.0853 19.0933 83.552 18.048 83.552 16.768C83.552 15.3387 84.1173 14.2613 85.248 13.536C86.3787 12.8107 87.8293 12.448 89.6 12.448C90.9013 12.448 92.096 12.6187 93.184 12.96C94.2933 13.28 95.168 13.728 95.808 14.304C96.4693 14.88 96.8 15.5307 96.8 16.256C96.544 16.384 96.2987 16.448 96.064 16.448C95.808 16.448 95.5413 16.3947 95.264 16.288C95.008 16.16 94.624 15.9573 94.112 15.68C93.28 15.232 92.5013 14.88 91.776 14.624C91.0507 14.3467 90.1973 14.208 89.216 14.208C87.9787 14.208 86.976 14.4213 86.208 14.848C85.44 15.2747 85.056 15.872 85.056 16.64C85.056 17.2373 85.312 17.7813 85.824 18.272C86.3573 18.7627 87.0187 19.2 87.808 19.584C88.6187 19.9467 89.696 20.384 91.04 20.896C92.7467 21.5573 94.1547 22.176 95.264 22.752C96.3733 23.328 97.312 24.064 98.08 24.96C98.8693 25.8347 99.264 26.88 99.264 28.096C99.264 29.5253 98.5813 30.6347 97.216 31.424C95.8507 32.192 94.1547 32.576 92.128 32.576C90.528 32.576 88.9493 32.3413 87.392 31.872C85.8347 31.4027 84.5013 30.7093 83.392 29.792C82.2827 28.8533 81.5787 27.7333 81.28 26.432C81.28 25.856 81.44 25.3653 81.76 24.96C82.08 24.5333 82.4747 24.32 82.944 24.32C82.944 25.7067 83.328 26.8907 84.096 27.872C84.8853 28.832 85.9413 29.5573 87.264 30.048C88.608 30.5387 90.0907 30.784 91.712 30.784ZM109.363 32C107.998 32 106.739 31.7333 105.587 31.2C104.435 30.6667 103.518 29.9093 102.835 28.928C102.153 27.9467 101.811 26.816 101.811 25.536C101.811 24.1067 102.078 22.7733 102.611 21.536C103.145 20.2773 103.923 19.2747 104.947 18.528C105.993 17.76 107.209 17.376 108.595 17.376C110.046 17.376 111.145 17.8453 111.891 18.784C112.638 19.7013 112.99 20.864 112.947 22.272C112.947 23.5307 112.446 24.4907 111.443 25.152C110.462 25.8133 109.203 26.144 107.667 26.144C107.433 26.144 107.081 26.1227 106.611 26.08C105.843 25.9947 105.299 25.8773 104.979 25.728C104.659 25.5787 104.499 25.28 104.499 24.832C104.499 24.6827 104.542 24.576 104.627 24.512C104.713 24.4267 104.883 24.384 105.139 24.384C105.417 24.384 105.907 24.448 106.611 24.576C107.294 24.704 107.902 24.768 108.435 24.768C110.398 24.768 111.379 23.9147 111.379 22.208C111.379 21.184 111.187 20.3733 110.803 19.776C110.441 19.1787 109.79 18.88 108.851 18.88C107.827 18.88 106.91 19.1573 106.099 19.712C105.289 20.2453 104.659 20.9493 104.211 21.824C103.785 22.6987 103.571 23.6267 103.571 24.608C103.571 26.2933 104.041 27.68 104.979 28.768C105.918 29.8347 107.369 30.368 109.331 30.368C109.566 30.368 109.961 30.3467 110.515 30.304C110.75 30.2827 111.038 30.2187 111.379 30.112C111.721 30.0053 111.966 29.9307 112.115 29.888C113.033 29.568 113.705 29.408 114.131 29.408C114.451 29.408 114.697 29.4933 114.867 29.664C114.334 30.4747 113.534 31.072 112.467 31.456C111.422 31.8187 110.387 32 109.363 32ZM119.931 43.392C119.504 43.392 118.992 42.2507 118.395 39.968C117.819 37.6853 117.296 35.1467 116.827 32.352C116.379 29.5787 116.155 27.8293 116.155 27.104C116.155 24.9493 116.88 23.3813 118.331 22.4C119.782 21.3973 121.648 20.896 123.931 20.896C125.147 20.896 126.299 21.152 127.387 21.664C128.475 22.1547 129.35 22.8693 130.011 23.808C130.672 24.7253 131.003 25.792 131.003 27.008C131.003 28.5227 130.47 29.5893 129.403 30.208C128.358 30.8267 127.035 31.136 125.435 31.136C123.771 31.136 122.352 30.8587 121.179 30.304C120.027 29.728 119.451 28.9493 119.451 27.968L119.483 27.648C119.632 27.4773 119.792 27.392 119.963 27.392C120.112 27.392 120.272 27.456 120.443 27.584C120.635 27.6907 120.838 27.8187 121.051 27.968C121.712 28.4587 122.363 28.8533 123.003 29.152C123.664 29.4507 124.486 29.6 125.467 29.6C126.811 29.6 127.76 29.3653 128.315 28.896C128.891 28.4053 129.179 27.6373 129.179 26.592C129.179 25.824 128.923 25.1413 128.411 24.544C127.899 23.9467 127.238 23.488 126.427 23.168C125.616 22.848 124.784 22.688 123.931 22.688C121.947 22.688 120.454 23.1147 119.451 23.968C118.448 24.8 118 26.1973 118.107 28.16C118.299 31.488 118.598 34.2827 119.003 36.544C119.43 38.8053 120.166 40.7253 121.211 42.304L121.243 42.368C121.243 42.4107 121.19 42.4533 121.083 42.496C120.998 42.56 120.934 42.6133 120.891 42.656C120.635 43.0613 120.315 43.3067 119.931 43.392ZM138.713 32C138.5 32.0427 138.361 32.064 138.297 32.064C137.636 32.064 137.177 31.5733 136.921 30.592C136.687 29.6107 136.569 28.2347 136.569 26.464C136.569 25.7387 136.591 24.608 136.633 23.072C136.676 22.1333 136.697 21.4293 136.697 20.96C134.073 20.96 132.761 20.6613 132.761 20.064C132.761 19.872 132.783 19.7227 132.825 19.616C132.889 19.5093 133.017 19.456 133.209 19.456L136.697 19.232C136.676 18.1867 136.623 17.0453 136.537 15.808C136.452 14.6987 136.399 13.6747 136.377 12.736C136.377 12.5013 136.473 12.3413 136.665 12.256C136.857 12.1493 137.06 12.096 137.273 12.096C137.529 12.096 137.743 12.2347 137.913 12.512C138.084 12.768 138.169 13.0347 138.169 13.312L138.393 19.168L141.049 19.296C141.455 19.2533 141.796 19.328 142.073 19.52C142.372 19.712 142.532 20.032 142.553 20.48C142.105 20.672 141.615 20.7893 141.081 20.832C140.548 20.8747 139.652 20.896 138.393 20.896C138.393 22.88 138.489 26.144 138.681 30.688C138.681 31.1573 138.681 31.488 138.681 31.68C138.703 31.8507 138.713 31.9573 138.713 32ZM151.863 32C150.498 32 149.239 31.7333 148.087 31.2C146.935 30.6667 146.018 29.9093 145.335 28.928C144.653 27.9467 144.311 26.816 144.311 25.536C144.311 24.1067 144.578 22.7733 145.111 21.536C145.645 20.2773 146.423 19.2747 147.447 18.528C148.493 17.76 149.709 17.376 151.095 17.376C152.546 17.376 153.645 17.8453 154.391 18.784C155.138 19.7013 155.49 20.864 155.447 22.272C155.447 23.5307 154.946 24.4907 153.943 25.152C152.962 25.8133 151.703 26.144 150.167 26.144C149.933 26.144 149.581 26.1227 149.111 26.08C148.343 25.9947 147.799 25.8773 147.479 25.728C147.159 25.5787 146.999 25.28 146.999 24.832C146.999 24.6827 147.042 24.576 147.127 24.512C147.213 24.4267 147.383 24.384 147.639 24.384C147.917 24.384 148.407 24.448 149.111 24.576C149.794 24.704 150.402 24.768 150.935 24.768C152.898 24.768 153.879 23.9147 153.879 22.208C153.879 21.184 153.687 20.3733 153.303 19.776C152.941 19.1787 152.29 18.88 151.351 18.88C150.327 18.88 149.41 19.1573 148.599 19.712C147.789 20.2453 147.159 20.9493 146.711 21.824C146.285 22.6987 146.071 23.6267 146.071 24.608C146.071 26.2933 146.541 27.68 147.479 28.768C148.418 29.8347 149.869 30.368 151.831 30.368C152.066 30.368 152.461 30.3467 153.015 30.304C153.25 30.2827 153.538 30.2187 153.879 30.112C154.221 30.0053 154.466 29.9307 154.615 29.888C155.533 29.568 156.205 29.408 156.631 29.408C156.951 29.408 157.197 29.4933 157.367 29.664C156.834 30.4747 156.034 31.072 154.967 31.456C153.922 31.8187 152.887 32 151.863 32ZM179.423 32.032C179.103 32.032 178.911 31.9467 178.847 31.776C178.783 31.584 178.751 31.296 178.751 30.912C178.772 30.7627 178.783 30.592 178.783 30.4C178.783 30.1867 178.794 30.0267 178.815 29.92C178.943 28.896 179.007 27.9253 179.007 27.008C179.007 24.9813 178.666 23.4027 177.983 22.272C177.3 21.12 176.223 20.544 174.751 20.544C173.94 20.544 173.13 20.7467 172.319 21.152C171.53 21.5573 170.879 22.0587 170.367 22.656C169.876 23.2533 169.631 23.7973 169.631 24.288C169.738 24.9067 169.93 25.664 170.207 26.56C170.228 26.6667 170.314 26.9973 170.463 27.552C170.634 28.1067 170.719 28.608 170.719 29.056L170.751 29.664C170.751 30.0053 170.58 30.176 170.239 30.176C169.812 30.176 169.46 29.8987 169.183 29.344C168.927 28.7893 168.639 27.9253 168.319 26.752C167.999 25.6 167.69 24.6507 167.391 23.904C167.092 23.1573 166.687 22.5173 166.175 21.984C165.663 21.4507 165.012 21.184 164.223 21.184C163.135 21.184 162.282 21.5573 161.663 22.304C161.066 23.0507 160.767 23.968 160.767 25.056C160.767 25.7813 160.831 26.7413 160.959 27.936C161.066 28.832 161.119 29.6 161.119 30.24C161.119 30.624 161.076 30.912 160.991 31.104C160.906 31.296 160.703 31.392 160.383 31.392C159.956 31.392 159.658 31.2533 159.487 30.976C159.316 30.6773 159.231 30.2293 159.231 29.632C159.231 28.4587 159.167 27.04 159.039 25.376C159.018 25.1627 158.975 24.6187 158.911 23.744C158.847 22.848 158.836 21.952 158.879 21.056L158.911 20C159.039 19.872 159.188 19.808 159.359 19.808C159.594 19.808 159.786 19.9573 159.935 20.256C160.106 20.5333 160.191 20.96 160.191 21.536C160.511 20.9813 160.98 20.48 161.599 20.032C162.218 19.584 162.868 19.36 163.551 19.36C164.724 19.36 165.695 19.6053 166.463 20.096C167.252 20.5653 167.967 21.3333 168.607 22.4C169.204 21.312 170.1 20.384 171.295 19.616C172.511 18.848 173.759 18.464 175.039 18.464C176.362 18.464 177.46 18.9653 178.335 19.968C179.231 20.9707 179.882 22.176 180.287 23.584C180.714 24.992 180.927 26.2933 180.927 27.488C180.927 28.5547 180.831 29.5787 180.639 30.56C180.468 31.5413 180.063 32.032 179.423 32.032ZM192.107 32.032C190.4 32.032 189.056 31.7013 188.075 31.04C187.093 30.3573 186.368 29.3333 185.899 27.968C185.429 26.5813 185.12 24.7253 184.971 22.4L184.043 16.992C183.957 16.2027 183.84 15.4347 183.691 14.688C183.541 13.9413 183.467 13.408 183.467 13.088C183.467 12.64 183.595 12.3093 183.851 12.096C184.107 11.8613 184.565 11.7013 185.227 11.616C185.355 12.6827 185.44 13.4827 185.483 14.016C185.717 16.0853 185.909 17.6747 186.059 18.784C186.229 19.872 186.443 21.0133 186.699 22.208C188.341 21.4827 189.92 21.12 191.435 21.12C192.8 21.12 194.016 21.408 195.083 21.984C196.149 22.5387 196.981 23.328 197.579 24.352C198.176 25.3547 198.475 26.4853 198.475 27.744C198.475 29.216 197.824 30.304 196.523 31.008C195.243 31.6907 193.771 32.032 192.107 32.032ZM196.683 27.808C196.704 27.6587 196.715 27.4453 196.715 27.168C196.715 25.6533 196.192 24.5227 195.147 23.776C194.123 23.0293 192.661 22.656 190.763 22.656C189.589 22.656 188.672 22.8907 188.011 23.36C187.371 23.808 187.051 24.4267 187.051 25.216C187.051 27.0293 187.541 28.352 188.523 29.184C189.525 30.016 191.051 30.432 193.099 30.432C194.08 30.432 194.901 30.208 195.563 29.76C196.224 29.312 196.597 28.6613 196.683 27.808ZM207.957 32C206.592 32 205.333 31.7333 204.181 31.2C203.029 30.6667 202.112 29.9093 201.429 28.928C200.746 27.9467 200.405 26.816 200.405 25.536C200.405 24.1067 200.672 22.7733 201.205 21.536C201.738 20.2773 202.517 19.2747 203.541 18.528C204.586 17.76 205.802 17.376 207.189 17.376C208.64 17.376 209.738 17.8453 210.485 18.784C211.232 19.7013 211.584 20.864 211.541 22.272C211.541 23.5307 211.04 24.4907 210.037 25.152C209.056 25.8133 207.797 26.144 206.261 26.144C206.026 26.144 205.674 26.1227 205.205 26.08C204.437 25.9947 203.893 25.8773 203.573 25.728C203.253 25.5787 203.093 25.28 203.093 24.832C203.093 24.6827 203.136 24.576 203.221 24.512C203.306 24.4267 203.477 24.384 203.733 24.384C204.01 24.384 204.501 24.448 205.205 24.576C205.888 24.704 206.496 24.768 207.029 24.768C208.992 24.768 209.973 23.9147 209.973 22.208C209.973 21.184 209.781 20.3733 209.397 19.776C209.034 19.1787 208.384 18.88 207.445 18.88C206.421 18.88 205.504 19.1573 204.693 19.712C203.882 20.2453 203.253 20.9493 202.805 21.824C202.378 22.6987 202.165 23.6267 202.165 24.608C202.165 26.2933 202.634 27.68 203.573 28.768C204.512 29.8347 205.962 30.368 207.925 30.368C208.16 30.368 208.554 30.3467 209.109 30.304C209.344 30.2827 209.632 30.2187 209.973 30.112C210.314 30.0053 210.56 29.9307 210.709 29.888C211.626 29.568 212.298 29.408 212.725 29.408C213.045 29.408 213.29 29.4933 213.461 29.664C212.928 30.4747 212.128 31.072 211.061 31.456C210.016 31.8187 208.981 32 207.957 32ZM217.565 32C216.69 30.2933 215.997 28.288 215.485 25.984C214.994 23.68 214.749 21.6853 214.749 20C214.749 19.3387 214.898 18.912 215.197 18.72C215.367 18.6133 215.495 18.56 215.581 18.56C215.73 18.56 215.837 18.6773 215.901 18.912C215.986 19.1467 216.071 19.5733 216.157 20.192L216.317 21.344C216.551 20.192 216.999 19.2853 217.661 18.624C218.343 17.9413 219.175 17.6 220.157 17.6C221.245 17.6 222.055 17.8133 222.589 18.24C223.122 18.6453 223.389 19.328 223.389 20.288C222.322 19.776 221.351 19.52 220.477 19.52C219.645 19.52 218.93 19.744 218.333 20.192C217.735 20.64 217.319 21.3013 217.085 22.176C216.893 22.7733 216.797 23.3387 216.797 23.872C216.797 24.448 216.871 24.992 217.021 25.504C217.191 25.9947 217.447 26.6027 217.789 27.328C218.109 28.0747 218.354 28.7147 218.525 29.248C218.717 29.7813 218.823 30.3573 218.845 30.976C218.845 31.3387 218.717 31.6053 218.461 31.776C218.205 31.9253 217.906 32 217.565 32Z" fill="#C4C4C4"/>
<defs>
<clipPath id="clip0">
<rect width="48" height="48" fill="white" transform="translate(2 107.437) rotate(-40.9144)"/>
</clipPath>
</defs>
</svg>
