<svg width="229" height="144" viewBox="0 0 229 144" fill="none" xmlns="http://www.w3.org/2000/svg">
<path d="M63.3414 24.9999C-16.808 52.6967 15.7511 97.5207 42.0493 116.471" stroke="#C4C4C4" stroke-width="3"/>
<g clip-path="url(#clip0)">
<path d="M19.834 115.8L42.4039 117.412L44.016 94.842" stroke="#C4C4C4" stroke-width="2" stroke-linecap="round" stroke-linejoin="round"/>
</g>
<path d="M96.32 32.032C96.064 32.032 95.8827 31.968 95.776 31.84C95.6907 31.712 95.648 31.5307 95.648 31.296C95.648 30.8267 95.7547 30.1013 95.968 29.12C96.2027 28.224 96.32 27.488 96.32 26.912C96.32 25.248 96.192 23.9787 95.936 23.104H94.944C94.0693 23.104 92.928 23.0827 91.52 23.04L88.512 23.008H84.192L84.256 24.256C84.256 25.2373 84.416 26.464 84.736 27.936C84.8427 28.5333 84.9387 29.1413 85.024 29.76C85.1307 30.3573 85.184 30.9013 85.184 31.392V31.68C84.9707 31.8933 84.7467 32 84.512 32C83.9573 32 83.52 31.3493 83.2 30.048C82.88 28.7253 82.72 27.136 82.72 25.28C82.72 24.5333 82.752 23.7973 82.816 23.072C82.3467 23.0507 82.0267 22.976 81.856 22.848C81.6853 22.6987 81.6 22.4747 81.6 22.176C81.6 21.9413 81.664 21.7813 81.792 21.696C81.9413 21.6107 82.1973 21.5467 82.56 21.504L82.528 20.64L82.624 19.168C82.7733 16.7573 82.9973 14.7947 83.296 13.28C83.5947 11.7653 84.2347 10.4533 85.216 9.344C86.1973 8.23467 87.6693 7.68 89.632 7.68C91.872 7.68 93.6213 8.88533 94.88 11.296C96.1387 13.7067 96.992 16.3947 97.44 19.36C97.888 22.3253 98.112 24.8747 98.112 27.008C98.112 27.776 98.0907 28.448 98.048 29.024C98.0053 29.5787 97.92 30.272 97.792 31.104C97.3013 31.7227 96.8107 32.032 96.32 32.032ZM95.808 21.856C95.4027 17.9093 94.6773 14.816 93.632 12.576C92.5867 10.3147 91.0187 9.184 88.928 9.184C87.3707 9.184 86.2187 9.90933 85.472 11.36C84.7467 12.7893 84.3093 14.3253 84.16 15.968C84.0107 17.6107 83.936 19.456 83.936 21.504L95.808 21.856ZM115.719 31.84C115.335 31.84 115.025 31.68 114.791 31.36C114.577 31.0187 114.385 30.5067 114.215 29.824C114.044 29.12 113.777 27.904 113.415 26.176C113.052 27.6053 112.369 28.7467 111.367 29.6C110.364 30.432 109.137 30.848 107.687 30.848C106.364 30.848 105.244 30.3893 104.327 29.472C103.431 28.5333 102.759 27.3067 102.311 25.792C101.863 24.256 101.639 22.6027 101.639 20.832C101.639 20.0213 101.713 19.328 101.863 18.752C102.033 18.1547 102.236 17.7067 102.471 17.408C102.727 17.1093 102.972 16.9707 103.207 16.992C103.463 16.992 103.591 17.1627 103.591 17.504C103.591 17.7813 103.516 18.2187 103.367 18.816C103.217 19.4773 103.143 20.2347 103.143 21.088C103.143 22.368 103.324 23.616 103.687 24.832C104.071 26.048 104.625 27.0507 105.351 27.84C106.097 28.608 106.972 28.992 107.975 28.992C108.807 28.992 109.564 28.7467 110.247 28.256C110.929 27.7653 111.463 27.1467 111.847 26.4C112.252 25.6533 112.455 24.9173 112.455 24.192V19.104C112.689 18.656 113.009 18.432 113.415 18.432C113.777 18.432 114.023 18.7413 114.151 19.36C114.279 19.9787 114.343 20.8533 114.343 21.984C114.343 22.944 114.332 23.68 114.311 24.192C114.439 24.896 114.631 25.6107 114.887 26.336C115.164 27.0613 115.505 27.8827 115.911 28.8C116.401 29.9307 116.647 30.624 116.647 30.88C116.647 31.52 116.337 31.84 115.719 31.84ZM124.594 47.616C122.802 47.616 121.298 47.104 120.082 46.08C118.887 45.0773 118.172 43.3813 117.938 40.992C117.916 40.6293 117.97 40.352 118.098 40.16C118.247 39.968 118.439 39.872 118.674 39.872C118.93 39.872 119.154 39.968 119.346 40.16C119.538 40.3733 119.623 40.6507 119.602 40.992C119.602 42.4 120.082 43.5093 121.042 44.32C122.023 45.152 123.271 45.568 124.786 45.568C125.66 45.568 126.428 45.248 127.09 44.608C127.772 43.968 128.295 43.072 128.658 41.92C129.02 40.7893 129.202 39.488 129.202 38.016C129.202 35.4347 129.234 32.928 129.298 30.496L129.33 28.864C128.498 29.7387 127.74 30.3787 127.058 30.784C126.396 31.1893 125.596 31.392 124.658 31.392C123.015 31.392 121.799 30.9547 121.01 30.08C120.242 29.184 119.858 27.8187 119.858 25.984C119.858 24.9387 120.135 23.8507 120.69 22.72C121.266 21.568 122.044 20.608 123.026 19.84C124.028 19.072 125.159 18.688 126.418 18.688C126.844 18.688 127.239 18.7307 127.602 18.816C128.967 19.1147 129.884 20.384 130.354 22.624C130.823 24.864 131.058 27.7653 131.058 31.328C131.058 32.3093 131.036 33.6107 130.994 35.232L130.962 38.272C130.962 39.488 130.77 40.8107 130.386 42.24C130.002 43.6907 129.33 44.9493 128.37 46.016C127.41 47.0827 126.151 47.616 124.594 47.616ZM124.178 29.28C125.756 29.28 126.951 28.9067 127.762 28.16C128.572 27.392 128.978 26.272 128.978 24.8C128.978 24.608 128.956 24.2773 128.914 23.808C128.807 22.8267 128.551 22.0587 128.146 21.504C127.762 20.928 127.154 20.64 126.322 20.64C125.447 20.64 124.647 20.9493 123.922 21.568C123.196 22.1867 122.631 22.9547 122.226 23.872C121.82 24.768 121.618 25.6107 121.618 26.4C121.618 27.1893 121.852 27.872 122.322 28.448C122.791 29.0027 123.41 29.28 124.178 29.28ZM148.344 31.84C147.96 31.84 147.65 31.68 147.416 31.36C147.202 31.0187 147.01 30.5067 146.84 29.824C146.669 29.12 146.402 27.904 146.04 26.176C145.677 27.6053 144.994 28.7467 143.992 29.6C142.989 30.432 141.762 30.848 140.312 30.848C138.989 30.848 137.869 30.3893 136.952 29.472C136.056 28.5333 135.384 27.3067 134.936 25.792C134.488 24.256 134.264 22.6027 134.264 20.832C134.264 20.0213 134.338 19.328 134.488 18.752C134.658 18.1547 134.861 17.7067 135.096 17.408C135.352 17.1093 135.597 16.9707 135.832 16.992C136.088 16.992 136.216 17.1627 136.216 17.504C136.216 17.7813 136.141 18.2187 135.992 18.816C135.842 19.4773 135.768 20.2347 135.768 21.088C135.768 22.368 135.949 23.616 136.312 24.832C136.696 26.048 137.25 27.0507 137.976 27.84C138.722 28.608 139.597 28.992 140.6 28.992C141.432 28.992 142.189 28.7467 142.872 28.256C143.554 27.7653 144.088 27.1467 144.472 26.4C144.877 25.6533 145.08 24.9173 145.08 24.192V19.104C145.314 18.656 145.634 18.432 146.04 18.432C146.402 18.432 146.648 18.7413 146.776 19.36C146.904 19.9787 146.968 20.8533 146.968 21.984C146.968 22.944 146.957 23.68 146.936 24.192C147.064 24.896 147.256 25.6107 147.512 26.336C147.789 27.0613 148.13 27.8827 148.536 28.8C149.026 29.9307 149.272 30.624 149.272 30.88C149.272 31.52 148.962 31.84 148.344 31.84ZM152.003 28.224C152.301 27.9893 152.589 27.872 152.867 27.872C153.123 27.872 153.368 27.9467 153.603 28.096C153.859 28.2453 154.115 28.4373 154.371 28.672C154.627 28.8853 154.829 29.0453 154.979 29.152C155.469 29.536 156.141 29.8347 156.995 30.048C157.848 30.2613 158.755 30.368 159.715 30.368C160.803 30.368 161.773 30.1653 162.627 29.76C163.501 29.3333 163.939 28.768 163.939 28.064C163.939 27.424 163.704 26.9227 163.235 26.56C162.765 26.176 162.2 25.8987 161.539 25.728C160.877 25.5573 160.003 25.3973 158.915 25.248C157.443 25.0773 156.269 24.864 155.395 24.608C154.541 24.352 153.859 23.936 153.347 23.36C152.835 22.7627 152.579 21.9307 152.579 20.864C152.579 19.712 153.123 18.8587 154.211 18.304C155.299 17.728 156.547 17.44 157.955 17.44C159.235 17.44 160.323 17.7173 161.219 18.272C162.136 18.8053 162.605 19.5733 162.627 20.576C162.669 21.152 162.584 21.6107 162.371 21.952C162.157 22.272 161.901 22.432 161.603 22.432C161.432 22.432 161.283 22.368 161.155 22.24C161.048 22.112 160.995 21.9413 160.995 21.728C160.995 21.3867 161.112 21.0133 161.347 20.608C161.24 20.096 160.888 19.712 160.291 19.456C159.715 19.2 159.021 19.072 158.211 19.072C157.016 19.072 156.067 19.296 155.363 19.744C154.659 20.1707 154.307 20.6827 154.307 21.28C154.307 21.92 154.563 22.4107 155.075 22.752C155.587 23.0933 156.205 23.3387 156.931 23.488C157.677 23.616 158.733 23.744 160.099 23.872C161.229 24.0213 162.147 24.2027 162.851 24.416C163.576 24.6293 164.184 25.0453 164.675 25.664C165.165 26.2613 165.411 27.1253 165.411 28.256C165.411 29.4293 164.867 30.3573 163.779 31.04C162.691 31.7013 161.389 32.032 159.875 32.032C157.933 32.032 156.195 31.7013 154.659 31.04C153.144 30.3787 152.259 29.44 152.003 28.224ZM173.276 32C173.062 32.0427 172.924 32.064 172.86 32.064C172.198 32.064 171.74 31.5733 171.484 30.592C171.249 29.6107 171.132 28.2347 171.132 26.464C171.132 25.7387 171.153 24.608 171.196 23.072C171.238 22.1333 171.26 21.4293 171.26 20.96C168.636 20.96 167.324 20.6613 167.324 20.064C167.324 19.872 167.345 19.7227 167.388 19.616C167.452 19.5093 167.58 19.456 167.772 19.456L171.26 19.232C171.238 18.1867 171.185 17.0453 171.1 15.808C171.014 14.6987 170.961 13.6747 170.94 12.736C170.94 12.5013 171.036 12.3413 171.228 12.256C171.42 12.1493 171.622 12.096 171.836 12.096C172.092 12.096 172.305 12.2347 172.476 12.512C172.646 12.768 172.732 13.0347 172.732 13.312L172.956 19.168L175.612 19.296C176.017 19.2533 176.358 19.328 176.636 19.52C176.934 19.712 177.094 20.032 177.116 20.48C176.668 20.672 176.177 20.7893 175.644 20.832C175.11 20.8747 174.214 20.896 172.956 20.896C172.956 22.88 173.052 26.144 173.244 30.688C173.244 31.1573 173.244 31.488 173.244 31.68C173.265 31.8507 173.276 31.9573 173.276 32Z" fill="#C4C4C4"/>
<defs>
<clipPath id="clip0">
<rect width="48" height="48" fill="white" transform="translate(2 107.437) rotate(-40.9144)"/>
</clipPath>
</defs>
</svg>
