<svg width="223" height="122" viewBox="0 0 223 122" fill="none" xmlns="http://www.w3.org/2000/svg">
<path d="M152.888 104.375C173.699 104.129 194.509 104.27 215.318 104.798C217.108 104.843 218.966 104.901 220.547 105.376C222.128 105.851 223.344 106.87 222.912 107.849C214.788 108.09 206.657 108.164 198.517 108.072C196.744 108.942 194.798 110.252 195.887 111.425C196.641 112.237 198.502 112.478 200.129 112.48C203.077 112.484 206.036 111.999 208.94 112.284C211.844 112.568 214.741 114.098 213.891 115.686C213.245 116.892 210.794 117.49 208.564 117.596C206.333 117.703 204.05 117.481 201.87 117.767C199.798 118.038 198.004 118.743 196.065 119.236C193.006 120.012 189.616 120.252 186.281 120.457C160.668 122.024 134.843 122.012 109.08 121.997C98.65 121.992 88.0782 121.976 78.0064 120.45C72.2652 119.581 66.7637 118.231 60.9501 117.53C54.0058 116.693 46.8288 116.807 39.7273 116.832C27.2603 116.876 14.8039 116.635 2.35799 116.11C1.43181 116.071 0.294952 115.938 0.0450021 115.435C-0.246697 114.847 0.937139 114.389 1.93781 114.154C7.60802 112.84 13.3735 111.978 19.1799 111.578C22.1206 111.371 25.1508 111.265 27.8554 110.583C30.56 109.901 32.9228 108.471 32.8974 106.803C32.8897 106.295 32.6754 105.75 33.0993 105.301C33.6621 104.704 35.047 104.567 36.2419 104.502C49.4878 103.781 62.8059 103.48 76.1118 103.601C80.7924 103.643 85.4922 103.737 90.1396 103.422C93.9475 103.163 97.6773 102.632 101.43 102.185C106.467 101.587 128.39 98.485 131.588 101.002C133.982 102.886 129.04 103.292 135.46 104.061C141.051 104.73 147.218 104.442 152.888 104.375Z" fill="#F2F2F2"/>
<path d="M71.871 95.7699C71.871 95.7699 64.1534 111.068 70.7216 111.068C77.2897 111.068 160.048 111.397 162.347 107.12C163.957 104.124 163.069 93.4566 162.393 87.3379C162.262 86.1488 161.681 85.0552 160.769 84.282C159.858 83.5089 158.685 83.1149 157.493 83.1811C139.595 84.1708 72.7296 87.8384 73.0204 87.3807C73.5951 86.476 73.1846 86.7227 73.1846 86.7227C73.1846 86.7227 70.5574 95.112 71.871 95.7699Z" fill="#E7BA87"/>
<path opacity="0.1" d="M162.557 87.3379C162.426 86.1488 161.845 85.0552 160.934 84.282C160.022 83.5089 158.85 83.1149 157.657 83.1811C139.759 84.1708 72.8938 87.8384 73.1846 87.3807C73.7593 86.4759 73.3488 86.7227 73.3488 86.7227C73.3488 86.7227 72.7623 88.5956 72.2821 90.6408C72.3502 90.634 72.4011 90.6982 72.1794 91.089C72.1597 91.1772 72.1402 91.2654 72.1211 91.3537C74.7992 91.6187 139.022 88.0959 156.508 87.129C157.7 87.0628 158.873 87.4567 159.784 88.2299C160.696 89.0031 161.277 90.0967 161.408 91.2858C161.911 95.835 162.53 102.898 162.153 107.453C162.298 107.374 162.422 107.26 162.511 107.12C164.121 104.124 163.233 93.4566 162.557 87.3379Z" fill="black"/>
<path d="M81.0699 72.8435C80.2144 72.5809 79.1317 72.2417 79.2292 71.6886C79.2811 71.3948 79.6736 71.1655 79.958 70.9191C80.5062 70.4442 80.6541 69.7753 80.0652 69.3166C79.4763 68.8579 78.0579 68.7966 77.5384 69.282C77.2711 69.5316 77.2873 69.8448 77.1493 70.1268C76.7188 71.0066 74.9771 71.3929 73.4976 71.7347C72.018 72.0765 70.3626 72.7124 70.5017 73.6226C70.6535 74.6155 72.9359 75.4964 72.0175 76.343C71.6845 76.65 70.984 76.8213 70.8349 77.1725C70.73 77.4196 70.9407 77.6709 71.1452 77.8966L72.5987 79.5007C73.177 80.139 73.7728 80.8335 73.5791 81.5439C73.1952 82.9521 70.0749 83.4908 67.6016 83.3326C66.6959 83.2746 65.6314 83.1953 65.009 83.5766C64.5293 83.8704 64.5302 84.3281 64.6896 84.7198C65.0999 85.728 66.4126 86.6012 68.0925 86.9833C66.2096 87.3555 65.4702 88.924 66.7702 89.7883C66.0262 90.0447 65.222 90.0678 64.4646 89.8545C63.8216 90.4475 64.1996 91.2613 65.0151 91.78C65.8305 92.2988 66.9858 92.5906 68.1044 92.8677L67.0576 93.8483C67.8151 94.441 69.4511 94.2321 70.5544 93.8575C71.6576 93.4829 72.8547 92.9798 74.0908 93.1759C75.2501 93.3597 76.1269 94.1343 77.3073 94.0017C78.2221 93.8989 78.6574 93.31 78.9424 92.8017L80.1539 90.6408C81.8785 90.9111 83.6917 89.7273 82.9992 88.7833C84.929 88.9909 86.8285 87.7354 86.195 86.671C87.2227 87.4651 87.9464 88.3876 88.3004 89.355C88.4586 89.7873 88.5549 90.2444 88.9857 90.6107C89.2674 90.8206 89.5937 90.9624 89.9392 91.025C90.2846 91.0876 90.6398 91.0693 90.9771 90.9715C90.6252 91.6552 90.3401 92.4526 91.0633 93.0327C91.7865 93.6128 93.8733 93.4482 93.7812 92.7375C94.8839 93.2122 96.1197 93.6584 97.498 93.6938C98.8762 93.7292 100.385 93.2038 100.51 92.4169C102.452 93.0587 104.484 93.3863 106.529 93.3876C106.703 92.861 107.918 92.6907 108.827 92.8194C109.735 92.9481 110.578 93.2573 111.513 93.2578C112.449 93.2583 113.456 92.6942 112.976 92.2338C114.947 92.6468 116.97 92.749 118.972 92.5369C120.86 92.3361 122.65 91.8587 124.562 91.7558C126.502 91.6375 128.444 91.9448 130.253 92.6562C130.88 92.9195 131.659 93.251 132.348 93.0444C132.738 92.9273 132.928 92.6743 133.194 92.4726C134.336 91.6045 136.672 91.7709 138.474 92.1122C140.276 92.4535 142.372 92.8644 143.951 92.2612C144.546 92.0336 144.985 91.6819 145.619 91.4908C147.889 90.8063 150.606 92.5602 153.016 92.0556C153.801 91.8912 154.437 91.498 155.268 91.4495C156.743 91.3635 157.717 92.3645 159.15 92.5798C160.638 92.8032 162.25 91.8966 161.887 91.0409C163.317 91.0726 164.742 90.8742 166.109 90.453L165.434 89.2356C167.116 89.2084 168.354 88.0001 167.574 87.1458C169.262 86.8239 170.596 85.9576 170.943 84.9586C171.289 83.9597 170.635 82.8669 169.291 82.1999C168.498 81.8062 167.457 81.5293 167.003 80.9872C166.677 80.5968 166.724 80.1426 166.597 79.7159C166.319 78.7819 165.115 77.9572 163.558 77.6356C162.882 77.4959 162.143 77.4429 161.531 77.2272C160.919 77.0115 160.477 76.5444 160.83 76.186C161.017 75.9963 161.377 75.8846 161.61 75.7124C162.554 75.0141 160.935 74.1303 159.553 73.7383L162.853 73.6302L163.562 70.412C162.256 71.4756 158.87 71.2519 158.021 70.046C159.081 70.3944 160.503 69.9488 161.021 69.315C161.539 68.6811 161.412 67.9439 161.274 67.2485C161.261 67.0757 161.203 66.9093 161.107 66.7655C161.01 66.6217 160.878 66.5053 160.724 66.4277C160.401 66.2736 159.886 66.2093 159.78 65.9763C159.672 65.7386 160.09 65.5284 160.152 65.2853C160.271 64.8187 159.2 64.6131 158.477 64.3875C156.772 63.855 155.946 62.3589 154.005 62.4075C152.079 62.4558 151.541 63.9287 151.539 65.0327C151.538 66.1366 150.886 67.6129 148.959 67.5927C148.189 67.5847 147.518 67.3075 146.904 67.042L141.384 64.6572C140.655 64.3172 139.896 64.0447 139.117 63.843C138.004 63.5827 136.774 63.552 135.572 63.5246L127.851 63.3488C127.457 63.3179 127.062 63.352 126.679 63.4497C126.274 63.5855 126.077 63.8528 125.832 64.0826C124.757 65.0939 122.229 65.49 120.405 64.933C119.921 64.7854 119.488 64.5818 118.975 64.4705C117.361 64.12 115.666 64.7685 113.989 65.0028C111.239 65.3868 107.822 64.7258 105.839 65.8828C105.179 66.2685 104.828 66.7959 104.215 67.2071C103.603 67.6182 102.498 67.897 101.725 67.5866C101.822 68.341 101.911 69.1283 101.401 69.8262C100.891 70.524 99.5834 71.0936 98.2988 70.9176C97.617 70.7371 97.6707 70.163 97.9932 69.7744C98.3156 69.3859 98.8102 68.9889 98.6494 68.5687C98.4899 68.1518 97.76 67.9094 97.2143 67.6188C96.6686 67.3282 96.3045 66.7774 96.8842 66.5092C96.4936 66.0063 95.0897 66.0676 94.4721 66.4893C93.8545 66.9111 93.7928 67.505 93.7255 68.054C93.6581 68.6031 93.5114 69.2046 92.7958 69.572C91.5764 70.1982 89.2353 69.8733 88.4265 70.689C88.1696 70.9481 88.1545 71.2607 88.0075 71.5466C87.3514 72.8224 84.519 73.1528 82.2038 73.2569C82.155 73.5223 82.1442 73.7934 82.1716 74.0619C82.9635 73.7185 81.6438 73.0197 81.0699 72.8435Z" fill="#61AB43"/>
<path opacity="0.1" d="M161.273 71.3862C161.411 72.0816 161.538 72.8188 161.02 73.4527C160.943 73.5442 160.856 73.6267 160.761 73.6987C161.458 73.6758 162.155 73.653 162.852 73.6302C163.088 72.5574 163.324 71.4847 163.561 70.412C163.02 70.8526 162.122 71.0717 161.195 71.0921C161.228 71.1881 161.254 71.2864 161.273 71.3862V71.3862Z" fill="black"/>
<path opacity="0.1" d="M161.882 75.1769C161.8 74.7419 161.084 74.3004 160.282 73.9849C159.576 74.3206 158.774 74.3912 158.021 74.1837C158.606 75.0154 160.398 75.3797 161.882 75.1769Z" fill="black"/>
<path opacity="0.1" d="M162.907 77.5219C162.888 77.6039 162.87 77.6859 162.852 77.7679C161.752 77.8039 160.653 77.84 159.553 77.876C160.934 78.2681 162.553 79.1519 161.609 79.8502C161.376 80.0224 161.016 80.1341 160.829 80.3238C160.476 80.6821 160.918 81.1493 161.53 81.365C162.142 81.5806 162.882 81.6337 163.558 81.7733C165.114 82.0949 166.319 82.9196 166.596 83.8536C166.723 84.2804 166.676 84.7345 167.002 85.125C167.456 85.6671 168.497 85.944 169.291 86.3376C169.367 86.3756 169.441 86.4153 169.512 86.4558C170.229 86.0496 170.745 85.5256 170.942 84.9587C171.289 83.9597 170.635 82.867 169.291 82.1999C168.497 81.8062 167.456 81.5294 167.002 80.9872C166.676 80.5968 166.723 80.1426 166.596 79.7159C166.319 78.7819 165.114 77.9572 163.558 77.6356C163.345 77.5917 163.126 77.5564 162.907 77.5219Z" fill="black"/>
<path opacity="0.1" d="M66.2366 92.3417C66.4934 91.7939 67.1495 91.3074 68.0925 91.121C67.1916 90.9336 66.3427 90.55 65.6061 89.9975C65.2205 90.0088 64.8355 89.9606 64.4646 89.8545C63.8216 90.4475 64.1996 91.2612 65.0151 91.78C65.3997 92.0131 65.8095 92.2015 66.2366 92.3417V92.3417Z" fill="black"/>
<path opacity="0.1" d="M72.0564 76.3024C72.5263 76.1262 73.0077 75.9826 73.4972 75.8724C74.9768 75.5306 76.7185 75.1443 77.1489 74.2645C77.2869 73.9825 77.2708 73.6693 77.5381 73.4196C78.0576 72.9342 79.476 72.9956 80.0649 73.4543C80.6537 73.9129 80.5059 74.5819 79.9577 75.0568C79.6733 75.3032 79.2807 75.5324 79.2289 75.8263C79.1313 76.3794 80.214 76.7185 81.0695 76.9812C81.4722 77.111 81.8492 77.3102 82.1836 77.5698C82.1907 77.5111 82.1978 77.4526 82.2035 77.3946C84.5187 77.2905 87.3511 76.9601 88.0072 75.6843C88.1541 75.3984 88.1693 75.0858 88.4262 74.8267C89.2349 74.0111 91.576 74.3359 92.7955 73.7097C93.511 73.3423 93.6578 72.7408 93.7251 72.1917C93.7925 71.6427 93.8542 71.0488 94.4718 70.627C95.0893 70.2053 96.4933 70.144 96.8838 70.6469C96.3042 70.9151 96.6682 71.4659 97.214 71.7565C97.7597 72.0471 98.4896 72.2895 98.6491 72.7064C98.8099 73.1266 98.3153 73.5236 97.9928 73.9122C97.6704 74.3007 97.6166 74.8748 98.2984 75.0553C99.5831 75.2313 100.891 74.6617 101.401 73.9639C101.91 73.266 101.822 72.4787 101.725 71.7243C102.497 72.0347 103.603 71.7559 104.215 71.3448C104.828 70.9336 105.178 70.4062 105.839 70.0205C107.822 68.8635 111.239 69.5245 113.989 69.1405C115.666 68.9062 117.36 68.2577 118.975 68.6082C119.487 68.7195 119.921 68.9231 120.404 69.0707C122.229 69.6277 124.757 69.2316 125.832 68.2203C126.076 67.9905 126.273 67.7232 126.679 67.5874C127.061 67.4897 127.457 67.4556 127.85 67.4866C130.424 67.5451 132.998 67.6037 135.572 67.6623C136.773 67.6897 138.003 67.7204 139.117 67.9807C139.896 68.1824 140.654 68.455 141.384 68.7949C143.224 69.5898 145.064 70.3848 146.904 71.1797C147.518 71.4452 148.189 71.7224 148.959 71.7305C150.886 71.7506 151.538 70.2743 151.539 69.1704C151.54 68.0664 152.079 66.5935 154.004 66.5452C155.945 66.4966 156.771 67.9928 158.477 68.5252C159.2 68.7508 160.271 68.9565 160.152 69.4231C160.096 69.6396 159.76 69.8301 159.763 70.0372C160.243 69.9239 160.68 69.6729 161.021 69.315C161.539 68.6811 161.412 67.9439 161.273 67.2485C161.26 67.0757 161.203 66.9093 161.106 66.7655C161.01 66.6217 160.878 66.5053 160.723 66.4277C160.4 66.2736 159.886 66.2093 159.78 65.9763C159.672 65.7386 160.09 65.5284 160.152 65.2853C160.271 64.8187 159.2 64.6131 158.477 64.3874C156.771 63.855 155.945 62.3589 154.004 62.4075C152.079 62.4558 151.54 63.9287 151.539 65.0327C151.538 66.1366 150.886 67.6129 148.959 67.5927C148.189 67.5847 147.518 67.3075 146.904 67.042C145.064 66.2471 143.224 65.4521 141.384 64.6572C140.654 64.3172 139.896 64.0447 139.117 63.843C138.003 63.5827 136.773 63.552 135.572 63.5246C132.998 63.466 130.424 63.4074 127.85 63.3488C127.457 63.3179 127.061 63.352 126.679 63.4497C126.273 63.5855 126.076 63.8528 125.832 64.0826C124.757 65.0939 122.229 65.49 120.404 64.933C119.921 64.7854 119.487 64.5818 118.975 64.4705C117.36 64.12 115.666 64.7685 113.989 65.0028C111.239 65.3868 107.822 64.7258 105.839 65.8828C105.178 66.2685 104.828 66.7959 104.215 67.2071C103.603 67.6182 102.497 67.897 101.725 67.5866C101.822 68.341 101.91 69.1283 101.401 69.8262C100.891 70.524 99.5831 71.0936 98.2984 70.9176C97.6166 70.7371 97.6704 70.163 97.9928 69.7744C98.3153 69.3859 98.8099 68.9889 98.6491 68.5687C98.4896 68.1518 97.7597 67.9094 97.214 67.6187C96.6682 67.3281 96.3042 66.7774 96.8839 66.5092C96.4933 66.0063 95.0893 66.0676 94.4718 66.4893C93.8542 66.9111 93.7925 67.505 93.7252 68.054C93.6578 68.6031 93.511 69.2046 92.7955 69.572C91.5761 70.1982 89.235 69.8734 88.4262 70.689C88.1693 70.9481 88.1542 71.2607 88.0072 71.5466C87.3511 72.8224 84.5187 73.1528 82.2035 73.2569C82.1978 73.3149 82.1907 73.3734 82.1836 73.4321C81.8492 73.1725 81.4722 72.9733 81.0695 72.8435C80.214 72.5808 79.1313 72.2417 79.2289 71.6886C79.2807 71.3947 79.6733 71.1655 79.9577 70.9191C80.5059 70.4442 80.6537 69.7752 80.0649 69.3166C79.476 68.8579 78.0576 68.7965 77.5381 69.2819C77.2708 69.5316 77.2869 69.8448 77.1489 70.1268C76.7185 71.0066 74.9768 71.3929 73.4972 71.7347C72.0177 72.0765 70.3623 72.7124 70.5014 73.6226C70.6507 74.5997 72.861 75.4682 72.0564 76.3024Z" fill="black"/>
<path opacity="0.1" d="M68.0922 86.9833C67.6854 87.0585 67.2967 87.2109 66.947 87.4324C67.1686 87.4422 67.3893 87.4567 67.6013 87.4703C70.0745 87.6285 73.1949 87.0897 73.5788 85.6816C73.7725 84.9711 73.1767 84.2767 72.5984 83.6384C72.3659 83.3819 72.1335 83.1253 71.9011 82.8688C70.691 83.2807 69.0375 83.4244 67.6013 83.3325C66.6956 83.2746 65.631 83.1953 65.0087 83.5765C64.529 83.8704 64.5299 84.328 64.6893 84.7197C65.0996 85.728 66.4123 86.6011 68.0922 86.9833Z" fill="black"/>
<path d="M118.464 80.5444C132.067 80.5444 143.095 73.2533 143.095 64.2593C143.095 55.2653 132.067 47.9742 118.464 47.9742C104.861 47.9742 93.834 55.2653 93.834 64.2593C93.834 73.2533 104.861 80.5444 118.464 80.5444Z" fill="#EA565C"/>
<path opacity="0.2" d="M110.089 63.1078C110.089 63.1078 98.923 64.2592 102.207 59.4889C105.491 54.7185 109.596 53.0735 111.567 54.3895C113.537 55.7055 114.358 59.3244 114.03 59.3244C113.701 59.3244 108.939 56.5279 107.297 58.6664C105.655 60.8048 110.089 63.1078 110.089 63.1078Z" fill="white"/>
<path opacity="0.2" d="M119.764 63.5741C119.764 63.5741 128.985 69.9869 123.391 71.4632C117.797 72.9396 113.613 71.5088 112.974 69.2245C112.335 66.9402 114.065 63.6587 114.314 63.873C114.563 64.0873 116.358 69.3165 118.994 68.7655C121.63 68.2146 119.764 63.5741 119.764 63.5741Z" fill="white"/>
<path opacity="0.2" d="M121.917 59.5552C121.917 59.5552 122.645 48.3341 126.793 52.373C130.941 56.412 131.875 60.741 130.252 62.4681C128.628 64.1951 124.929 64.4029 124.984 64.0785C125.039 63.7541 128.585 59.5165 126.754 57.5382C124.923 55.5598 121.917 59.5552 121.917 59.5552Z" fill="white"/>
<path d="M88.7427 79.2284C102.346 79.2284 113.373 71.9374 113.373 62.9434C113.373 53.9494 102.346 46.6583 88.7427 46.6583C75.1397 46.6583 64.1123 53.9494 64.1123 62.9434C64.1123 71.9374 75.1397 79.2284 88.7427 79.2284Z" fill="#EA565C"/>
<path opacity="0.2" d="M80.3681 61.7919C80.3681 61.7919 69.2023 62.9433 72.4864 58.173C75.7704 53.4026 79.8755 51.7576 81.8459 53.0736C83.8164 54.3896 84.6374 58.0085 84.309 58.0085C83.9806 58.0085 79.2187 55.212 77.5767 57.3505C75.9346 59.4889 80.3681 61.7919 80.3681 61.7919Z" fill="white"/>
<path opacity="0.2" d="M90.0435 62.2581C90.0435 62.2581 99.264 68.6709 93.6704 70.1472C88.0767 71.6235 83.8925 70.1928 83.2531 67.9085C82.6138 65.6241 84.3441 62.3426 84.5933 62.5569C84.8424 62.7712 86.637 68.0004 89.2734 67.4495C91.9098 66.8985 90.0435 62.2581 90.0435 62.2581Z" fill="white"/>
<path opacity="0.2" d="M92.1963 58.2393C92.1963 58.2393 92.924 47.0181 97.0719 51.0571C101.22 55.0961 102.155 59.4251 100.531 61.1521C98.9073 62.8791 95.2086 63.0869 95.2633 62.7626C95.318 62.4382 98.8641 58.2006 97.033 56.2222C95.2019 54.2439 92.1963 58.2393 92.1963 58.2393Z" fill="white"/>
<path opacity="0.1" d="M101.561 49.084C106.926 52.0713 110.336 56.5445 110.336 61.545C110.336 70.539 99.3085 77.8301 85.7055 77.8301C81.0444 77.8301 76.686 76.9738 72.9697 75.4865C77.2543 77.8722 82.7853 79.3105 88.8253 79.3105C102.428 79.3105 113.456 72.0195 113.456 63.0255C113.456 57.1133 108.69 51.9372 101.561 49.084Z" fill="black"/>
<path opacity="0.1" d="M131.282 50.2355C136.647 53.2228 140.057 57.696 140.057 62.6965C140.057 71.6905 129.029 78.9816 115.426 78.9816C110.765 78.9816 106.407 78.1253 102.69 76.638C106.975 79.0237 112.506 80.462 118.546 80.462C132.149 80.462 143.176 73.1709 143.176 64.177C143.176 58.2648 138.411 53.0887 131.282 50.2355Z" fill="black"/>
<path d="M73.7745 59.8234C73.7745 59.8234 94.9566 37.1231 146.845 46.4993C187.863 53.9113 154.18 66.6685 138.267 71.6883C133.651 73.1441 128.868 74.0067 124.034 74.2555C106.082 75.1816 60.9281 76.0094 73.7745 59.8234Z" fill="#714B4F"/>
<path opacity="0.1" d="M138.268 66.589C133.651 68.0448 128.869 68.9074 124.035 69.1561C109.492 69.9064 77.0985 70.5916 72.1494 62.2197C65.9001 75.7516 107.088 74.9653 124.035 74.091C128.869 73.8423 133.651 72.9797 138.268 71.5239C149.932 67.8444 171.141 60.008 165.484 53.1665C161.675 58.5356 147.183 63.7766 138.268 66.589Z" fill="black"/>
<path opacity="0.1" d="M119.013 46.5817L124.76 57.9319" stroke="black" stroke-width="2" stroke-miterlimit="10"/>
<path opacity="0.1" d="M101.278 50.694L106.204 60.2347" stroke="black" stroke-width="2" stroke-miterlimit="10"/>
<path opacity="0.1" d="M129.357 46.5817L137.075 57.9319" stroke="black" stroke-width="2" stroke-miterlimit="10"/>
<path opacity="0.1" d="M101.278 61.2218L153.002 54.642" stroke="black" stroke-width="2" stroke-miterlimit="10"/>
<path opacity="0.1" d="M151.032 48.7201L154.645 53.8195" stroke="black" stroke-width="2" stroke-miterlimit="10"/>
<path opacity="0.1" d="M91.0986 54.642L93.3975 59.4123" stroke="black" stroke-width="2" stroke-miterlimit="10"/>
<path d="M98.8186 39.188C98.8186 39.188 146.053 38.974 146.486 38.5458C146.92 38.1177 156.887 37.8908 158.837 40.6738C160.787 43.4567 161.437 44.7412 158.837 45.1693C156.237 45.5975 70.6513 89.4823 70.6513 89.4823C70.6513 89.4823 65.8845 89.9105 68.2679 85.2009C70.6513 80.4913 98.8186 39.188 98.8186 39.188Z" fill="#F6C964"/>
<path d="M118.65 58.7621C118.65 60.5337 110.122 64.8484 99.6022 64.8484C89.0826 64.8484 80.5547 60.5337 80.5547 58.7621C80.5547 56.9906 89.0826 56.2947 99.6022 56.2947C110.122 56.2947 118.65 56.9906 118.65 58.7621Z" fill="#61AB43"/>
<path d="M99.6022 61.8876C110.122 61.8876 118.65 60.4515 118.65 58.6799C118.65 56.9084 110.122 55.4723 99.6022 55.4723C89.0826 55.4723 80.5547 56.9084 80.5547 58.6799C80.5547 60.4515 89.0826 61.8876 99.6022 61.8876Z" fill="#61AB43"/>
<path d="M141.638 55.8013C141.638 57.5728 133.11 61.8876 122.59 61.8876C112.071 61.8876 103.543 57.5728 103.543 55.8013C103.543 54.0298 112.071 53.3339 122.59 53.3339C133.11 53.3339 141.638 54.0298 141.638 55.8013Z" fill="#61AB43"/>
<path d="M122.59 58.9267C133.11 58.9267 141.638 57.4905 141.638 55.719C141.638 53.9475 133.11 52.5114 122.59 52.5114C112.071 52.5114 103.543 53.9475 103.543 55.719C103.543 57.4905 112.071 58.9267 122.59 58.9267Z" fill="#61AB43"/>
<path d="M164.625 52.8404C164.625 54.6119 156.097 58.9267 145.578 58.9267C135.058 58.9267 126.53 54.6119 126.53 52.8404C126.53 51.0688 135.058 50.3729 145.578 50.3729C156.097 50.3729 164.625 51.0688 164.625 52.8404Z" fill="#61AB43"/>
<path d="M145.578 55.9657C156.097 55.9657 164.625 54.5296 164.625 52.7581C164.625 50.9865 156.097 49.5504 145.578 49.5504C135.058 49.5504 126.53 50.9865 126.53 52.7581C126.53 54.5296 135.058 55.9657 145.578 55.9657Z" fill="#61AB43"/>
<path d="M75.4303 53.7516C75.4303 53.7516 67.5964 52.474 71.6044 46.0862C75.6125 39.6984 76.9606 32.5378 78.7096 30.938C80.665 29.1494 121.025 -2.20898 152.467 32.4909C155.798 36.2109 158.505 40.4467 160.485 45.0338C160.865 45.901 161.285 46.6794 161.694 47.09C162.97 48.3676 164.063 52.0178 161.694 53.8428C159.326 55.6679 89.5495 62.7858 75.4303 53.7516Z" fill="#E7BA87"/>
<path d="M112.14 27.1966C111.657 27.5329 111.088 27.723 110.5 27.7441C109.594 27.7441 108.86 27.499 108.86 27.1966C108.86 26.8942 109.594 26.649 110.5 26.649C111.088 26.6702 111.657 26.8603 112.14 27.1966V27.1966Z" fill="#F2F2F2"/>
<path d="M99.0234 23.7289C98.5407 24.0652 97.9715 24.2553 97.3838 24.2765C96.4782 24.2765 95.7441 24.0313 95.7441 23.7289C95.7441 23.4265 96.4782 23.1814 97.3838 23.1814C97.9715 23.2025 98.5407 23.3926 99.0234 23.7289V23.7289Z" fill="#F2F2F2"/>
<path d="M134.656 28.782C134.095 28.9586 133.495 28.9697 132.928 28.8141C132.064 28.5433 131.436 28.0898 131.526 27.8012C131.616 27.5126 132.39 27.4982 133.254 27.769C133.809 27.965 134.295 28.3166 134.656 28.782Z" fill="#F2F2F2"/>
<path d="M110.425 19.4742C109.864 19.6507 109.265 19.6619 108.697 19.5063C107.833 19.2354 107.206 18.7819 107.296 18.4933C107.386 18.2047 108.16 18.1903 109.024 18.4612C109.578 18.6571 110.065 19.0088 110.425 19.4742V19.4742Z" fill="#F2F2F2"/>
<path d="M136.842 22.7593C136.281 22.9359 135.682 22.947 135.114 22.7914C134.25 22.5206 133.623 22.0671 133.713 21.7785C133.803 21.4899 134.577 21.4755 135.441 21.7463C135.995 21.9423 136.482 22.2939 136.842 22.7593V22.7593Z" fill="#F2F2F2"/>
<path d="M131.451 22.2688C130.968 22.6052 130.399 22.7952 129.812 22.8164C128.906 22.8164 128.172 22.5712 128.172 22.2688C128.172 21.9664 128.906 21.7213 129.812 21.7213C130.399 21.7425 130.968 21.9325 131.451 22.2688V22.2688Z" fill="#F2F2F2"/>
<path d="M115.784 18.9837C115.301 19.32 114.732 19.5101 114.145 19.5312C113.239 19.5312 112.505 19.2861 112.505 18.9837C112.505 18.6813 113.239 18.4362 114.145 18.4362C114.732 18.4573 115.301 18.6474 115.784 18.9837V18.9837Z" fill="#F2F2F2"/>
<path d="M127.808 18.9837C127.325 19.32 126.756 19.5101 126.168 19.5312C125.262 19.5312 124.528 19.2861 124.528 18.9837C124.528 18.6813 125.262 18.4362 126.168 18.4362C126.756 18.4573 127.325 18.6474 127.808 18.9837V18.9837Z" fill="#F2F2F2"/>
<path d="M123.253 26.1015C122.77 26.4378 122.201 26.6279 121.613 26.649C120.708 26.649 119.974 26.4039 119.974 26.1015C119.974 25.7991 120.708 25.554 121.613 25.554C122.201 25.5751 122.77 25.7652 123.253 26.1015V26.1015Z" fill="#F2F2F2"/>
<path d="M110.006 24.8224C110.143 24.2495 110.441 23.728 110.865 23.3203C111.541 22.7164 112.252 22.4097 112.453 22.6353C112.654 22.8609 112.269 23.5335 111.593 24.1374C111.141 24.5136 110.59 24.7514 110.006 24.8224Z" fill="#F2F2F2"/>
<path d="M101.807 22.8148C101.943 22.2419 102.242 21.7205 102.666 21.3127C103.342 20.7088 104.053 20.4021 104.254 20.6277C104.454 20.8534 104.07 21.5259 103.394 22.1298C102.941 22.506 102.39 22.7438 101.807 22.8148V22.8148Z" fill="#F2F2F2"/>
<path d="M87.5967 32.6704C87.7334 32.0975 88.0318 31.576 88.4563 31.1683C89.132 30.5644 89.8426 30.2577 90.0436 30.4833C90.2446 30.709 89.8597 31.3815 89.184 31.9854C88.7315 32.3616 88.1804 32.5994 87.5967 32.6704Z" fill="#F2F2F2"/>
<path d="M119.115 21.7198C119.252 21.1468 119.55 20.6254 119.975 20.2177C120.651 19.6137 121.361 19.307 121.562 19.5326C121.763 19.7583 121.378 20.4308 120.703 21.0347C120.25 21.4109 119.699 21.6487 119.115 21.7198Z" fill="#F2F2F2"/>
<path d="M115.836 28.2902C115.973 27.7172 116.271 27.1958 116.696 26.7881C117.371 26.1841 118.082 25.8774 118.283 26.1031C118.484 26.3287 118.099 27.0012 117.423 27.6052C116.971 27.9814 116.42 28.2192 115.836 28.2902Z" fill="#F2F2F2"/>
<path d="M176.35 99.8108C176.35 99.8108 173.856 100.56 172.609 102.06C172.609 102.06 170.364 103.059 168.992 102.809C167.62 102.56 165.125 105.058 167.121 105.808C169.116 106.558 181.339 108.557 181.589 107.932C181.838 107.307 181.838 100.935 181.838 100.935L176.35 99.8108Z" fill="#575A89"/>
<path d="M195.945 98.7378C195.945 98.7378 193.615 99.9032 192.641 101.594C192.641 101.594 190.6 102.963 189.206 102.951C187.811 102.94 185.78 105.829 187.874 106.226C189.968 106.623 202.351 106.502 202.491 105.843C202.63 105.185 201.543 98.9067 201.543 98.9067L195.945 98.7378Z" fill="#575A89"/>
<path d="M180.404 14.0378C183.504 14.0378 186.017 11.5206 186.017 8.41538C186.017 5.31021 183.504 2.79297 180.404 2.79297C177.305 2.79297 174.792 5.31021 174.792 8.41538C174.792 11.5206 177.305 14.0378 180.404 14.0378Z" fill="#FFB9B9"/>
<path d="M184.956 9.35242C184.956 9.35242 185.58 13.6005 186.702 14.1002C187.483 14.4853 188.199 14.9913 188.823 15.5995L185.705 17.0989L179.593 16.724C179.593 16.724 180.092 13.9753 179.219 12.6009C178.346 11.2266 184.956 9.35242 184.956 9.35242Z" fill="#FFB9B9"/>
<path d="M196.555 29.4681C196.555 29.4681 199.424 36.8397 196.555 43.9615C193.687 51.0832 192.439 52.2077 192.439 52.2077L191.566 42.837L192.57 41.9246C192.57 41.9246 193.178 39.0817 192.684 37.3985C192.19 35.7153 192.938 30.4677 192.938 30.4677L196.555 29.4681Z" fill="#FFB9B9"/>
<path d="M175.104 45.4608C175.104 45.4608 171.487 53.707 171.861 57.7051C172.235 61.7033 175.104 78.5705 175.104 78.5705C175.104 78.5705 174.73 100.311 175.852 100.311C176.975 100.311 182.338 102.31 182.338 100.935C182.338 99.5609 183.46 66.576 183.46 66.576C183.46 66.576 189.821 81.0694 190.444 82.1939C191.068 83.3183 195.059 100.935 196.431 100.935C197.803 100.935 202.043 99.6858 201.669 98.8112C201.295 97.9366 197.055 78.4456 194.685 73.4479C192.315 68.4502 192.814 49.5839 192.814 49.5839L188.823 40.8379L175.104 45.4608Z" fill="#3F3D56"/>
<path d="M178.721 5.854C178.721 5.854 175.228 5.60411 174.979 4.72952C174.73 3.85492 174.231 3.10526 174.48 3.10526C174.73 3.10526 174.854 2.48055 174.854 2.48055C174.854 2.48055 175.104 2.35561 175.228 2.48055C175.353 2.60549 175.478 1.60596 175.478 1.60596C175.478 1.60596 175.603 1.23113 175.727 1.48102C175.852 1.7309 175.852 1.60596 175.977 1.23113C176.101 0.856302 176.725 0.606418 176.725 0.606418C176.725 0.606418 179.095 0.73136 179.469 0.231591C179.843 -0.268177 184.084 0.106646 184.957 0.731358C185.83 1.35607 189.696 3.60504 189.072 5.47917C188.449 7.35331 186.204 11.4764 186.204 12.1011C186.204 12.7258 185.331 12.6009 185.081 11.9762C184.832 11.3515 182.836 10.6018 182.836 10.227C182.836 9.85217 181.714 6.35377 181.09 6.60366C180.467 6.85354 179.718 8.85263 179.469 8.4778C179.219 8.10297 178.721 5.854 178.721 5.854Z" fill="#3F3D56"/>
<path d="M195.932 22.9711C195.932 22.9711 190.819 15.4745 189.322 15.0997C187.825 14.7249 184.458 13.7253 184.458 13.7253C184.458 13.7253 181.09 14.2251 180.093 14.7249C179.095 15.2247 175.353 16.0992 175.229 17.5986C175.104 19.0979 176.226 33.4662 175.603 34.8406C174.979 36.215 172.859 49.3339 173.857 49.0841C174.854 48.8342 174.106 45.5857 178.471 45.4607C182.836 45.3358 185.206 42.712 186.827 45.8356C188.449 48.9591 193.064 51.333 193.064 51.333C193.179 50.3257 193.346 49.3249 193.562 48.3344C193.937 46.5852 192.565 42.3372 192.565 42.3372C192.565 42.3372 192.689 32.4667 193.188 31.3422C193.687 30.2177 195.932 22.9711 195.932 22.9711Z" fill="#0E8993"/>
<path d="M194.062 22.7213L195.932 22.9712C195.932 22.9712 195.808 25.47 196.307 26.2197C196.806 26.9694 197.679 30.8426 197.18 30.9675C196.681 31.0925 192.191 31.8421 192.191 31.8421L191.941 26.0948L194.062 22.7213Z" fill="#0E8993"/>
<path d="M173.856 27.2191C173.856 27.2191 172.609 35.3404 171.986 36.3399C171.362 37.3395 168.244 51.333 168.244 51.333C168.244 51.333 163.117 58.476 165.611 58.351C168.105 58.2261 170.738 51.8328 170.738 51.8328C170.738 51.8328 178.471 37.7143 178.471 36.215C178.471 34.7157 180.342 27.2191 180.342 27.2191L173.856 27.2191Z" fill="#FFB9B9"/>
<path d="M177.473 16.2242L175.228 17.0988C175.228 17.0988 172.36 27.3441 172.983 28.2187C173.607 29.0933 181.09 27.8439 181.215 27.4691C181.339 27.0942 179.843 16.2242 177.473 16.2242Z" fill="#0E8993"/>
<path d="M19.9082 84.0276C19.9082 96.201 27.5315 106.051 36.9525 106.051Z" fill="#46455B"/>
<path d="M36.9521 106.052C36.9521 93.7414 45.4594 83.7802 55.9726 83.7802Z" fill="#0E8993"/>
<path d="M26.083 85.1312C26.083 96.6946 30.9443 106.052 36.9518 106.052Z" fill="#0E8993"/>
<path d="M36.9521 106.052C36.9521 90.322 46.7851 77.5938 58.9368 77.5938Z" fill="#46455B"/>
<path d="M33.3662 106.207C33.3662 106.207 35.7834 106.132 36.5119 105.613C37.2403 105.093 40.2301 104.472 40.4108 105.306C40.5915 106.139 44.0433 109.451 41.3144 109.473C38.5854 109.495 34.9735 109.047 34.2464 108.603C33.5193 108.16 33.3662 106.207 33.3662 106.207Z" fill="#A8A8A8"/>
<path opacity="0.2" d="M41.3631 109.183C38.6341 109.205 35.0222 108.757 34.2951 108.313C33.7414 107.975 33.5207 106.763 33.4469 106.204C33.3958 106.206 33.3662 106.207 33.3662 106.207C33.3662 106.207 33.5193 108.16 34.2464 108.604C34.9734 109.047 38.5854 109.495 41.3144 109.473C42.1021 109.467 42.3742 109.186 42.3593 108.77C42.2498 109.021 41.9494 109.178 41.3631 109.183Z" fill="black"/>
</svg>
