<svg width="161" height="120" viewBox="0 0 161 120" fill="none" xmlns="http://www.w3.org/2000/svg">
<g clip-path="url(#clip0)">
<path d="M93.1355 116.442L47.8052 116.558C35.7791 113.778 25.9261 104.123 25.8638 89.647C25.8517 87.4663 26.0658 85.2883 26.5041 83.1338L63.0157 76.8236L91.182 71.9561C93.2576 73.3858 95.1916 74.9327 96.9679 76.5839L70.0343 87.5242L57.3285 92.6856L71.606 88.8964L101.24 81.0319C103.088 83.2054 104.734 85.4765 106.167 87.8281L97.226 94.9366L107.341 89.8428C107.384 89.9208 107.427 89.999 107.47 90.0772C113.88 101.784 105.926 116.41 93.1355 116.442Z" fill="#E6E6E6"/>
<path d="M85.6862 68.6797C78.8311 70.1942 70.4032 72.1078 61.738 74.0967C49.2094 76.9732 36.1852 80.0089 26.7031 82.2279L26.7093 82.2019C27.0598 80.6448 27.8838 79.1734 29.1141 77.9079C36.1381 70.8825 45.0821 65.9747 55.0363 64.1521H55.0372C57.8363 63.6385 60.7032 63.3753 63.5809 63.368C71.5005 63.3478 79.0021 65.2586 85.6862 68.6797Z" fill="#E6E6E6"/>
<path d="M56.3092 119.426C73.3478 119.426 87.1603 117.893 87.1603 116.003C87.1603 114.112 73.3478 112.58 56.3092 112.58C39.2705 112.58 25.458 114.112 25.458 116.003C25.458 117.893 39.2705 119.426 56.3092 119.426Z" fill="#3F3D56"/>
<path d="M45.333 84.0545V89.3792L50.2771 89.8356L53.2436 86.945L50.8704 83.2938L45.333 84.0545Z" fill="#FBBEBE"/>
<path d="M64.1201 105.962L66.691 111.287L71.4374 110.069L67.8776 105.658L64.1201 105.962Z" fill="#FBBEBE"/>
<path d="M58.1881 60.6258C58.1881 60.6258 32.4788 58.648 33.2698 64.1249C34.0609 69.6017 45.3334 85.2716 45.3334 85.2716L52.8485 84.2066C52.8485 84.2066 47.5089 77.817 47.9044 75.6871C48.2999 73.5572 46.7178 70.6666 46.7178 70.6666L50.4753 71.1231L52.6507 73.7093L57.1993 91.6612L64.121 107.788L69.2629 106.723C69.2629 106.723 66.4942 100.029 67.2853 97.8988C68.0763 95.7689 63.5277 87.5536 63.5277 87.5536L66.692 73.2529C66.692 73.2529 72.8227 71.8837 71.0428 67.1675C69.2629 62.4514 58.1881 60.6258 58.1881 60.6258Z" fill="#2F2E41"/>
<path d="M47.5085 87.7057C47.5085 87.7057 44.5421 85.8801 44.7398 86.6408C44.8516 87.1953 44.8516 87.7598 44.7398 88.3143L41.9711 93.0305C41.9711 93.0305 35.2471 97.7466 41.3778 97.8988C47.5085 98.0509 50.6727 93.1826 50.6727 93.1826C50.6727 93.1826 59.1766 88.3143 58.1878 87.5536C57.1989 86.7929 52.0093 85.0459 52.0093 85.0459C52.0093 85.0459 50.2772 88.7707 47.5085 87.7057Z" fill="#2F2E41"/>
<path d="M66.4937 108.852C66.4937 108.852 63.725 106.875 63.5272 107.787C63.3295 108.7 63.1317 109.917 63.1317 109.917L58.9787 112.96C58.9787 112.96 53.0458 117.372 58.1876 117.524C59.6737 117.576 61.1559 117.37 62.525 116.923C63.8941 116.475 65.1151 115.797 66.0982 114.938C66.0982 114.938 73.6132 113.721 73.2177 112.808C72.8221 111.895 70.8389 108.364 69.9518 108.228C69.0646 108.092 68.8669 110.069 66.4937 108.852Z" fill="#2F2E41"/>
<path d="M57.0008 38.7182C60.3867 38.7182 63.1315 36.6067 63.1315 34.0021C63.1315 31.3974 60.3867 29.2859 57.0008 29.2859C53.6149 29.2859 50.8701 31.3974 50.8701 34.0021C50.8701 36.6067 53.6149 38.7182 57.0008 38.7182Z" fill="#FBBEBE"/>
<path d="M54.2324 37.1969C54.2324 37.1969 56.8034 42.5216 56.6056 42.978C56.4078 43.4344 64.7139 39.1747 64.7139 39.1747C64.7139 39.1747 61.1542 38.5661 61.1542 36.132L54.2324 37.1969Z" fill="#FBBEBE"/>
<path d="M76.7776 44.9558C76.7776 44.9558 80.3374 47.6942 80.9306 48.607C81.5239 49.5199 94.9719 61.0821 94.9719 61.0821C94.9719 61.0821 103.871 69.1452 100.311 69.2974C96.7517 69.4495 92.2032 62.9077 92.2032 62.9077C92.2032 62.9077 79.5463 55.7574 78.953 54.0839L71.6357 48.3028L76.7776 44.9558Z" fill="#FBBEBE"/>
<path d="M58.1881 41.7611H56.0127L53.0462 45.4123C53.0462 45.4123 50.0798 47.39 52.2552 51.4977C54.4306 55.6053 56.2105 60.7779 56.2105 60.7779C56.2105 60.7779 62.5389 61.3864 63.7255 62.9078C64.9121 64.4291 71.636 69.2975 71.636 69.2975C71.636 69.2975 72.8226 66.1026 72.4271 61.3864C72.0316 56.6703 72.4271 49.5199 72.4271 49.5199L72.0316 40.0876C72.0316 40.0876 64.3933 38.7256 63.8616 38.9502C63.33 39.1748 58.1881 41.7611 58.1881 41.7611Z" fill="#0E8993"/>
<path d="M69.0645 40.5439L72.0309 40.0875C72.0309 40.0875 75.1951 41.6089 78.1616 46.0208C78.1616 46.0208 71.8331 49.2156 71.2399 49.0635C70.6466 48.9113 69.0645 40.5439 69.0645 40.5439Z" fill="#000D30"/>
<path d="M50.8707 50.8891C50.8707 50.8891 46.3222 56.518 47.7065 58.6479C49.0909 60.7778 50.8707 60.6257 50.8707 60.6257C50.8707 60.6257 54.2327 60.1693 54.2327 58.0394C54.2327 55.9095 55.6171 55.7574 55.6171 55.7574C55.6171 55.7574 64.3187 50.2805 60.9567 50.2805C57.5947 50.2805 53.0461 54.0839 53.0461 54.0839L52.8484 50.5848L50.8707 50.8891Z" fill="#FBBEBE"/>
<path d="M53.8375 45.2601C53.8375 45.2601 50.871 45.8687 50.2778 48.3028C49.6845 50.737 49.8822 51.9541 49.8822 51.9541L53.8375 51.6498V45.2601Z" fill="#000D30"/>
<path opacity="0.1" d="M48.2998 57.4309C48.2998 57.4309 51.464 54.236 51.8596 54.6925L48.2998 57.4309Z" fill="black"/>
<path d="M60.1156 28.2926C60.1156 28.2926 56.8643 25.7937 53.7343 27.4715C50.6043 29.1494 49.1467 30.7475 49.4961 31.8327C49.8455 32.918 50.8212 34.4177 50.8212 34.4177C50.8212 34.4177 50.17 32.1679 52.8015 31.9475C55.4329 31.7271 59.0308 30.3113 59.0308 30.3113L61.6328 34.3105C61.6328 34.3105 61.9494 33.3652 62.9245 33.6149C63.8995 33.8646 62.9692 28.5356 60.1156 28.2926Z" fill="#2F2E41"/>
<path d="M37.8686 111.955C37.8686 114.173 36.1544 114.948 34.0398 114.948C33.9908 114.948 33.9419 114.947 33.893 114.947C33.795 114.945 33.698 114.941 33.6021 114.936C31.6937 114.832 30.2109 114.018 30.2109 111.955C30.2109 109.82 33.7575 107.126 34.0239 106.927L34.0244 106.926C34.0346 106.919 34.0398 106.915 34.0398 106.915C34.0398 106.915 37.8686 109.737 37.8686 111.955Z" fill="#0E8993"/>
<path d="M33.9003 114.609L35.3006 113.103L33.8968 114.774L33.893 114.947C33.7951 114.945 33.698 114.941 33.6021 114.936L33.7531 112.717L33.7519 112.7L33.7545 112.697L33.7687 112.487L32.3613 110.812L33.7731 112.33L33.7764 112.374L33.8905 110.697L32.6856 108.967L33.9052 110.403L34.0239 106.927L34.0244 106.915V106.926L34.0045 109.668L35.2041 108.581L33.9997 109.904L33.9679 111.405L35.0879 109.964L33.9633 111.626L33.9455 112.461L35.5715 110.455L33.9395 112.752L33.9003 114.609Z" fill="#000D30"/>
<path d="M124.85 33.4188C124.85 33.4188 123.633 36.3292 121.734 40.5107C121.12 41.869 120.432 43.3601 119.691 44.9296C118.658 47.115 117.521 49.4529 116.33 51.7907C115.597 53.2296 114.844 54.6662 114.083 56.0703C109.991 63.5953 105.634 70.1147 102.778 70.2062C96.3637 70.4108 82.6229 37.3936 81.1232 33.7453C81.0355 33.532 80.9902 33.4188 80.9902 33.4188H124.85Z" fill="#F7EFE7"/>
<path opacity="0.1" d="M121.734 40.5107C121.12 41.869 120.433 43.3601 119.691 44.9296L102.699 33.4188H111.265L121.734 40.5107Z" fill="black"/>
<path opacity="0.1" d="M116.33 51.7907C115.597 53.2296 114.844 54.6662 114.083 56.0703L81.1232 33.7453C81.0355 33.532 80.9902 33.4188 80.9902 33.4188H89.2075L116.33 51.7907Z" fill="black"/>
<path d="M103.68 4.17629C101.67 5.4015 98.4902 4.93821 96.5579 6.23584C95.2362 7.12343 94.8836 8.64124 95.2442 9.96212C95.6049 11.283 96.5633 12.4551 97.5274 13.5827C98.1929 14.3609 98.8832 15.1453 99.8182 15.7372C101.125 16.5647 102.803 16.95 104.448 17.2594C108.029 17.933 111.686 18.3407 115.368 18.4771C117.01 18.5379 118.87 18.4771 119.977 17.5417C120.621 16.9969 120.88 16.2504 121.069 15.5284C121.364 14.399 121.528 13.1831 120.918 12.131C120.416 11.2663 119.451 10.6182 118.473 10.0428C115.407 8.23783 111.796 6.74355 109.924 4.14565C109.181 3.11302 108.722 1.91642 107.594 1.11523C106.125 0.0709428 102.855 -0.356065 101.125 0.341535C101.392 0.810378 104.886 3.44181 103.68 4.17629Z" fill="#FFB8B8"/>
<path d="M86.7842 16.3536C86.1881 17.9438 85.6389 19.6264 86.1409 21.2358C86.8027 23.3577 89.2212 24.9469 91.8741 25.7193C94.5271 26.4918 97.4202 26.5819 100.255 26.6634L115.096 27.0898C116.962 27.1434 118.863 27.2022 120.616 27.6954C122.06 28.102 123.777 28.7714 124.982 28.0352C125.528 27.7013 125.774 27.1606 125.968 26.645C126.598 24.9672 126.951 23.1249 126.103 21.5048C125.131 19.6483 122.734 18.4285 120.245 17.8454C117.756 17.2623 115.12 17.2055 112.534 16.9853C109.911 16.7618 107.318 16.3669 104.782 15.8047C102.661 15.3347 100.513 14.7144 98.9452 13.5205C98.0969 12.8746 97.4546 12.0869 96.655 11.4053C92.0748 7.50055 87.9108 13.3485 86.7842 16.3536Z" fill="#FFB8B8"/>
<path d="M83.5233 23.6594C82.0797 24.1568 80.8276 24.9326 79.8882 25.9115C78.9488 26.8905 78.3539 28.0394 78.1612 29.2472C77.9685 30.4549 78.1844 31.6804 78.7882 32.8051C79.3919 33.9298 80.3629 34.9154 81.6072 35.6667C83.8671 37.031 86.8245 37.5055 89.6898 37.6643C92.4877 37.8194 95.2976 37.7127 98.0993 37.606L122.888 36.6615C124.341 36.6061 125.986 36.4775 126.873 35.5904C127.535 34.9283 127.574 34.0151 127.416 33.1888C126.847 30.2161 123.929 27.5844 120.203 26.6835C118.798 26.3437 117.318 26.2362 115.852 26.1306L105.225 25.3657C103.794 25.2627 102.355 25.1586 100.968 24.8686C96.7658 23.9899 93.0109 21.4243 88.6843 21.8042C85.7491 22.0619 83.3323 23.6427 81.2002 25.2157" fill="#FFB8B8"/>
<path opacity="0.1" d="M97.4023 10.7804C97.4023 10.7804 100.871 15.5975 118.661 17.5425L97.4023 10.7804Z" fill="black"/>
<path opacity="0.1" d="M87.5615 23.3972C87.5615 23.3972 94.0066 28.4122 120.605 28.4122L87.5615 23.3972Z" fill="black"/>
<path d="M102.496 8.38597C103.433 8.38597 104.193 8.19105 104.193 7.95061C104.193 7.71017 103.433 7.51526 102.496 7.51526C101.558 7.51526 100.798 7.71017 100.798 7.95061C100.798 8.19105 101.558 8.38597 102.496 8.38597Z" fill="#A2F8FE"/>
<path d="M108.155 11.2157C109.092 11.2157 109.853 11.0208 109.853 10.7803C109.853 10.5399 109.092 10.345 108.155 10.345C107.217 10.345 106.457 10.5399 106.457 10.7803C106.457 11.0208 107.217 11.2157 108.155 11.2157Z" fill="#3F3D56"/>
<path d="M114.663 14.2633C115.6 14.2633 116.36 14.0684 116.36 13.8279C116.36 13.5875 115.6 13.3926 114.663 13.3926C113.725 13.3926 112.965 13.5875 112.965 13.8279C112.965 14.0684 113.725 14.2633 114.663 14.2633Z" fill="#A2F8FE"/>
<path d="M92.0259 15.5693C92.9636 15.5693 93.7237 15.3744 93.7237 15.134C93.7237 14.8935 92.9636 14.6986 92.0259 14.6986C91.0882 14.6986 90.3281 14.8935 90.3281 15.134C90.3281 15.3744 91.0882 15.5693 92.0259 15.5693Z" fill="#3F3D56"/>
<path d="M106.458 19.7052C107.395 19.7052 108.155 19.5103 108.155 19.2698C108.155 19.0294 107.395 18.8345 106.458 18.8345C105.52 18.8345 104.76 19.0294 104.76 19.2698C104.76 19.5103 105.52 19.7052 106.458 19.7052Z" fill="#3F3D56"/>
<path d="M86.0835 28.1946C87.0212 28.1946 87.7813 27.9996 87.7813 27.7592C87.7813 27.5188 87.0212 27.3239 86.0835 27.3239C85.1459 27.3239 84.3857 27.5188 84.3857 27.7592C84.3857 27.9996 85.1459 28.1946 86.0835 28.1946Z" fill="#A2F8FE"/>
<path d="M96.8364 20.1405C97.7741 20.1405 98.5342 19.9456 98.5342 19.7051C98.5342 19.4647 97.7741 19.2698 96.8364 19.2698C95.8988 19.2698 95.1387 19.4647 95.1387 19.7051C95.1387 19.9456 95.8988 20.1405 96.8364 20.1405Z" fill="#A2F8FE"/>
<path d="M90.3286 31.4597C91.2663 31.4597 92.0264 31.2648 92.0264 31.0243C92.0264 30.7839 91.2663 30.589 90.3286 30.589C89.391 30.589 88.6309 30.7839 88.6309 31.0243C88.6309 31.2648 89.391 31.4597 90.3286 31.4597Z" fill="#3F3D56"/>
<path d="M101.364 29.5006C102.301 29.5006 103.062 29.3057 103.062 29.0652C103.062 28.8248 102.301 28.6299 101.364 28.6299C100.426 28.6299 99.666 28.8248 99.666 29.0652C99.666 29.3057 100.426 29.5006 101.364 29.5006Z" fill="#A2F8FE"/>
<path d="M108.013 39.9491C109.029 39.9491 109.852 38.6334 109.852 37.0104C109.852 35.3874 109.029 34.0718 108.013 34.0718C106.997 34.0718 106.174 35.3874 106.174 37.0104C106.174 38.6334 106.997 39.9491 108.013 39.9491Z" fill="#0E8993"/>
<path d="M110.277 41.0374C111.293 41.0374 112.116 39.7217 112.116 38.0988C112.116 36.4758 111.293 35.1602 110.277 35.1602C109.261 35.1602 108.438 36.4758 108.438 38.0988C108.438 39.7217 109.261 41.0374 110.277 41.0374Z" fill="#0E8993"/>
<path d="M106.503 66.4346C106.518 66.3765 106.9 64.9867 108.895 62.9592C110.726 61.0992 114.326 58.3313 121.085 55.7086C133.889 50.7402 136.755 41.4058 136.782 41.312L137.124 41.3714C137.117 41.3952 136.401 43.785 134.094 46.7591C131.033 50.6999 126.575 53.888 121.243 55.9495C108.461 60.9095 106.861 66.4329 106.847 66.4881L106.503 66.4346Z" fill="#3F3D56"/>
<path d="M137.437 40.3132C138.696 40.3132 139.717 39.5283 139.717 38.5599C139.717 37.5916 138.696 36.8066 137.437 36.8066C136.179 36.8066 135.158 37.5916 135.158 38.5599C135.158 39.5283 136.179 40.3132 137.437 40.3132Z" fill="#0E8993"/>
<path d="M136.986 48.8201C138.245 48.8201 139.265 48.0351 139.265 47.0668C139.265 46.0985 138.245 45.3135 136.986 45.3135C135.727 45.3135 134.707 46.0985 134.707 47.0668C134.707 48.0351 135.727 48.8201 136.986 48.8201Z" fill="#3F3D56"/>
<path d="M129.572 49.4171C130.831 49.4171 131.851 48.6321 131.851 47.6638C131.851 46.6955 130.831 45.9105 129.572 45.9105C128.313 45.9105 127.293 46.6955 127.293 47.6638C127.293 48.6321 128.313 49.4171 129.572 49.4171Z" fill="#0E8993"/>
<path d="M130.724 55.2052C131.983 55.2052 133.004 54.4202 133.004 53.4519C133.004 52.4836 131.983 51.6986 130.724 51.6986C129.466 51.6986 128.445 52.4836 128.445 53.4519C128.445 54.4202 129.466 55.2052 130.724 55.2052Z" fill="#0E8993"/>
<path d="M120.061 55.324C121.32 55.324 122.341 54.539 122.341 53.5707C122.341 52.6024 121.32 51.8174 120.061 51.8174C118.803 51.8174 117.782 52.6024 117.782 53.5707C117.782 54.539 118.803 55.324 120.061 55.324Z" fill="#3F3D56"/>
<path d="M107.456 67.2021C107.456 67.2021 109.599 62.8453 117.474 64.0481L107.456 67.2021Z" fill="#3F3D56"/>
<path d="M105.47 65.6785C105.47 65.6785 108.765 61.7706 102.844 57.6002L105.47 65.6785Z" fill="#3F3D56"/>
<path d="M159.429 67.7531L155.656 66.6076L151.883 65.4624L155.059 63.5214L158.235 61.5803L158.832 64.6667L159.429 67.7531Z" fill="#F2F2F2"/>
<path d="M7.54608 47.9756L3.77314 46.8302L0 45.6849L3.17589 43.7439L6.35178 41.8029L6.94903 44.8892L7.54608 47.9756Z" fill="#F2F2F2"/>
<path d="M140.641 84.64L136.868 83.4946L133.095 82.3493L136.271 80.4084L139.446 78.4673L140.044 81.5536L140.641 84.64Z" fill="#F2F2F2"/>
<path d="M161 95.4045L157.436 96.8949L153.873 98.3856L153.977 95.2663L154.08 92.147L157.54 93.7757L161 95.4045Z" fill="#F2F2F2"/>
<path d="M26.7186 35.7676L23.1551 37.2581L19.5918 38.7487L19.6954 35.6295L19.7991 32.5101L23.2589 34.1389L26.7186 35.7676Z" fill="#F2F2F2"/>
</g>
<defs>
<clipPath id="clip0">
<rect width="161" height="119.426" fill="white"/>
</clipPath>
</defs>
</svg>
