<svg width="284" height="135" viewBox="0 0 284 135" fill="none" xmlns="http://www.w3.org/2000/svg">
<path d="M221.845 20.2823H152.205V18.8557H120.627V20.2823H50.7003C49.4508 20.2823 48.2526 20.7757 47.3691 21.6539C46.4856 22.5321 45.9893 23.7231 45.9893 24.9651V119.75C45.9893 120.992 46.4856 122.183 47.3691 123.061C48.2526 123.94 49.4508 124.433 50.7003 124.433H221.845C223.095 124.433 224.293 123.94 225.176 123.061C226.06 122.183 226.556 120.992 226.556 119.75V24.9645C226.556 23.7227 226.06 22.5318 225.176 21.6537C224.293 20.7756 223.095 20.2823 221.845 20.2823Z" fill="#3F3D56"/>
<path d="M220.24 28.5573H52.3047V122.721H220.24V28.5573Z" fill="#E6E6E6"/>
<path d="M213.175 33.5369H59.4268V114.929H213.175V33.5369Z" fill="white"/>
<path d="M136.129 25.9894C137.08 25.9894 137.851 25.2229 137.851 24.2773C137.851 23.3317 137.08 22.5652 136.129 22.5652C135.177 22.5652 134.406 23.3317 134.406 24.2773C134.406 25.2229 135.177 25.9894 136.129 25.9894Z" fill="#0E8993"/>
<path d="M231.271 121.008H214.881V119.835C214.881 119.773 214.857 119.714 214.813 119.67C214.769 119.626 214.709 119.602 214.647 119.602H209.028C208.966 119.602 208.906 119.626 208.862 119.67C208.818 119.714 208.794 119.773 208.794 119.835V121.008H205.282V119.835C205.282 119.773 205.257 119.714 205.213 119.67C205.169 119.626 205.11 119.602 205.048 119.602H199.428C199.366 119.602 199.307 119.626 199.263 119.67C199.219 119.714 199.194 119.773 199.194 119.835V121.008H195.682V119.835C195.682 119.773 195.658 119.714 195.614 119.67C195.57 119.626 195.51 119.602 195.448 119.602H189.829C189.767 119.602 189.707 119.626 189.663 119.67C189.619 119.714 189.595 119.773 189.595 119.835V121.008H186.083V119.835C186.083 119.773 186.058 119.714 186.014 119.67C185.97 119.626 185.911 119.602 185.849 119.602H180.23C180.167 119.602 180.108 119.626 180.064 119.67C180.02 119.714 179.995 119.773 179.995 119.835V121.008H176.483V119.835C176.483 119.773 176.459 119.714 176.415 119.67C176.371 119.626 176.311 119.602 176.249 119.602H170.63C170.568 119.602 170.508 119.626 170.464 119.67C170.42 119.714 170.396 119.773 170.396 119.835V121.008H166.884V119.835C166.884 119.773 166.859 119.714 166.815 119.67C166.771 119.626 166.712 119.602 166.649 119.602H161.032C160.969 119.602 160.91 119.626 160.866 119.67C160.822 119.714 160.797 119.773 160.797 119.835V121.008H157.284V119.835C157.284 119.773 157.259 119.714 157.216 119.67C157.172 119.626 157.112 119.602 157.05 119.602H113.033C112.971 119.602 112.911 119.626 112.867 119.67C112.823 119.714 112.799 119.773 112.799 119.835V121.008H109.287V119.835C109.287 119.773 109.262 119.714 109.218 119.67C109.174 119.626 109.115 119.602 109.053 119.602H103.433C103.371 119.602 103.312 119.626 103.268 119.67C103.224 119.714 103.199 119.773 103.199 119.835V121.008H99.6873V119.835C99.6873 119.773 99.6626 119.714 99.6187 119.67C99.5748 119.626 99.5152 119.602 99.4531 119.602H93.8341C93.772 119.602 93.7124 119.626 93.6685 119.67C93.6246 119.714 93.5999 119.773 93.5999 119.835V121.008H90.0878V119.835C90.0878 119.773 90.0631 119.714 90.0192 119.67C89.9752 119.626 89.9157 119.602 89.8535 119.602H84.2346C84.1725 119.602 84.1129 119.626 84.069 119.67C84.025 119.714 84.0004 119.773 84.0004 119.835V121.008H80.489V119.835C80.489 119.773 80.4644 119.714 80.4204 119.67C80.3765 119.626 80.3169 119.602 80.2548 119.602H74.635C74.5729 119.602 74.5134 119.626 74.4694 119.67C74.4255 119.714 74.4008 119.773 74.4008 119.835V121.008H70.889V119.835C70.889 119.773 70.8643 119.714 70.8204 119.67C70.7765 119.626 70.7169 119.602 70.6548 119.602H65.0355C64.9734 119.602 64.9138 119.626 64.8699 119.67C64.826 119.714 64.8013 119.773 64.8013 119.835V121.008H61.2895V119.835C61.2895 119.773 61.2648 119.714 61.2209 119.67C61.1769 119.626 61.1174 119.602 61.0552 119.602H55.4349C55.3728 119.602 55.3132 119.626 55.2693 119.67C55.2254 119.714 55.2007 119.773 55.2007 119.835V121.008H44.4317C42.9414 121.008 41.5122 121.597 40.4583 122.644C39.4045 123.692 38.8125 125.113 38.8125 126.594V129.119C38.8125 130.601 39.4045 132.021 40.4583 133.069C41.5122 134.116 42.9414 134.705 44.4317 134.705H231.271C232.761 134.705 234.19 134.116 235.244 133.069C236.298 132.022 236.89 130.601 236.89 129.12V126.594C236.89 125.113 236.298 123.692 235.244 122.645C234.19 121.597 232.761 121.009 231.271 121.009V121.008Z" fill="#3F3D56"/>
<path d="M170.295 39.2456H102.307V110.285H170.295V39.2456Z" fill="#E6E6E6"/>
<path d="M284 134.468H0V135H284V134.468Z" fill="#E6E6E6"/>
<path d="M256.418 115.879C260.266 119.984 260.465 126.016 260.465 126.016C260.465 126.016 254.425 125.394 250.577 121.29C246.729 117.186 246.53 111.153 246.53 111.153C246.53 111.153 252.57 111.775 256.418 115.879Z" fill="#0E8993"/>
<path d="M268.532 122.286C264.403 126.111 258.334 126.309 258.334 126.309C258.334 126.309 258.96 120.305 263.089 116.48C267.218 112.655 273.287 112.457 273.287 112.457C273.287 112.457 272.662 118.461 268.532 122.286Z" fill="#0E8993"/>
<path d="M267.506 134.468H252.319C252.027 134.468 251.742 134.386 251.495 134.233C251.248 134.079 251.049 133.859 250.922 133.599L247.615 126.843C247.5 126.607 247.446 126.347 247.46 126.085C247.474 125.824 247.555 125.57 247.694 125.348C247.834 125.126 248.028 124.943 248.259 124.816C248.489 124.689 248.749 124.623 249.012 124.623H270.813C271.076 124.623 271.335 124.689 271.566 124.816C271.797 124.943 271.991 125.126 272.131 125.348C272.27 125.57 272.351 125.824 272.365 126.085C272.379 126.347 272.325 126.607 272.21 126.843L268.903 133.599C268.776 133.86 268.577 134.079 268.33 134.233C268.083 134.387 267.798 134.468 267.506 134.468L267.506 134.468Z" fill="#E5E5E5"/>
<path d="M16.3168 115.879C20.1648 119.984 20.3637 126.016 20.3637 126.016C20.3637 126.016 14.3237 125.394 10.4756 121.29C6.62759 117.186 6.42871 111.153 6.42871 111.153C6.42871 111.153 12.4687 111.775 16.3168 115.879Z" fill="#E5E5E5"/>
<path d="M24.9953 134.468H9.80785C9.51644 134.468 9.23088 134.386 8.98384 134.233C8.73679 134.079 8.53823 133.859 8.41087 133.599L5.10432 126.843C4.98885 126.607 4.93555 126.347 4.94942 126.085C4.96329 125.824 5.04389 125.57 5.18362 125.348C5.32335 125.126 5.51762 124.943 5.74814 124.816C5.97866 124.689 6.23785 124.623 6.5013 124.623H28.3021C28.5656 124.623 28.8248 124.689 29.0553 124.816C29.2858 124.943 29.4801 125.126 29.6198 125.348C29.7595 125.57 29.8401 125.824 29.854 126.085C29.8679 126.347 29.8146 126.607 29.6991 126.843L26.3925 133.599C26.2652 133.86 26.0666 134.079 25.8196 134.233C25.5725 134.387 25.287 134.468 24.9956 134.468L24.9953 134.468Z" fill="#E5E5E5"/>
<path d="M144.505 59.3554C149.495 59.3554 153.54 55.3342 153.54 50.3738C153.54 45.4135 149.495 41.3923 144.505 41.3923C139.514 41.3923 135.469 45.4135 135.469 50.3738C135.469 55.3342 139.514 59.3554 144.505 59.3554Z" fill="#A0616A"/>
<path d="M123.715 110.431L129.55 73.9171C129.86 71.9758 130.583 70.1223 131.67 68.4802C132.757 66.838 134.183 65.4447 135.854 64.3931C137.525 63.3414 139.402 62.6555 141.36 62.3809C143.318 62.1064 145.313 62.2495 147.211 62.8007C150.53 63.7549 153.372 65.9046 155.181 68.83C156.991 71.7554 157.638 75.2464 156.997 78.6209L150.894 111.229L123.715 110.431Z" fill="#0E8993"/>
<path d="M146.999 116.964C147.45 116.668 147.831 116.277 148.114 115.819C148.396 115.36 148.575 114.846 148.636 114.312C148.697 113.778 148.64 113.237 148.468 112.727C148.296 112.218 148.014 111.751 147.641 111.362L153.673 99.7511L146.88 100.472L142.194 111.387C141.579 112.053 141.232 112.92 141.216 113.824C141.201 114.727 141.519 115.605 142.11 116.292C142.702 116.978 143.526 117.426 144.426 117.55C145.327 117.673 146.242 117.465 146.999 116.964L146.999 116.964Z" fill="#A0616A"/>
<path d="M148.291 109.314C147.957 109.267 147.646 109.12 147.398 108.893L145.09 106.773C144.841 106.543 144.669 106.243 144.597 105.912C144.525 105.582 144.557 105.237 144.689 104.925L149.301 94.0578L148.647 72.5851C148.838 71.1921 149.578 69.9316 150.704 69.0809C151.83 68.2303 153.25 67.8591 154.652 68.0492C156.053 68.2392 157.322 68.9748 158.177 70.0942C159.033 71.2136 159.407 72.6251 159.215 74.0182L160.334 87.5164C160.674 91.6131 159.506 95.6931 157.046 98.9976L149.853 108.663C149.715 108.849 149.538 109.004 149.336 109.118C149.133 109.231 148.909 109.301 148.678 109.323C148.549 109.335 148.419 109.332 148.291 109.314Z" fill="#0E8993"/>
<path d="M92.4696 45.4804C92.568 46.009 92.7819 46.5097 93.0961 46.9472C93.4102 47.3848 93.8171 47.7485 94.288 48.0129C94.759 48.2772 95.2824 48.4357 95.8217 48.4772C96.3609 48.5187 96.9027 48.4422 97.4089 48.2531L105.814 58.3012L107.795 51.8024L99.5096 43.2566C99.1316 42.435 98.4642 41.7794 97.6332 41.4134C96.8023 41.0474 95.8653 40.9964 94.9991 41.27C94.1329 41.5436 93.3974 42.1229 92.9314 42.8986C92.4655 43.6743 92.3013 44.5927 92.4698 45.4804H92.4696Z" fill="#A0616A"/>
<path d="M99.0535 49.6454C99.227 49.3582 99.4844 49.1305 99.7914 48.9925L102.656 47.7066C102.966 47.5681 103.312 47.5277 103.646 47.5908C103.98 47.6539 104.287 47.8176 104.524 48.0596L112.794 56.5186L132.942 64.2916C133.545 64.647 134.071 65.1169 134.491 65.6744C134.911 66.232 135.216 66.8664 135.389 67.5412C135.562 68.2161 135.6 68.9182 135.5 69.6075C135.4 70.2969 135.164 70.9598 134.806 71.5586C134.448 72.1573 133.975 72.6801 133.414 73.097C132.853 73.514 132.214 73.8169 131.535 73.9885C130.856 74.1601 130.15 74.197 129.456 74.0972C128.763 73.9973 128.096 73.7626 127.494 73.4064L114.553 69.1675C110.625 67.8816 107.3 65.2212 105.198 61.6813L99.0481 51.3288C98.93 51.1297 98.8554 50.9081 98.829 50.6784C98.8027 50.4488 98.8253 50.2162 98.8953 49.9958C98.9342 49.8732 98.9876 49.7557 99.0543 49.6456L99.0535 49.6454Z" fill="#0E8993"/>
<path opacity="0.1" d="M151.833 81.5175L151.466 93.2192L144.688 104.926L150.347 91.8809L151.833 81.5175Z" fill="black"/>
<path d="M138.385 45.8721C139.317 46.9686 140.894 47.2777 142.349 47.4046C145.304 47.6622 149.601 47.245 152.488 46.5817C152.694 48.5673 152.133 50.7081 153.309 52.3414C153.861 50.364 154.181 48.3301 154.265 46.2797C154.3 45.4017 154.287 44.4907 153.927 43.6835C153.568 42.8762 152.784 42.1911 151.881 42.1839C152.551 41.6781 153.337 41.3442 154.168 41.2117L151.31 39.7838L152.044 39.0345L146.868 38.7198L148.367 37.7731C146.111 37.4653 143.829 37.3939 141.557 37.5603C140.503 37.6374 139.4 37.7851 138.546 38.3925C137.691 38.9999 137.197 40.2071 137.728 41.0989C137.064 41.2073 136.438 41.4825 135.911 41.8983C135.384 42.3141 134.972 42.8569 134.715 43.4751C134.334 44.4351 134.369 45.5015 134.486 46.5245C134.681 48.1606 135.064 49.7692 135.627 51.319" fill="#2F2E41"/>
<path d="M177.013 23.3721L94.6776 42.2665C94.2732 42.3588 93.8486 42.2879 93.4968 42.0694C93.1449 41.8509 92.8947 41.5026 92.8009 41.1009L88.0856 20.7997C87.9928 20.3978 88.0641 19.9757 88.284 19.626C88.5038 19.2763 88.8542 19.0275 89.2583 18.9343L171.594 0.0398669C171.998 -0.0524163 172.423 0.0184805 172.775 0.237003C173.126 0.455526 173.377 0.80383 173.47 1.20552L178.186 21.5067C178.278 21.9086 178.207 22.3307 177.987 22.6804C177.767 23.0301 177.417 23.2789 177.013 23.3721Z" fill="white"/>
<path d="M177.013 23.3721L94.6776 42.2665C94.2732 42.3588 93.8486 42.2879 93.4968 42.0694C93.1449 41.8509 92.8947 41.5026 92.8009 41.1009L88.0856 20.7997C87.9928 20.3978 88.0641 19.9757 88.284 19.626C88.5038 19.2763 88.8542 19.0275 89.2583 18.9343L171.594 0.0398669C171.998 -0.0524163 172.423 0.0184805 172.775 0.237003C173.126 0.455526 173.377 0.80383 173.47 1.20552L178.186 21.5067C178.278 21.9086 178.207 22.3307 177.987 22.6804C177.767 23.0301 177.417 23.2789 177.013 23.3721ZM89.3992 19.5406C89.1567 19.5966 88.9464 19.7458 88.8145 19.9557C88.6825 20.1655 88.6397 20.4188 88.6955 20.66L93.4107 40.9612C93.4669 41.2023 93.6171 41.4114 93.8282 41.5425C94.0394 41.6736 94.2942 41.7161 94.5369 41.6607L176.872 22.7663C177.115 22.7104 177.325 22.5611 177.457 22.3513C177.589 22.1414 177.632 21.8881 177.576 21.6469L172.861 1.34544C172.804 1.10435 172.654 0.895289 172.443 0.764145C172.232 0.633001 171.977 0.590496 171.734 0.64596L89.3992 19.5406Z" fill="#E6E6E6"/>
<path d="M117.969 19.4778C117.833 19.5087 117.705 19.566 117.591 19.6463C117.477 19.7266 117.38 19.8284 117.306 19.9459C117.232 20.0634 117.182 20.1943 117.158 20.331C117.135 20.4678 117.139 20.6078 117.17 20.743C117.202 20.8782 117.259 21.006 117.34 21.119C117.421 21.2321 117.523 21.3282 117.642 21.4019C117.76 21.4756 117.891 21.5254 118.029 21.5485C118.167 21.5716 118.307 21.5675 118.443 21.5365L118.447 21.5357L167.247 10.337C167.521 10.2737 167.759 10.1047 167.908 9.86735C168.057 9.62996 168.105 9.34352 168.042 9.0709C167.978 8.79829 167.809 8.56179 167.57 8.41335C167.331 8.2649 167.043 8.21663 166.769 8.27914L117.969 19.4778Z" fill="#E6E6E6"/>
<path d="M119.403 25.6517C119.267 25.6827 119.138 25.7399 119.024 25.8203C118.911 25.9006 118.814 26.0024 118.74 26.1199C118.665 26.2374 118.615 26.3682 118.592 26.505C118.569 26.6418 118.573 26.7817 118.604 26.9169C118.635 27.0522 118.693 27.1799 118.774 27.293C118.854 27.406 118.957 27.5022 119.075 27.5759C119.193 27.6495 119.325 27.6993 119.463 27.7224C119.6 27.7455 119.741 27.7415 119.877 27.7105L119.881 27.7096L140.879 22.8908C141.154 22.8282 141.392 22.6598 141.542 22.4225C141.692 22.1853 141.74 21.8987 141.677 21.6258C141.615 21.3528 141.445 21.1159 141.207 20.9671C140.968 20.8182 140.68 20.7697 140.405 20.8321L140.401 20.8329L119.403 25.6517Z" fill="#E6E6E6"/>
<path d="M104.628 33.1613C108.149 33.1613 111.003 30.3246 111.003 26.8253C111.003 23.326 108.149 20.4893 104.628 20.4893C101.108 20.4893 98.2539 23.326 98.2539 26.8253C98.2539 30.3246 101.108 33.1613 104.628 33.1613Z" fill="#0E8993"/>
<path d="M104.449 30.4804C104.24 30.5286 104.021 30.5081 103.825 30.4219L103.813 30.4165L101.248 29.2592C101.129 29.2055 101.022 29.1291 100.933 29.0342C100.843 28.9393 100.774 28.8279 100.728 28.7062C100.682 28.5845 100.66 28.4551 100.665 28.3252C100.669 28.1953 100.699 28.0675 100.753 27.9492C100.807 27.8309 100.884 27.7244 100.98 27.6357C101.076 27.5471 101.188 27.478 101.31 27.4325C101.433 27.3869 101.563 27.3659 101.694 27.3704C101.824 27.375 101.953 27.4051 102.072 27.4591L103.734 28.2112L106.065 23.1187C106.175 22.8803 106.375 22.6948 106.621 22.6029C106.868 22.511 107.142 22.5204 107.382 22.6288L107.368 22.6621L107.382 22.6287C107.622 22.7375 107.809 22.9363 107.901 23.1817C107.993 23.427 107.984 23.6987 107.875 23.9372L105.133 29.9278C105.069 30.0658 104.974 30.1874 104.856 30.2831C104.737 30.3789 104.598 30.4462 104.45 30.48L104.449 30.4804Z" fill="white"/>
</svg>
