<svg width="193" height="148" viewBox="0 0 193 148" fill="none" xmlns="http://www.w3.org/2000/svg">
<g clip-path="url(#clip0)">
<path d="M92.6583 102.486C93.0521 102.419 93.4263 102.266 93.7545 102.039C94.0827 101.812 94.3569 101.516 94.5579 101.171C94.7589 100.827 94.8817 100.443 94.9177 100.047C94.9537 99.6498 94.9021 99.2501 94.7663 98.8754L106.761 78.1939L101.091 76.4152L91.0736 97.2801C90.4574 97.5491 89.9616 98.0342 89.6802 98.6433C89.3987 99.2523 89.3512 99.9432 89.5465 100.585C89.7419 101.227 90.1665 101.775 90.74 102.125C91.3136 102.475 91.9961 102.604 92.6583 102.486L92.6583 102.486Z" fill="#FFB8B8"/>
<path d="M106.338 81.5453C106.511 81.5134 106.674 81.4421 106.814 81.3371C106.954 81.2321 107.068 81.0961 107.147 80.9398L110.312 74.7188C110.432 74.4816 110.466 74.2098 110.407 73.9504C110.348 73.691 110.2 73.4603 109.989 73.2981L106.602 70.7006C106.386 70.5335 106.117 70.4493 105.844 70.4634C105.571 70.4776 105.312 70.589 105.115 70.7775L100.418 75.2275C100.303 75.3362 100.212 75.4675 100.151 75.6131C100.089 75.7587 100.059 75.9153 100.061 76.0732C100.064 76.2311 100.099 76.3867 100.165 76.5302C100.231 76.6737 100.326 76.8021 100.445 76.9071L105.365 81.2759C105.495 81.3925 105.651 81.4775 105.82 81.5242C105.989 81.5709 106.166 81.5781 106.339 81.5453L106.338 81.5453Z" fill="#0E8993"/>
<path d="M-0.000443387 53.725C-0.000441994 37.7968 12.9515 -3.9258e-06 28.9285 -2.52905e-06C44.9055 -1.13229e-06 57.8574 37.7968 57.8574 53.725C57.8585 57.5131 57.111 61.2643 55.6577 64.7644C54.2044 68.2644 52.0737 71.4447 49.3873 74.1237C46.7009 76.8027 43.5114 78.9278 40.001 80.3777C36.4907 81.8276 32.7282 82.5738 28.9285 82.5738C25.1288 82.5738 21.3663 81.8276 17.8559 80.3777C14.3456 78.9278 11.1561 76.8027 8.46972 74.1237C5.78331 71.4447 3.65259 68.2644 2.19927 64.7644C0.74594 61.2643 -0.00153091 57.5131 -0.000443387 53.725Z" fill="#0E8993"/>
<path d="M28.9291 141.44C28.866 141.44 28.8055 141.415 28.7609 141.37C28.7163 141.326 28.6912 141.266 28.6912 141.203L28.6912 24.2209C28.6912 24.158 28.7163 24.0977 28.7609 24.0532C28.8055 24.0087 28.866 23.9838 28.9291 23.9838C28.9922 23.9838 29.0527 24.0087 29.0973 24.0532C29.1419 24.0977 29.167 24.158 29.167 24.2209L29.167 141.203C29.167 141.266 29.1419 141.326 29.0973 141.37C29.0527 141.415 28.9922 141.44 28.9291 141.44Z" fill="#3F3D56"/>
<path d="M28.9291 43.417C28.8979 43.417 28.8669 43.4109 28.8381 43.399C28.8092 43.3871 28.783 43.3696 28.7609 43.3475L17.3109 31.9325C17.2667 31.888 17.242 31.8278 17.2422 31.7651C17.2424 31.7025 17.2674 31.6424 17.3119 31.5981C17.3563 31.5538 17.4165 31.5289 17.4794 31.5287C17.5422 31.5285 17.6026 31.5531 17.6473 31.5972L29.0974 43.0122C29.1306 43.0453 29.1533 43.0876 29.1624 43.1336C29.1716 43.1796 29.1669 43.2273 29.1489 43.2706C29.1309 43.3139 29.1004 43.351 29.0613 43.377C29.0222 43.4031 28.9762 43.417 28.9291 43.417L28.9291 43.417Z" fill="#3F3D56"/>
<path d="M28.929 63.1788C28.8819 63.1788 28.8359 63.1649 28.7968 63.1388C28.7577 63.1127 28.7272 63.0757 28.7092 63.0324C28.6912 62.9891 28.6865 62.9414 28.6957 62.8954C28.7049 62.8494 28.7275 62.8071 28.7608 62.774L47.9359 43.6573C47.9806 43.6133 48.0409 43.5888 48.1037 43.589C48.1665 43.5892 48.2267 43.6142 48.2711 43.6584C48.3155 43.7027 48.3406 43.7627 48.3408 43.8253C48.341 43.8879 48.3164 43.9481 48.2723 43.9927L29.0972 63.1093C29.0751 63.1314 29.0489 63.1488 29.02 63.1608C28.9912 63.1727 28.9602 63.1788 28.929 63.1788Z" fill="#3F3D56"/>
<path d="M11.5888 147.889C11.6302 147.921 11.6737 147.95 11.7155 147.981L47.181 147.981C47.876 145.174 48.1213 142.364 47.0833 139.924C45.6044 136.446 41.2273 134.276 37.7475 135.769C36.923 136.132 36.2048 136.699 35.6604 137.415C34.3005 134.988 31.8612 133.159 29.0454 133.161C25.5178 133.163 22.5848 136.039 21.6277 139.361C20.0863 136.768 17.0419 134.955 14.0662 135.735C9.08912 137.039 7.51705 144.752 11.5888 147.889Z" fill="#F2F2F2"/>
<path d="M151.396 93.0313C151.396 81.5857 160.71 54.4257 172.198 54.4257C183.687 54.4257 193 81.5857 193 93.0313C192.996 98.5287 190.802 103.8 186.902 107.685C183.001 111.571 177.712 113.754 172.198 113.754C166.684 113.754 161.395 111.571 157.495 107.685C153.594 103.8 151.401 98.5287 151.396 93.0313Z" fill="#E6E6E6"/>
<path d="M172.198 143.451C172.176 143.451 172.153 143.447 172.133 143.438C172.112 143.429 172.093 143.417 172.077 143.401C172.061 143.385 172.049 143.366 172.04 143.346C172.031 143.325 172.027 143.303 172.027 143.281L172.027 71.8303C172.027 71.7852 172.045 71.742 172.077 71.7101C172.109 71.6783 172.153 71.6604 172.198 71.6604C172.243 71.6604 172.287 71.6783 172.319 71.7101C172.351 71.742 172.369 71.7852 172.369 71.8303L172.369 143.281C172.369 143.303 172.365 143.325 172.356 143.346C172.347 143.366 172.335 143.385 172.319 143.401C172.303 143.417 172.284 143.429 172.264 143.438C172.243 143.447 172.221 143.451 172.198 143.451Z" fill="#3F3D56"/>
<path d="M172.198 85.6242C172.176 85.6243 172.153 85.6199 172.133 85.6113C172.112 85.6027 172.093 85.5902 172.077 85.5743L163.844 77.3718C163.812 77.3398 163.794 77.2964 163.794 77.2512C163.794 77.206 163.812 77.1626 163.844 77.1307C163.876 77.0987 163.92 77.0808 163.965 77.0808C164.01 77.0808 164.054 77.0988 164.086 77.1308L172.319 85.3334C172.343 85.3572 172.359 85.3876 172.366 85.4206C172.372 85.4537 172.369 85.488 172.356 85.5191C172.343 85.5502 172.321 85.5768 172.293 85.5956C172.265 85.6143 172.232 85.6243 172.198 85.6243L172.198 85.6242Z" fill="#3F3D56"/>
<path d="M172.198 99.8245C172.164 99.8245 172.131 99.8145 172.103 99.7958C172.075 99.7771 172.053 99.7505 172.04 99.7194C172.027 99.6882 172.024 99.654 172.03 99.6209C172.037 99.5878 172.053 99.5575 172.077 99.5336L185.865 85.7968C185.897 85.7648 185.941 85.7468 185.986 85.7468C186.032 85.7468 186.075 85.7647 186.107 85.7967C186.139 85.8287 186.157 85.872 186.157 85.9172C186.157 85.9624 186.139 86.0058 186.107 86.0378L172.319 99.7746C172.303 99.7904 172.284 99.803 172.264 99.8116C172.243 99.8201 172.221 99.8245 172.198 99.8245Z" fill="#3F3D56"/>
<path d="M159.823 147.915C159.853 147.938 159.884 147.958 159.915 147.981L185.417 147.981C185.916 145.964 186.093 143.945 185.346 142.191C184.283 139.692 181.135 138.133 178.633 139.206C178.04 139.467 177.524 139.874 177.133 140.389C176.155 138.645 174.401 137.33 172.376 137.331C169.839 137.333 167.73 139.4 167.042 141.787C165.934 139.923 163.745 138.621 161.605 139.181C158.026 140.118 156.896 145.661 159.823 147.915Z" fill="#F2F2F2"/>
<path d="M149.826 147.981L59.1951 147.981C59.132 147.981 59.0715 147.956 59.0269 147.911C58.9823 147.867 58.9572 147.807 58.9572 147.744C58.9572 147.681 58.9823 147.62 59.0269 147.576C59.0715 147.531 59.132 147.506 59.1951 147.506L149.826 147.506C149.889 147.506 149.949 147.531 149.994 147.576C150.038 147.62 150.063 147.681 150.063 147.744C150.063 147.807 150.038 147.867 149.994 147.911C149.949 147.956 149.889 147.981 149.826 147.981Z" fill="#3F3D56"/>
<path d="M106.925 83.0405C107.096 83.0038 107.257 82.9281 107.394 82.8193C107.532 82.7104 107.642 82.5714 107.716 82.413L110.708 76.1073C110.822 75.8668 110.848 75.5942 110.782 75.3366C110.715 75.0789 110.561 74.8524 110.345 74.696L106.887 72.1927C106.667 72.0316 106.396 71.9549 106.124 71.9765C105.851 71.9981 105.596 72.1167 105.404 72.3105L100.831 76.8879C100.719 76.9998 100.632 77.1335 100.575 77.2807C100.518 77.428 100.492 77.5854 100.499 77.7431C100.505 77.9009 100.545 78.0554 100.615 78.1971C100.685 78.3388 100.784 78.4644 100.905 78.5661L105.944 82.798C106.077 82.9109 106.236 82.9916 106.406 83.0337C106.576 83.0757 106.753 83.0781 106.925 83.0405Z" fill="#0E8993"/>
<path d="M125.877 142.823L122.867 143.64L118.277 132.455L122.718 131.251L125.877 142.823Z" fill="#FFB8B8"/>
<path d="M117.823 148L127.282 145.434L126.287 141.791L120.246 143.43C119.34 143.676 118.569 144.27 118.102 145.083C117.636 145.896 117.512 146.86 117.759 147.763L117.823 148Z" fill="#2F2E41"/>
<path d="M100.149 145.113L97.0299 145.112L95.5461 133.119L100.149 133.119L100.149 145.113Z" fill="#FFB8B8"/>
<path d="M91.0146 148L100.817 148L100.817 144.224L94.556 144.224C93.6168 144.224 92.7161 144.596 92.052 145.258C91.3878 145.92 91.0147 146.818 91.0147 147.754L91.0146 148Z" fill="#2F2E41"/>
<path d="M100.429 64.1017C97.9886 61.669 97.9886 57.7248 100.429 55.2921C102.869 52.8594 106.825 52.8594 109.265 55.2921C111.705 57.7248 111.705 61.669 109.265 64.1017C106.825 66.5344 102.869 66.5344 100.429 64.1017Z" fill="#FFB8B8"/>
<path d="M101.092 135.575L104.585 110.114C104.611 109.925 104.697 109.75 104.831 109.614C104.965 109.477 105.139 109.388 105.328 109.358C105.517 109.328 105.711 109.36 105.88 109.448C106.049 109.537 106.186 109.677 106.269 109.849L118.155 134.427C118.276 134.674 118.482 134.87 118.735 134.978C118.989 135.087 119.273 135.101 119.535 135.019L124.116 133.557C124.4 133.468 124.637 133.272 124.778 133.01C124.918 132.749 124.951 132.443 124.869 132.158C119.297 112.547 114.486 97.9562 109.118 90.4931C109.097 90.4641 109.075 90.4367 109.052 90.4096L107.862 89.0249C107.754 88.8998 107.621 88.7994 107.471 88.7306C107.321 88.6618 107.158 88.6262 106.992 88.6263L98.2277 88.6263C97.9987 88.6256 97.7748 88.6937 97.5852 88.8217C97.3956 88.9496 97.2491 89.1316 97.1647 89.3439L96.9365 89.9128C96.9181 89.9584 96.9026 90.0052 96.8901 90.0527C94.0251 100.924 93.2822 115.363 94.5522 135.491C94.5709 135.78 94.6995 136.052 94.9119 136.251C95.1243 136.45 95.4045 136.561 95.6959 136.562L99.958 136.562C100.235 136.561 100.501 136.46 100.71 136.279C100.918 136.098 101.054 135.848 101.092 135.575Z" fill="#2F2E41"/>
<path d="M109.541 89.9761C110.804 87.9615 116.829 77.554 111.421 70.5052C111.324 70.3805 111.261 70.2326 111.239 70.0762L111.025 68.4371C111.005 68.2839 110.955 68.1363 110.876 68.0033C110.797 67.8703 110.692 67.7546 110.567 67.6633C110.442 67.5719 110.3 67.5069 110.149 67.4721C109.998 67.4373 109.842 67.4334 109.689 67.4607C107.809 67.8018 104.268 68.8742 101.675 72.2234C101.551 72.3847 101.473 72.5761 101.449 72.7777L101.305 73.9192C101.287 74.0694 101.231 74.2123 101.141 74.3342C101.052 74.4561 100.932 74.5528 100.794 74.615C99.1395 75.3637 95.4382 78.2814 96.7878 89.1724C96.8201 89.4435 96.9492 89.6939 97.1513 89.8781C97.3535 90.0622 97.6153 90.1677 97.889 90.1753L108.535 90.5104C108.547 90.5106 108.559 90.5109 108.571 90.5109C108.765 90.5107 108.956 90.4616 109.125 90.3681C109.295 90.2746 109.438 90.1397 109.541 89.9761Z" fill="#0E8993"/>
<path d="M113.859 106.668C114.129 106.375 114.332 106.026 114.453 105.646C114.573 105.267 114.609 104.865 114.557 104.47C114.505 104.075 114.367 103.696 114.152 103.36C113.938 103.024 113.652 102.739 113.315 102.526L110.133 78.8474L104.555 80.893L109.414 103.512C109.091 104.101 108.996 104.787 109.146 105.44C109.297 106.094 109.682 106.67 110.23 107.059C110.778 107.448 111.45 107.623 112.119 107.551C112.788 107.479 113.407 107.165 113.859 106.668Z" fill="#FFB8B8"/>
<path d="M111.853 81.7575C111.97 81.6272 112.055 81.4717 112.102 81.3031C112.148 81.1345 112.155 80.9574 112.122 80.7857L110.814 73.9332C110.764 73.672 110.624 73.4363 110.419 73.2669C110.213 73.0975 109.954 73.005 109.688 73.0054L105.414 73.0127C105.141 73.0119 104.876 73.1091 104.669 73.2865C104.462 73.4639 104.325 73.7097 104.285 73.9791L103.294 80.3633C103.269 80.5193 103.278 80.6786 103.318 80.8312C103.359 80.9838 103.431 81.1263 103.53 81.2497C103.629 81.3731 103.752 81.4747 103.892 81.5482C104.032 81.6216 104.186 81.6652 104.344 81.6763L110.917 82.1375C111.092 82.1503 111.267 82.1227 111.429 82.0567C111.592 81.9908 111.737 81.8884 111.853 81.7575L111.853 81.7575Z" fill="#0E8993"/>
<path d="M111.722 55.8227C111.258 54.4201 110.915 52.9805 110.698 51.5195C110.629 50.669 110.848 49.7538 111.469 49.167C112.632 48.0687 114.608 48.5918 115.824 49.6312C117.581 51.1334 118.457 53.4419 118.789 55.7259C119.12 58.01 118.974 60.3326 119.054 62.6391C119.134 64.9455 119.464 67.317 120.644 69.3028C121.823 71.2886 124.012 72.8129 126.321 72.6439C127.253 72.5936 128.137 72.2198 128.822 71.5872C129.158 71.2686 129.412 70.8744 129.564 70.4376C129.715 70.0008 129.759 69.5341 129.693 69.0768C130.873 71.1832 130.275 74.0381 128.514 75.6941C126.754 77.35 124.047 77.8181 121.733 77.1111C119.42 76.4041 117.515 74.6313 116.378 72.5018C115.24 70.3722 114.823 67.9122 114.884 65.5003C114.93 63.6481 115.246 61.7808 114.932 59.9546C114.618 58.1285 113.472 56.2744 111.664 55.8443L111.722 55.8227Z" fill="#2F2E41"/>
<path d="M105.88 65.4879C106.125 65.1002 106.284 64.6644 106.345 64.2101C106.406 63.7558 106.369 63.2937 106.235 62.8552C106.101 62.4167 105.874 62.0121 105.569 61.669C105.264 61.3258 104.889 61.0522 104.468 60.8667C103.335 60.3668 102.025 60.558 100.809 60.3208C98.6305 59.8957 96.8371 57.9119 96.7077 55.7027C96.5783 53.4934 98.1774 51.2854 100.338 50.778C101.2 50.5756 102.099 50.6233 102.983 50.672C103.832 50.7189 104.682 50.7658 105.527 50.8624C107.199 51.0534 108.89 51.4571 110.282 52.4007C111.673 53.3443 112.724 54.9069 112.706 56.5845C112.685 58.4993 111.779 62.311 110.52 63.7566C109.304 65.1512 108.379 65.6538 106.45 65.7488L105.88 65.4879Z" fill="#2F2E41"/>
<path d="M82.385 88.4661L85.3199 88.4661L85.3199 85.5402C85.3199 85.4458 85.3575 85.3553 85.4244 85.2886C85.4913 85.2219 85.5821 85.1844 85.6767 85.1844C85.7713 85.1844 85.8621 85.2219 85.929 85.2886C85.9959 85.3553 86.0335 85.4458 86.0335 85.5402L86.0335 88.4661L88.9684 88.4661C89.063 88.4661 89.1538 88.5036 89.2207 88.5703C89.2876 88.637 89.3252 88.7275 89.3252 88.8218C89.3252 88.9162 89.2876 89.0066 89.2207 89.0734C89.1538 89.1401 89.063 89.1775 88.9684 89.1775L86.0335 89.1775L86.0335 92.1035C86.0335 92.1978 85.9959 92.2883 85.929 92.355C85.8621 92.4217 85.7713 92.4592 85.6767 92.4592C85.5821 92.4592 85.4913 92.4217 85.4244 92.355C85.3575 92.2883 85.3199 92.1978 85.3199 92.1035L85.3199 89.1775L82.385 89.1775C82.2904 89.1775 82.1996 89.1401 82.1327 89.0734C82.0658 89.0066 82.0282 88.9162 82.0282 88.8218C82.0282 88.7275 82.0658 88.637 82.1327 88.5703C82.1996 88.5036 82.2904 88.4661 82.385 88.4661Z" fill="#0E8993"/>
<path d="M90.7102 43.1707L93.6451 43.1707L93.6451 40.2448C93.6451 40.1504 93.6827 40.0599 93.7496 39.9932C93.8165 39.9265 93.9073 39.889 94.0019 39.889C94.0965 39.889 94.1873 39.9265 94.2542 39.9932C94.3211 40.0599 94.3587 40.1504 94.3587 40.2448L94.3587 43.1707L97.2936 43.1707C97.3882 43.1707 97.479 43.2082 97.5459 43.2749C97.6128 43.3416 97.6504 43.4321 97.6504 43.5264C97.6504 43.6207 97.6128 43.7112 97.5459 43.7779C97.479 43.8446 97.3882 43.8821 97.2936 43.8821L94.3587 43.8821L94.3587 46.808C94.3587 46.9024 94.3211 46.9929 94.2542 47.0596C94.1873 47.1263 94.0965 47.1638 94.0019 47.1638C93.9073 47.1638 93.8165 47.1263 93.7496 47.0596C93.6827 46.9929 93.6451 46.9024 93.6451 46.808L93.6451 43.8821L90.7102 43.8821C90.6156 43.8821 90.5248 43.8446 90.4579 43.7779C90.391 43.7112 90.3534 43.6207 90.3534 43.5264C90.3534 43.4321 90.391 43.3416 90.4579 43.2749C90.5248 43.2082 90.6156 43.1707 90.7102 43.1707Z" fill="#0E8993"/>
<path d="M128.771 56.4509L131.706 56.4509L131.706 53.525C131.706 53.4307 131.743 53.3402 131.81 53.2735C131.877 53.2068 131.968 53.1693 132.062 53.1693C132.157 53.1693 132.248 53.2068 132.315 53.2735C132.382 53.3402 132.419 53.4307 132.419 53.525L132.419 56.4509L135.354 56.4509C135.449 56.4509 135.54 56.4884 135.606 56.5551C135.673 56.6218 135.711 56.7123 135.711 56.8067C135.711 56.901 135.673 56.9915 135.606 57.0582C135.54 57.1249 135.449 57.1624 135.354 57.1624L132.419 57.1624L132.419 60.0883C132.419 60.1826 132.382 60.2731 132.315 60.3398C132.248 60.4066 132.157 60.444 132.062 60.444C131.968 60.444 131.877 60.4066 131.81 60.3398C131.743 60.2731 131.706 60.1826 131.706 60.0883L131.706 57.1624L128.771 57.1624C128.676 57.1624 128.585 57.1249 128.518 57.0582C128.452 56.9915 128.414 56.901 128.414 56.8067C128.414 56.7123 128.452 56.6218 128.518 56.5551C128.585 56.4884 128.676 56.4509 128.771 56.4509Z" fill="#0E8993"/>
</g>
<defs>
<clipPath id="clip0">
<rect width="193" height="148" fill="white" transform="matrix(-1 -8.74228e-08 -8.74228e-08 1 193 0)"/>
</clipPath>
</defs>
</svg>
