<svg width="38" height="38" viewBox="0 0 38 38" fill="none" xmlns="http://www.w3.org/2000/svg">
<path d="M16.9339 14.1504V16.3307H15.3379V18.9954H16.9339V26.9168H20.2146V18.9954H22.4154C22.4154 18.9954 22.6228 17.7177 22.7226 16.3196H20.2272V14.4987C20.2272 14.2248 20.5851 13.8591 20.9397 13.8591H22.7257V11.0835H20.2953C16.8531 11.0835 16.9339 13.7514 16.9339 14.1504Z" fill="#A2F8FE"/>
<path d="M9.50033 6.33317C8.66047 6.33317 7.85502 6.6668 7.26115 7.26067C6.66729 7.85453 6.33366 8.65999 6.33366 9.49984V28.4998C6.33366 29.3397 6.66729 30.1451 7.26115 30.739C7.85502 31.3329 8.66047 31.6665 9.50033 31.6665H28.5003C29.3402 31.6665 30.1456 31.3329 30.7395 30.739C31.3334 30.1451 31.667 29.3397 31.667 28.4998V9.49984C31.667 8.65999 31.3334 7.85453 30.7395 7.26067C30.1456 6.6668 29.3402 6.33317 28.5003 6.33317H9.50033ZM9.50033 3.1665H28.5003C30.18 3.1665 31.7909 3.83376 32.9787 5.02149C34.1664 6.20922 34.8337 7.82013 34.8337 9.49984V28.4998C34.8337 30.1795 34.1664 31.7905 32.9787 32.9782C31.7909 34.1659 30.18 34.8332 28.5003 34.8332H9.50033C7.82062 34.8332 6.20971 34.1659 5.02198 32.9782C3.83425 31.7905 3.16699 30.1795 3.16699 28.4998V9.49984C3.16699 7.82013 3.83425 6.20922 5.02198 5.02149C6.20971 3.83376 7.82062 3.1665 9.50033 3.1665Z" fill="#A2F8FE"/>
</svg>
