<svg width="414" height="320" viewBox="0 0 414 320" fill="none" xmlns="http://www.w3.org/2000/svg">
<g clip-path="url(#clip0)">
<path d="M396.846 279.99C395.202 266.764 387.009 253.732 374.401 249.428C379.373 263.041 379.372 277.975 374.398 291.588C372.461 296.831 369.76 302.46 371.583 307.744C372.716 311.032 375.49 313.547 378.591 315.12C381.691 316.693 385.133 317.443 388.531 318.178L389.199 318.731C394.594 306.545 398.49 293.216 396.846 279.99Z" fill="#044D57"/>
<path d="M374.276 249.678C381.618 257.909 386.182 268.244 387.318 279.217C387.604 281.575 387.518 283.963 387.061 286.294C386.543 288.551 385.43 290.627 383.838 292.307C382.386 293.904 380.715 295.369 379.676 297.291C379.158 298.283 378.856 299.373 378.79 300.489C378.723 301.606 378.893 302.724 379.288 303.771C380.206 306.404 382.014 308.55 383.856 310.587C385.9 312.849 388.06 315.166 388.929 318.165C389.034 318.528 389.592 318.344 389.487 317.981C387.975 312.763 382.912 309.8 380.498 305.101C379.371 302.908 378.898 300.362 379.955 298.047C380.878 296.023 382.6 294.511 384.084 292.907C385.661 291.291 386.818 289.313 387.454 287.146C388.028 284.846 388.207 282.465 387.982 280.105C387.562 274.783 386.307 269.561 384.265 264.63C381.966 258.989 378.718 253.783 374.664 249.237C374.413 248.956 374.026 249.399 374.276 249.678H374.276Z" fill="#A2F8FE"/>
<path d="M387.16 275.662C388.974 275.222 390.573 274.15 391.671 272.639C392.768 271.128 393.293 269.276 393.152 267.414C393.122 267.037 392.535 267.066 392.565 267.443C392.7 269.177 392.211 270.902 391.186 272.307C390.161 273.712 388.668 274.704 386.976 275.105C386.608 275.192 386.795 275.749 387.16 275.662Z" fill="#A2F8FE"/>
<path d="M384.682 291.595C381.405 289.637 378.986 286.516 377.907 282.853C377.8 282.49 377.243 282.675 377.349 283.038C378.479 286.847 381.003 290.09 384.417 292.119C384.743 292.312 385.005 291.787 384.682 291.595Z" fill="#A2F8FE"/>
<path d="M381.42 259.545C380.754 259.862 380.019 260.009 379.282 259.971C378.545 259.934 377.829 259.714 377.198 259.331C376.875 259.134 376.613 259.66 376.934 259.856C377.633 260.275 378.424 260.517 379.239 260.56C380.053 260.604 380.865 260.447 381.605 260.103C381.677 260.077 381.737 260.024 381.771 259.955C381.806 259.886 381.813 259.806 381.791 259.732C381.766 259.659 381.714 259.598 381.644 259.563C381.575 259.528 381.494 259.521 381.42 259.545Z" fill="#A2F8FE"/>
<path d="M335.97 273.051C336.168 273.18 336.366 273.309 336.564 273.443C339.22 275.19 341.729 277.149 344.067 279.303C344.25 279.466 344.434 279.635 344.612 279.804C350.189 285.051 354.745 291.29 358.046 298.201C359.357 300.953 360.457 303.8 361.336 306.719C362.55 310.749 363.546 315.216 365.95 318.513C366.197 318.859 366.465 319.191 366.752 319.504H388.472C388.521 319.479 388.571 319.46 388.62 319.435L389.488 319.474C389.453 319.321 389.413 319.162 389.379 319.008C389.359 318.919 389.334 318.83 389.314 318.741C389.299 318.681 389.284 318.622 389.274 318.567C389.27 318.547 389.265 318.528 389.26 318.513C389.25 318.458 389.235 318.409 389.225 318.359C389.007 317.472 388.782 316.584 388.551 315.697C388.551 315.692 388.551 315.692 388.546 315.687C386.767 308.93 384.408 302.262 381.113 296.164C381.014 295.98 380.915 295.792 380.806 295.608C379.305 292.868 377.583 290.255 375.657 287.795C374.598 286.452 373.472 285.163 372.283 283.933C369.203 280.762 365.645 278.095 361.738 276.031C353.948 271.916 344.929 270.339 336.604 272.853C336.391 272.917 336.183 272.982 335.97 273.051Z" fill="#0E8993"/>
<path d="M336.018 273.327C346.834 275.476 356.697 280.98 364.208 289.057C365.856 290.767 367.224 292.726 368.262 294.862C369.206 296.976 369.567 299.304 369.307 301.604C369.108 303.754 368.656 305.93 368.983 308.091C369.167 309.194 369.582 310.246 370.2 311.178C370.819 312.11 371.628 312.901 372.573 313.498C374.89 315.048 377.626 315.672 380.322 316.189C383.316 316.764 386.435 317.313 388.933 319.184C389.236 319.41 389.57 318.927 389.268 318.701C384.921 315.446 379.095 316.129 374.339 313.831C372.12 312.759 370.211 311.011 369.661 308.527C369.18 306.354 369.645 304.11 369.865 301.935C370.151 299.695 369.885 297.418 369.089 295.305C368.163 293.123 366.872 291.114 365.273 289.365C361.735 285.37 357.59 281.956 352.992 279.248C347.762 276.129 342.036 273.929 336.064 272.741C335.694 272.668 335.651 273.254 336.018 273.327Z" fill="#A2F8FE"/>
<path d="M361.944 286.314C363.127 284.869 363.759 283.05 363.726 281.183C363.693 279.315 362.997 277.52 361.764 276.118C361.513 275.836 361.062 276.212 361.313 276.495C362.464 277.798 363.112 279.47 363.139 281.21C363.166 282.949 362.571 284.64 361.461 285.979C361.22 286.27 361.704 286.603 361.944 286.314H361.944Z" fill="#A2F8FE"/>
<path d="M369.552 300.527C365.758 300.938 361.948 299.903 358.883 297.629C358.579 297.403 358.245 297.886 358.548 298.112C361.743 300.473 365.709 301.542 369.657 301.105C370.033 301.064 369.926 300.486 369.552 300.527Z" fill="#A2F8FE"/>
<path d="M347.663 276.902C347.321 277.556 346.823 278.116 346.212 278.53C345.601 278.944 344.896 279.199 344.162 279.274C343.786 279.311 343.893 279.889 344.267 279.852C345.078 279.766 345.855 279.482 346.531 279.027C347.207 278.571 347.761 277.956 348.145 277.236C348.187 277.172 348.203 277.093 348.189 277.017C348.175 276.941 348.133 276.874 348.071 276.828C348.007 276.784 347.928 276.767 347.852 276.781C347.775 276.795 347.707 276.838 347.663 276.902Z" fill="#A2F8FE"/>
<path d="M300.999 47.5836L41.7923 0.0716414C41.2646 -0.0298552 40.7219 -0.0234459 40.1967 0.0904814C39.7204 0.194849 39.2732 0.403807 38.8875 0.70225C38.5105 0.996457 38.2071 1.37446 38.0015 1.80632C37.7827 2.27273 37.6714 2.78236 37.6759 3.29757V235.624C37.6711 236.139 37.782 236.649 38.0005 237.115C38.2058 237.547 38.5088 237.925 38.8855 238.22C39.271 238.519 39.718 238.728 40.1942 238.833C40.7193 238.947 41.2621 238.954 41.7899 238.852L300.999 191.34C301.214 191.296 301.413 191.195 301.575 191.048C301.765 190.878 301.924 190.677 302.045 190.453C302.185 190.197 302.291 189.924 302.36 189.641C302.437 189.333 302.476 189.017 302.476 188.699V50.2325C302.476 49.9141 302.438 49.5969 302.361 49.288C302.291 49.0047 302.185 48.7317 302.045 48.476C301.924 48.252 301.765 48.0507 301.576 47.8811C301.413 47.7337 301.214 47.6325 300.999 47.5881L300.999 47.5836Z" fill="#E4E4E4"/>
<path d="M304.963 47.5836L45.7562 0.0716414C45.2285 -0.0298552 44.6857 -0.0234459 44.1606 0.0904814C43.6843 0.194849 43.2371 0.403807 42.8514 0.70225C42.4744 0.996457 42.171 1.37446 41.9654 1.80632C41.7466 2.27273 41.6353 2.78236 41.6398 3.29757V235.624C41.635 236.139 41.7459 236.649 41.9644 237.115C42.1697 237.547 42.4727 237.925 42.8494 238.22C43.2349 238.519 43.6819 238.728 44.1581 238.833C44.6832 238.947 45.226 238.954 45.7537 238.852L304.963 191.34C305.178 191.296 305.377 191.195 305.539 191.048C305.729 190.878 305.888 190.677 306.008 190.453C306.149 190.197 306.255 189.924 306.324 189.641C306.401 189.333 306.44 189.017 306.44 188.699V50.2325C306.44 49.9141 306.401 49.5969 306.325 49.288C306.255 49.0047 306.149 48.7317 306.009 48.476C305.888 48.252 305.729 48.0507 305.54 47.8811C305.377 47.7337 305.178 47.6325 304.963 47.5881L304.963 47.5836Z" fill="#F5FDFE"/>
<path d="M304.963 47.5836L45.7562 0.0716414C45.2285 -0.0298552 44.6857 -0.0234459 44.1606 0.0904814C43.6843 0.194849 43.2371 0.403807 42.8514 0.70225C42.4744 0.996457 42.171 1.37446 41.9654 1.80632C41.7466 2.27273 41.6353 2.78236 41.6398 3.29757V235.624C41.635 236.139 41.7459 236.649 41.9644 237.115C42.1697 237.547 42.4727 237.925 42.8494 238.22C43.2349 238.519 43.6819 238.728 44.1581 238.833C44.6832 238.947 45.226 238.954 45.7537 238.852L304.963 191.34C305.178 191.296 305.377 191.195 305.539 191.048C305.729 190.878 305.888 190.677 306.008 190.453C306.149 190.197 306.255 189.924 306.324 189.641C306.401 189.333 306.44 189.017 306.44 188.699V50.2325C306.44 49.9141 306.401 49.5969 306.325 49.288C306.255 49.0047 306.149 48.7317 306.009 48.476C305.888 48.252 305.729 48.0507 305.54 47.8811C305.377 47.7337 305.178 47.6325 304.963 47.5881L304.963 47.5836ZM305.949 188.783C305.949 188.995 305.923 189.207 305.872 189.413C305.825 189.603 305.755 189.785 305.661 189.955C305.58 190.105 305.474 190.239 305.348 190.352C305.239 190.45 305.107 190.517 304.964 190.546L45.7587 237.531C45.407 237.598 45.0454 237.593 44.6958 237.516C44.3789 237.446 44.0815 237.306 43.8251 237.107C43.5745 236.911 43.373 236.659 43.2364 236.372C43.0913 236.061 43.0175 235.723 43.0204 235.38V3.54446C43.0174 3.202 43.091 2.86321 43.2359 2.55293C43.3722 2.26505 43.5736 2.01285 43.8241 1.81623C44.0803 1.61697 44.3775 1.47711 44.6943 1.40673C45.0439 1.32986 45.4055 1.32463 45.7572 1.39136L304.964 48.3778C305.107 48.4071 305.239 48.4742 305.348 48.5721C305.474 48.6852 305.58 48.8194 305.661 48.9688C305.755 49.1392 305.826 49.3212 305.872 49.5101C305.924 49.7164 305.949 49.9282 305.949 50.1407V188.782L305.949 188.783Z" fill="#CACACA"/>
<path d="M0.000335661 72.5145C-0.0121338 70.9296 0.322957 69.3611 0.981994 67.9198C1.59792 66.5883 2.50817 65.4142 3.64401 64.4861C4.78736 63.5583 6.12218 62.8958 7.5523 62.5462C9.09955 62.1728 10.7074 62.1244 12.2743 62.4039C13.9177 62.6902 15.4947 63.2758 16.9269 64.1317C18.3417 64.9739 19.6082 66.0435 20.6756 67.2976C21.734 68.5338 22.5797 69.9375 23.1781 71.4511C23.7744 72.9531 24.084 74.5536 24.0908 76.1698C24.1019 77.6982 23.7909 79.2118 23.1781 80.6118C22.6025 81.9129 21.7482 83.0715 20.6756 84.0058C19.5884 84.9468 18.3091 85.6392 16.9269 86.0345C15.4147 86.4616 13.8303 86.5693 12.2743 86.3508C10.6168 86.1223 9.01633 85.5871 7.55478 84.7723C6.08636 83.9571 4.76563 82.9004 3.64797 81.6465C2.52559 80.3951 1.62513 78.961 0.985457 77.4062C0.344053 75.8547 0.0095052 74.1935 0.000335661 72.5145Z" fill="#E4E4E4"/>
<path d="M0.000335661 120.604C-0.0121338 119.019 0.322957 117.45 0.981994 116.009C1.59792 114.677 2.50817 113.503 3.64401 112.575C4.78736 111.647 6.12218 110.985 7.5523 110.635C9.09955 110.262 10.7074 110.213 12.2743 110.493C13.9177 110.779 15.4947 111.365 16.9269 112.221C18.3417 113.063 19.6082 114.133 20.6756 115.387C21.734 116.623 22.5797 118.026 23.1781 119.54C23.7744 121.042 24.084 122.643 24.0908 124.259C24.1019 125.787 23.7909 127.301 23.1781 128.701C22.6025 130.002 21.7482 131.161 20.6756 132.095C19.5884 133.036 18.3091 133.728 16.9269 134.123C15.4147 134.551 13.8303 134.658 12.2743 134.44C10.6168 134.211 9.01633 133.676 7.55478 132.861C6.08636 132.046 4.76563 130.989 3.64797 129.735C2.52559 128.484 1.62513 127.05 0.985457 125.495C0.344053 123.944 0.0095052 122.282 0.000335661 120.604Z" fill="#E4E4E4"/>
<path d="M0.000335661 168.693C-0.0121338 167.108 0.322957 165.539 0.981994 164.098C1.59792 162.766 2.50817 161.592 3.64401 160.664C4.78736 159.736 6.12218 159.074 7.5523 158.724C9.09955 158.351 10.7074 158.302 12.2743 158.582C13.9177 158.868 15.4947 159.454 16.9269 160.31C18.3417 161.152 19.6082 162.222 20.6756 163.476C21.734 164.712 22.5797 166.116 23.1781 167.629C23.7744 169.131 24.084 170.732 24.0908 172.348C24.1019 173.876 23.7909 175.39 23.1781 176.79C22.6025 178.091 21.7482 179.25 20.6756 180.184C19.5884 181.125 18.3091 181.817 16.9269 182.213C15.4147 182.64 13.8303 182.747 12.2743 182.529C10.6168 182.3 9.01633 181.765 7.55478 180.95C6.08636 180.135 4.76563 179.078 3.64797 177.825C2.52559 176.573 1.62513 175.139 0.985457 173.584C0.344053 172.033 0.0095052 170.372 0.000335661 168.693Z" fill="#E4E4E4"/>
<path d="M2.97397 72.5145C2.9615 70.9296 3.29659 69.3611 3.95563 67.9198C4.57156 66.5883 5.4818 65.4142 6.61765 64.4861C7.76099 63.5583 9.09581 62.8958 10.5259 62.5462C12.0732 62.1728 13.681 62.1244 15.2479 62.4039C16.8914 62.6902 18.4683 63.2758 19.9005 64.1317C21.3153 64.9739 22.5819 66.0435 23.6492 67.2976C24.7076 68.5338 25.5533 69.9375 26.1517 71.4511C26.748 72.9531 27.0577 74.5536 27.0645 76.1698C27.0756 77.6982 26.7646 79.2118 26.1517 80.6118C25.5761 81.9129 24.7218 83.0715 23.6492 84.0058C22.5621 84.9468 21.2827 85.6392 19.9005 86.0345C18.3883 86.4616 16.8039 86.5693 15.2479 86.3508C13.5904 86.1223 11.99 85.5871 10.5284 84.7723C9.06 83.9571 7.73926 82.9004 6.62161 81.6465C5.49922 80.3951 4.59877 78.961 3.95909 77.4062C3.31769 75.8547 2.98314 74.1935 2.97397 72.5145Z" fill="#0E8993"/>
<path d="M2.97376 120.276C2.96617 118.667 3.3008 117.076 3.95542 115.607C4.57705 114.223 5.48424 112.986 6.61744 111.978C7.75091 110.97 9.08203 110.21 10.5257 109.747C12.0495 109.262 13.6567 109.094 15.2477 109.256C16.8727 109.415 18.4522 109.884 19.9003 110.639C21.3105 111.373 22.5796 112.351 23.649 113.528C24.7111 114.692 25.5584 116.034 26.1515 117.494C26.7522 118.973 27.0619 120.554 27.0638 122.151C27.0706 123.701 26.76 125.237 26.151 126.662C25.5671 128.019 24.711 129.241 23.6357 130.254C22.5604 131.266 21.2889 132.046 19.8998 132.547C18.4102 133.082 16.8268 133.307 15.2472 133.207C13.6094 133.106 12.0066 132.689 10.5277 131.977C7.57521 130.557 5.2404 128.11 3.95938 125.094C3.31377 123.569 2.97868 121.931 2.97376 120.276Z" fill="#0E8993"/>
<path d="M2.97364 168.037C2.97161 166.437 3.29339 164.853 3.9196 163.381C4.5458 161.908 5.46348 160.578 6.61732 159.47C8.03618 158.111 9.76447 157.118 11.6529 156.576C13.5413 156.035 15.533 155.962 17.4559 156.364C19.3789 156.765 21.1752 157.629 22.6898 158.88C24.2043 160.132 25.3916 161.733 26.1489 163.547C26.8933 165.351 27.1845 167.311 26.9971 169.254C26.8097 171.197 26.1494 173.065 25.0739 174.694C23.9984 176.323 22.5405 177.663 20.8275 178.598C19.1146 179.533 17.1988 180.034 15.2476 180.057C12.8588 180.092 10.513 179.421 8.50466 178.126C6.49632 176.832 4.915 174.973 3.95926 172.782C3.30922 171.285 2.97374 169.67 2.97364 168.037Z" fill="#0E8993"/>
<path d="M10.4611 72.46L14.0597 73.0133V69.4636C14.058 69.31 14.0894 69.1578 14.1518 69.0174C14.2102 68.8877 14.2971 68.7728 14.406 68.6813C14.516 68.5895 14.645 68.5233 14.7836 68.4874C14.9347 68.4488 15.0922 68.4421 15.246 68.4676C15.4089 68.4939 15.5657 68.5501 15.7083 68.6332C15.8505 68.7158 15.9781 68.8213 16.0859 68.9455C16.1935 69.0686 16.2798 69.2089 16.3411 69.3605C16.4023 69.5109 16.4344 69.6715 16.4358 69.8339V73.3786L19.966 73.9205C20.1263 73.9458 20.2806 74.0008 20.4209 74.0826C20.7021 74.246 20.9208 74.4986 21.0423 74.8005C21.1021 74.9498 21.1333 75.1091 21.1339 75.27C21.1351 75.4221 21.1038 75.5726 21.0423 75.7117C20.9854 75.84 20.9007 75.9541 20.7945 76.0458C20.6866 76.1375 20.5599 76.2042 20.4233 76.2412C20.275 76.2808 20.1201 76.2889 19.9684 76.265L16.4333 75.736V79.2728C16.4344 79.4264 16.4027 79.5786 16.3401 79.719C16.2816 79.8492 16.1949 79.9648 16.0864 80.0576C15.9768 80.1503 15.8483 80.218 15.7098 80.2559C15.5594 80.2966 15.4021 80.3058 15.248 80.2826C15.0852 80.2589 14.9282 80.2051 14.7851 80.124C14.6428 80.0434 14.515 79.9395 14.407 79.8166C14.2992 79.6946 14.2129 79.5551 14.1518 79.4041C14.0911 79.2533 14.0598 79.0923 14.0597 78.9297V75.38L10.4611 74.8397C10.2958 74.8143 10.1365 74.7586 9.99131 74.6756C9.84684 74.5933 9.71705 74.4876 9.60728 74.3627C9.49816 74.2398 9.41054 74.0993 9.3481 73.9473C9.28589 73.7951 9.25358 73.6323 9.25296 73.4679C9.25177 73.3129 9.28423 73.1594 9.3481 73.0182C9.40803 72.8872 9.4966 72.7713 9.60728 72.6791C9.71919 72.5856 9.85031 72.5179 9.99131 72.4808C10.1448 72.4416 10.3047 72.4345 10.4611 72.46Z" fill="white"/>
<path d="M12.9863 124.403L22.9793 125.128H23.016L18.3297 116.616C18.3006 116.562 18.2589 116.517 18.2083 116.483C18.1834 116.466 18.1566 116.453 18.1285 116.443C18.1002 116.432 18.0707 116.426 18.0408 116.423C18.0117 116.421 17.9823 116.422 17.9536 116.427C17.9259 116.432 17.899 116.441 17.8738 116.454C17.8233 116.479 17.7812 116.518 17.7524 116.567L14.5636 121.811L14.41 122.063L12.9863 124.403Z" fill="white"/>
<path d="M7.2832 123.989L16.0998 124.629L14.41 122.063L14.2881 121.877L12.0721 118.511C12.0328 118.459 11.9839 118.415 11.9279 118.382C11.9007 118.365 11.872 118.352 11.8421 118.341C11.8113 118.33 11.7794 118.322 11.747 118.318C11.7157 118.313 11.6839 118.312 11.6523 118.314C11.6216 118.316 11.5912 118.321 11.5617 118.33C11.5326 118.338 11.5045 118.35 11.4779 118.365C11.4512 118.379 11.4263 118.397 11.4036 118.417L11.3962 118.426L11.3867 118.435L11.3793 118.444L11.3719 118.454L7.2832 123.989Z" fill="white"/>
<path d="M13.9502 115.215C14.1535 115.232 14.3515 115.289 14.5335 115.381C14.7119 115.472 14.8728 115.594 15.0087 115.741C15.1443 115.887 15.2527 116.056 15.3288 116.24C15.4059 116.427 15.4458 116.627 15.4463 116.828C15.4471 117.024 15.4071 117.217 15.3288 117.396C15.2544 117.566 15.1454 117.718 15.0087 117.843C14.8713 117.968 14.7095 118.063 14.5335 118.122C14.3458 118.184 14.1473 118.208 13.9502 118.191C13.7467 118.174 13.5484 118.118 13.366 118.026C13.1867 117.935 13.025 117.814 12.8883 117.667C12.7517 117.52 12.6424 117.351 12.5657 117.166C12.4879 116.979 12.4476 116.778 12.4473 116.575C12.4464 116.379 12.4868 116.184 12.5657 116.005C12.6408 115.835 12.7507 115.683 12.8883 115.559C13.0267 115.434 13.1893 115.34 13.366 115.282C13.5541 115.22 13.7529 115.197 13.9502 115.215Z" fill="white"/>
<path d="M121.785 149.147L220.734 55.2213L221.158 55.965L122.404 149.942L121.785 149.147Z" fill="#E6E6E6"/>
<path d="M121.801 42.6904L122.421 41.9468L221.149 144.483L220.723 145.189L121.801 42.6904Z" fill="#E6E6E6"/>
<path d="M219.733 53.85L123.549 40.63C123.104 40.5665 122.651 40.6051 122.224 40.7431C121.817 40.8773 121.445 41.1017 121.137 41.3994C120.818 41.7075 120.567 42.0791 120.401 42.4901C120.219 42.9436 120.127 43.4282 120.13 43.9169V147.502C120.129 147.997 120.221 148.488 120.401 148.949C120.569 149.378 120.819 149.77 121.136 150.103C121.443 150.424 121.813 150.678 122.223 150.847C122.643 151.019 123.096 151.095 123.549 151.069L219.733 145.769C220.058 145.748 220.372 145.646 220.647 145.472C220.938 145.288 221.191 145.049 221.39 144.768C221.61 144.46 221.779 144.119 221.891 143.758C222.013 143.365 222.075 142.956 222.075 142.545V57.2639C222.074 56.8477 222.012 56.4339 221.891 56.0359C221.778 55.6623 221.609 55.3079 221.39 54.9848C221.191 54.6869 220.939 54.4274 220.647 54.2189C220.376 54.0254 220.062 53.8989 219.733 53.85ZM123.549 150.003C123.226 150.021 122.903 149.966 122.603 149.843C122.311 149.721 122.047 149.54 121.828 149.31C121.601 149.072 121.423 148.791 121.304 148.484C121.175 148.155 121.11 147.805 121.111 147.452V44.0453C121.109 43.6971 121.174 43.3518 121.304 43.0285C121.422 42.7346 121.601 42.4687 121.828 42.2482C122.048 42.0358 122.313 41.8757 122.603 41.7797C122.908 41.6806 123.232 41.6522 123.549 41.6969L219.733 54.738C219.968 54.7728 220.192 54.8632 220.386 55.0017C220.595 55.15 220.775 55.3347 220.919 55.547C221.075 55.7779 221.196 56.0311 221.277 56.2981C221.364 56.5826 221.408 56.8785 221.409 57.1761V142.58C221.409 142.874 221.364 143.166 221.277 143.447C221.197 143.706 221.076 143.949 220.919 144.169C220.776 144.37 220.595 144.541 220.386 144.672C220.189 144.795 219.965 144.867 219.733 144.882L123.549 150.003Z" fill="#E6E6E6"/>
<path d="M120.363 162.008C120.107 162.036 119.863 162.131 119.655 162.283C119.426 162.451 119.232 162.662 119.082 162.903C118.911 163.173 118.782 163.467 118.699 163.775C118.607 164.111 118.562 164.458 118.567 164.807C118.569 165.141 118.619 165.472 118.715 165.792C118.799 166.073 118.93 166.338 119.102 166.575C119.252 166.784 119.446 166.957 119.67 167.082C119.882 167.198 120.123 167.253 120.364 167.239L288.749 153.289C288.883 153.278 289.009 153.22 289.105 153.126C289.227 153.009 289.327 152.87 289.397 152.716C289.487 152.526 289.554 152.326 289.596 152.121C289.646 151.883 289.671 151.641 289.673 151.398C289.676 151.157 289.654 150.917 289.607 150.681C289.569 150.481 289.505 150.286 289.417 150.102C289.35 149.955 289.253 149.823 289.133 149.716C289.035 149.629 288.909 149.582 288.779 149.585H288.749L120.363 162.008Z" fill="#E6E6E6"/>
<path d="M120.363 177.883C120.105 177.918 119.862 178.019 119.655 178.177C119.427 178.35 119.232 178.565 119.082 178.81C118.911 179.084 118.783 179.381 118.699 179.692C118.607 180.03 118.562 180.38 118.567 180.731C118.569 181.063 118.619 181.394 118.715 181.712C118.799 181.99 118.93 182.251 119.102 182.485C119.251 182.689 119.445 182.857 119.669 182.976C119.883 183.087 120.123 183.134 120.363 183.113L288.749 164.529C288.884 164.514 289.01 164.453 289.105 164.356C289.227 164.236 289.326 164.094 289.397 163.937C289.487 163.745 289.554 163.542 289.596 163.334C289.646 163.096 289.671 162.853 289.673 162.609C289.676 162.369 289.654 162.13 289.607 161.894C289.569 161.695 289.505 161.502 289.417 161.32C289.35 161.175 289.252 161.047 289.131 160.943C289.033 160.859 288.907 160.816 288.777 160.822H288.748L120.363 177.883Z" fill="#E6E6E6"/>
<path d="M120.362 193.5C120.104 193.543 119.861 193.651 119.655 193.813C119.426 193.993 119.232 194.213 119.082 194.463C118.912 194.74 118.783 195.041 118.699 195.355C118.607 195.695 118.563 196.045 118.567 196.397C118.568 196.728 118.618 197.057 118.715 197.373C118.799 197.648 118.929 197.906 119.102 198.136C119.251 198.337 119.446 198.5 119.669 198.612C119.884 198.717 120.125 198.758 120.363 198.73L288.749 175.587C288.885 175.567 289.01 175.503 289.105 175.404C289.227 175.281 289.326 175.136 289.397 174.977C289.487 174.783 289.553 174.579 289.596 174.369C289.645 174.13 289.671 173.886 289.673 173.642C289.676 173.403 289.654 173.164 289.607 172.929C289.57 172.732 289.506 172.54 289.417 172.36C289.35 172.217 289.252 172.091 289.131 171.991C289.032 171.909 288.905 171.869 288.777 171.879H288.748L120.362 193.5Z" fill="#E6E6E6"/>
<path d="M20.0511 163.007L10.4387 162.892C10.2784 162.887 10.1184 162.909 9.96592 162.959C9.81855 163.007 9.6806 163.081 9.55809 163.176C9.43601 163.27 9.33137 163.386 9.24888 163.516C9.16434 163.65 9.10474 163.799 9.07296 163.954C9.04125 164.14 9.0509 164.33 9.10121 164.511C9.12632 164.602 9.16122 164.69 9.20527 164.773C9.29509 164.942 9.42073 165.09 9.57345 165.205C9.80248 165.379 10.0814 165.474 10.3688 165.477L13.2597 165.503C13.3961 165.504 13.5292 165.544 13.6427 165.62C13.7563 165.695 13.8454 165.802 13.899 165.928C13.935 166.013 13.9536 166.104 13.9535 166.196V171.869C13.9463 172.183 14.0507 172.488 14.2478 172.732C14.4452 172.976 14.7222 173.142 15.0303 173.202C15.3095 173.249 15.5964 173.203 15.847 173.072C16.0976 172.94 16.2981 172.729 16.4178 172.473C16.4966 172.304 16.5376 172.119 16.5377 171.933V166.212C16.5378 166.123 16.5554 166.034 16.5896 165.952C16.6238 165.869 16.6739 165.794 16.737 165.731C16.8002 165.668 16.8751 165.618 16.9575 165.584C17.04 165.55 17.1283 165.532 17.2176 165.533L17.224 165.533L19.9857 165.554C20.294 165.564 20.5958 165.465 20.8375 165.273C21.0791 165.081 21.2449 164.809 21.3053 164.507C21.3356 164.324 21.326 164.136 21.2771 163.957C21.2283 163.778 21.1413 163.611 21.0222 163.469C20.9031 163.327 20.7547 163.212 20.5871 163.132C20.4195 163.052 20.2366 163.01 20.0511 163.007Z" fill="white"/>
<path d="M20.0518 170.651C20.3259 170.651 20.5927 170.739 20.8127 170.902C21.0328 171.066 21.1944 171.296 21.2735 171.559C21.3527 171.821 21.3453 172.102 21.2523 172.36C21.1594 172.618 20.9858 172.839 20.7574 172.991C20.529 173.142 20.2579 173.216 19.9842 173.202C19.7105 173.187 19.4488 173.085 19.2378 172.91C19.0268 172.735 18.8778 172.496 18.8128 172.23C18.7478 171.964 18.7702 171.683 18.8769 171.431C18.974 171.199 19.1374 171.002 19.3464 170.863C19.5555 170.724 19.8009 170.65 20.0518 170.651Z" fill="white"/>
<path d="M245.346 95.4643C245.302 95.8103 245.23 96.1524 245.132 96.4872L265.169 120.49L272.653 119.2L276.075 130.245L263.048 133.817C261.996 134.105 260.879 134.044 259.864 133.643C258.849 133.242 257.991 132.523 257.42 131.593L238.797 101.282C237.453 101.286 236.141 100.881 235.033 100.12C233.925 99.3588 233.076 98.2786 232.597 97.0227C232.118 95.7668 232.032 94.3948 232.352 93.0891C232.671 91.7835 233.381 90.6061 234.385 89.7136C235.39 88.821 236.642 88.2556 237.976 88.0926C239.31 87.9296 240.661 88.1767 241.851 88.801C243.041 89.4252 244.013 90.3972 244.637 91.5874C245.261 92.7777 245.509 94.1299 245.346 95.4643Z" fill="#FFB6B6"/>
<path d="M266.056 119.152C266.27 118.805 266.556 118.508 266.895 118.282C267.234 118.056 267.618 117.905 268.021 117.841L282.079 115.598C284.068 114.971 286.224 115.157 288.075 116.118C289.927 117.078 291.322 118.734 291.955 120.722C292.588 122.71 292.407 124.868 291.452 126.723C290.497 128.577 288.846 129.978 286.861 130.616L274.016 136.864C273.65 137.042 273.249 137.139 272.842 137.149C272.434 137.158 272.03 137.079 271.655 136.918C271.281 136.757 270.945 136.517 270.672 136.214C270.399 135.912 270.194 135.554 270.071 135.165L265.763 121.497C265.641 121.108 265.603 120.697 265.654 120.292C265.704 119.888 265.841 119.499 266.056 119.152Z" fill="#000D30"/>
<path d="M266.84 313.579H260.765L257.875 290.135L266.841 290.136L266.84 313.579Z" fill="#FFB6B6"/>
<path d="M268.389 319.471L248.8 319.47V319.222C248.8 317.199 249.603 315.259 251.033 313.829C252.463 312.398 254.402 311.594 256.424 311.594H256.425L268.389 311.595L268.389 319.471Z" fill="#2F2E41"/>
<path d="M330.269 313.579H324.194L321.304 290.135L330.27 290.136L330.269 313.579Z" fill="#FFB6B6"/>
<path d="M331.817 319.471L312.229 319.47V319.222C312.229 317.199 313.032 315.259 314.462 313.829C315.892 312.398 317.831 311.594 319.853 311.594H319.854L331.818 311.595L331.817 319.471Z" fill="#2F2E41"/>
<path d="M269.211 170.775L295.537 163.164C305.127 169.969 311.749 183.61 309.604 201.258C306.148 229.699 326.154 266.268 334.783 303.321L319.863 303.79L287.192 225.568L268.039 305.418L254.711 305.837L263.624 195.892L269.211 170.775Z" fill="#7FA3A6"/>
<path d="M280.935 101.61C288.456 101.61 294.553 95.5098 294.553 87.9852C294.553 80.4605 288.456 74.3606 280.935 74.3606C273.414 74.3606 267.316 80.4605 267.316 87.9852C267.316 95.5098 273.414 101.61 280.935 101.61Z" fill="#FFB6B6"/>
<path d="M267.077 148.569C264.067 143.283 262.58 136.863 265.2 131.372C265.86 129.99 267.658 128.683 268.6 127.475L279.122 111.78L291.003 109.867C301.285 118.495 292.502 147.97 300.926 167.305L265.743 186.144C268.257 176.535 271.652 156.602 267.077 148.569Z" fill="#00113D"/>
<path d="M267.229 82.5295C267.229 82.5295 268.152 80.8207 273.671 83.0253C275.603 83.7969 276.509 83.6195 276.635 85.2984C277.082 91.6173 279.392 97.6616 283.273 102.667L283.315 102.721L286.075 100.202L289.623 103.036L304.605 103.351C304.605 103.351 306.971 91.6986 299.085 78.4711C291.2 65.2436 275.035 72.4873 275.035 72.4873C263.996 73.1171 267.229 82.5295 267.229 82.5295Z" fill="#2F2E41"/>
<path d="M232.463 65.1146L136.28 51.8946C135.835 51.831 135.382 51.8697 134.954 52.0076C134.547 52.1419 134.176 52.3662 133.867 52.664C133.549 52.9721 133.298 53.3436 133.131 53.7547C132.949 54.2082 132.857 54.6928 132.86 55.1815V158.766C132.859 159.262 132.951 159.753 133.131 160.214C133.299 160.643 133.549 161.035 133.867 161.368C134.173 161.689 134.543 161.942 134.954 162.112C135.373 162.283 135.826 162.359 136.279 162.334L232.463 157.034C232.788 157.013 233.102 156.91 233.377 156.737C233.669 156.553 233.921 156.313 234.121 156.032C234.341 155.725 234.51 155.384 234.621 155.022C234.744 154.63 234.806 154.221 234.805 153.81V68.5284C234.805 68.1123 234.743 67.6984 234.621 67.3004C234.508 66.9268 234.34 66.5725 234.121 66.2494C233.921 65.9514 233.669 65.692 233.377 65.4835C233.106 65.2899 232.793 65.1635 232.463 65.1146Z" fill="#0E8993"/>
<path opacity="0.2" d="M232.463 65.1146L136.28 51.8946C135.835 51.831 135.382 51.8697 134.954 52.0076C134.547 52.1419 134.176 52.3662 133.867 52.664C133.549 52.9721 133.298 53.3436 133.131 53.7547C132.949 54.2082 132.857 54.6928 132.86 55.1815V158.766C132.859 159.262 132.951 159.753 133.131 160.214C133.299 160.643 133.549 161.035 133.867 161.368C134.173 161.689 134.543 161.942 134.954 162.112C135.373 162.283 135.826 162.359 136.279 162.334L232.463 157.034C232.788 157.013 233.102 156.91 233.377 156.737C233.669 156.553 233.921 156.313 234.121 156.032C234.341 155.725 234.51 155.384 234.621 155.022C234.744 154.63 234.806 154.221 234.805 153.81V68.5284C234.805 68.1123 234.743 67.6984 234.621 67.3004C234.508 66.9268 234.34 66.5725 234.121 66.2494C233.921 65.9514 233.669 65.692 233.377 65.4835C233.106 65.2899 232.793 65.1635 232.463 65.1146Z" fill="black"/>
<path d="M236.427 65.1146L140.243 51.8946C139.799 51.831 139.345 51.8697 138.918 52.0076C138.511 52.1419 138.14 52.3662 137.831 52.664C137.512 52.9721 137.262 53.3436 137.095 53.7547C136.913 54.2082 136.821 54.6928 136.824 55.1815V158.766C136.823 159.262 136.915 159.753 137.095 160.214C137.263 160.643 137.513 161.035 137.831 161.368C138.137 161.689 138.507 161.942 138.917 162.112C139.337 162.283 139.79 162.359 140.243 162.334L236.427 157.034C236.752 157.013 237.066 156.91 237.341 156.737C237.633 156.553 237.885 156.313 238.085 156.032C238.305 155.725 238.474 155.384 238.585 155.022C238.707 154.63 238.769 154.221 238.769 153.81V68.5284C238.769 68.1123 238.707 67.6984 238.585 67.3004C238.472 66.9268 238.303 66.5725 238.085 66.2494C237.885 65.9514 237.633 65.692 237.341 65.4835C237.07 65.2899 236.757 65.1635 236.427 65.1146Z" fill="#0E8993"/>
<path d="M236.014 147.927C236.276 148.158 236.519 148.409 236.741 148.678L267.838 145.498L270.958 138.571L282.022 141.915L277.69 154.714C277.34 155.748 276.665 156.641 275.765 157.258C274.865 157.875 273.789 158.183 272.698 158.136L237.168 156.613C236.42 157.729 235.349 158.591 234.099 159.083C232.849 159.576 231.478 159.676 230.17 159.37C228.861 159.064 227.677 158.367 226.774 157.372C225.872 156.376 225.293 155.129 225.116 153.797C224.939 152.464 225.172 151.109 225.783 149.912C226.395 148.715 227.356 147.733 228.539 147.096C229.722 146.459 231.071 146.197 232.406 146.345C233.741 146.494 235 147.046 236.014 147.927V147.927Z" fill="#FFB6B6"/>
<path d="M267.226 144.013C267.059 143.641 266.973 143.238 266.976 142.83C266.978 142.422 267.069 142.02 267.241 141.65L273.25 128.739C273.843 126.739 275.205 125.055 277.036 124.058C278.868 123.06 281.021 122.83 283.022 123.418C285.023 124.006 286.709 125.363 287.711 127.193C288.713 129.023 288.949 131.176 288.366 133.18L286.353 147.325C286.296 147.729 286.152 148.116 285.932 148.459C285.711 148.802 285.42 149.093 285.077 149.313C284.734 149.534 284.347 149.677 283.944 149.735C283.54 149.792 283.129 149.761 282.738 149.645L269.005 145.568C268.614 145.452 268.253 145.253 267.946 144.985C267.639 144.716 267.394 144.385 267.226 144.013Z" fill="#00113D"/>
<path d="M413.505 320H224.705C224.574 320 224.448 319.948 224.355 319.855C224.262 319.762 224.21 319.636 224.21 319.504C224.21 319.373 224.262 319.247 224.355 319.154C224.448 319.061 224.574 319.008 224.705 319.008H413.505C413.636 319.008 413.762 319.061 413.855 319.154C413.948 319.247 414 319.373 414 319.504C414 319.636 413.948 319.762 413.855 319.855C413.762 319.948 413.636 320 413.505 320Z" fill="#CACACA"/>
</g>
<defs>
<clipPath id="clip0">
<rect width="414" height="320" fill="white"/>
</clipPath>
</defs>
</svg>
