<svg id="Layer_1" data-name="Layer 1" xmlns="http://www.w3.org/2000/svg" xmlns:xlink="http://www.w3.org/1999/xlink" width="118.5" height="53.35" viewBox="0 0 118.5 53.35"><defs><style>.cls-1{fill:none;}.cls-2{fill:#ebb6b3;}.cls-3{clip-path:url(#clip-path);}.cls-4{fill:#0e8993;}.cls-5{clip-path:url(#clip-path-2);}.cls-6{fill:#a2f8fe;}.cls-7{clip-path:url(#clip-path-3);}.cls-8{fill:#f6efe7;}</style><clipPath id="clip-path" transform="translate(-0.65 -3.35)"><rect class="cls-1" x="0.57" y="42.02" width="118.86" height="14.63"/></clipPath><clipPath id="clip-path-2" transform="translate(-0.65 -3.35)"><rect class="cls-1" x="0.57" y="31.64" width="118.86" height="14.63"/></clipPath><clipPath id="clip-path-3" transform="translate(-0.65 -3.35)"><rect class="cls-1" x="0.57" y="21.63" width="118.86" height="14.63"/></clipPath></defs><g id="surface1"><path class="cls-2" d="M60,3.35a13.74,13.74,0,0,0-2,.1c-.68.1-1.35.17-2,.3a21.93,21.93,0,0,0-3.9,1.18c-.6.26-1.25.55-1.82.87s-1.21.68-1.75,1-1.1.79-1.63,1.21a19.63,19.63,0,0,0-1.51,1.37c-.48.48-.94,1-1.37,1.51s-.84,1.08-1.21,1.64a19.29,19.29,0,0,0-1,1.75c-.32.6-.61,1.21-.87,1.84a19.65,19.65,0,0,0-.74,1.93c-.2.65-.36,1.31-.5,2s-.23,1.34-.3,2a19.63,19.63,0,0,0-.1,2,13.81,13.81,0,0,0,.1,2c.1.68.17,1.35.3,2a21.47,21.47,0,0,0,1.21,3.9c.26.6.55,1.24.88,1.84a17.55,17.55,0,0,0,1,1.75c.38.56.78,1.11,1.21,1.64s.89,1,1.37,1.51a19.78,19.78,0,0,0,1.52,1.37c.52.43,1.07.83,1.63,1.21s1.15.73,1.75,1.05,1.21.6,1.82.87A17.45,17.45,0,0,0,54,44a19.12,19.12,0,0,0,2,.5q1,.2,2,.3a21.39,21.39,0,0,0,4.08,0c.67-.07,1.35-.17,2-.3a19.12,19.12,0,0,0,2-.5A18.55,18.55,0,0,0,68,43.33c.6-.26,1.21-.55,1.82-.87a18.77,18.77,0,0,0,1.75-1c.53-.38,1.11-.79,1.64-1.22s1-.88,1.5-1.36.94-1,1.38-1.52a19.82,19.82,0,0,0,1.21-1.64,19.12,19.12,0,0,0,1-1.74c.32-.6.61-1.22.87-1.85a18.92,18.92,0,0,0,.69-1.92c.2-.65.36-1.31.5-2a19.45,19.45,0,0,0,.29-2,20.86,20.86,0,0,0,0-4.08,19.07,19.07,0,0,0-.29-2c-.14-.67-.3-1.33-.5-2s-.43-1.29-.69-1.92a18.32,18.32,0,0,0-.87-1.85,15.89,15.89,0,0,0-1-1.75c-.38-.54-.78-1.11-1.21-1.63a19.71,19.71,0,0,0-1.38-1.52c-.48-.48-1-.94-1.5-1.37s-1.08-.83-1.64-1.21-1.15-.72-1.75-1S68.55,5.21,68,4.94A19,19,0,0,0,66,4.26c-.65-.2-1.31-.36-2-.5s-1.34-.23-2-.3A19.57,19.57,0,0,0,60,3.35Z" transform="translate(-0.65 -3.35)"/><g class="cls-3"><path class="cls-4" d="M117.77,50.61c-2.84,0-4.21-1.41-6-3.36l0,0c-2.24-2.32-5-5.18-10.41-5.18s-8.21,2.89-10.46,5.23c-1.87,2-3.23,3.36-6.09,3.36s-4.2-1.41-6-3.36l-.07-.07c-2.22-2.3-5-5.14-10.29-5.14s-8.21,2.89-10.43,5.21h0c-1.87,1.94-3.24,3.36-6.06,3.36s-4.23-1.42-6.05-3.36l-.21,0c-2.22-2.29-5-5.16-10.39-5.16S26.91,45,24.69,47.25h0c-1.88,1.94-3.24,3.36-6.09,3.36s-4.21-1.42-6.05-3.36l-.05,0C10.26,44.88,7.48,42,2.09,42H.65v6H2c2.85,0,4.24,1.42,6.09,3.36l.07.07c2.22,2.29,5,5.16,10.38,5.16s8.2-2.87,10.44-5.18h0c1.87-1.94,3.24-3.36,6.05-3.36s4.21,1.42,6.09,3.36l.05.05c2.24,2.31,5,5.18,10.4,5.18s8.22-2.89,10.44-5.2h0c1.88-1.95,3.24-3.36,6.09-3.36s4.24,1.41,6,3.36c2.22,2.31,5,5.2,10.43,5.2s8.22-2.89,10.44-5.2h0c1.88-1.95,3.24-3.36,6.09-3.36s4.23,1.41,6.08,3.36l0,0c2.25,2.32,5,5.19,10.39,5.19h1.39V50.61Z" transform="translate(-0.65 -3.35)"/></g><g class="cls-5"><path class="cls-6" d="M117.77,40.24c-2.84,0-4.21-1.42-6-3.37l0,0c-2.27-2.32-5-5.2-10.42-5.2S93,34.52,90.79,36.86c-1.87,2-3.24,3.36-6.09,3.36s-4.21-1.41-6-3.36l-.07-.07c-2.22-2.29-5-5.14-10.29-5.14s-8.21,2.89-10.43,5.21h0c-1.87,2-3.24,3.36-6.06,3.36s-4.24-1.41-6-3.36l-.2,0c-2.22-2.29-5-5.16-10.39-5.16s-8.22,2.89-10.44,5.2h0c-1.88,2-3.24,3.37-6.09,3.37s-4.21-1.42-6-3.37l-.05,0c-2.24-2.32-5-5.19-10.41-5.19H.65v6H2c2.85,0,4.24,1.42,6.09,3.36l.07.07c2.23,2.3,5,5.17,10.38,5.17s8.2-2.9,10.44-5.21h0c1.87-1.94,3.24-3.36,6.05-3.36s4.21,1.42,6.09,3.36l.05,0c2.24,2.31,5,5.18,10.4,5.18s8.22-2.89,10.44-5.21h0c1.88-1.94,3.24-3.36,6.09-3.36s4.24,1.42,6,3.36c2.22,2.32,5,5.22,10.43,5.22s8.22-2.9,10.44-5.22h0c2-2,3.34-3.41,6.19-3.41s4.24,1.41,6.08,3.35l0,0c2.25,2.32,5,5.19,10.39,5.19h1.39V40.22Z" transform="translate(-0.65 -3.35)"/></g><g class="cls-7"><path class="cls-8" d="M117.77,30.22c-2.84,0-4.21-1.41-6-3.35l0-.05c-2.24-2.32-5-5.19-10.41-5.19s-8.21,2.89-10.46,5.24c-1.87,1.94-3.23,3.35-6.09,3.35s-4.2-1.41-6-3.35l-.07-.08c-2.22-2.29-5-5.14-10.29-5.14s-8.21,2.9-10.43,5.22h0c-1.87,1.95-3.24,3.36-6.06,3.36s-4.23-1.41-6.05-3.36l-.21-.05c-2.22-2.3-5-5.17-10.39-5.17s-8.22,2.9-10.44,5.22h0c-1.88,1.95-3.24,3.36-6.09,3.36s-4.21-1.41-6-3.36l-.05-.05c-2.24-2.31-5-5.18-10.41-5.18H.65v6H2c2.85,0,4.24,1.42,6.09,3.36l.07.08c2.22,2.29,5,5.16,10.38,5.16s8.2-2.88,10.44-5.19h0c1.87-1.95,3.24-3.36,6.05-3.36s4.27,1.39,6.14,3.32l0,.05c2.24,2.31,5,5.19,10.41,5.19s8.21-2.9,10.44-5.22h0c1.87-1.94,3.24-3.36,6.08-3.36S72.43,29.1,74.25,31c2.22,2.32,5,5.22,10.43,5.22s8.21-2.9,10.44-5.22h0c1.87-1.94,3.24-3.35,6.08-3.35s4.24,1.41,6.09,3.35l0,.05c2.25,2.32,5,5.19,10.39,5.19h1.39V30.22Z" transform="translate(-0.65 -3.35)"/></g></g></svg>