<svg id="Layer_1" data-name="Layer 1" xmlns="http://www.w3.org/2000/svg" width="31.67" height="31.67" viewBox="0 0 31.67 31.67"><defs><style>.cls-1{fill:#a2f8fe;}.cls-2{fill:#000a23;}</style></defs><path class="cls-1" d="M9.5,6.33A3.18,3.18,0,0,0,6.33,9.5v19A3.18,3.18,0,0,0,9.5,31.67h19a3.18,3.18,0,0,0,3.17-3.17V9.5A3.18,3.18,0,0,0,28.5,6.33Zm0-3.16h19A6.32,6.32,0,0,1,34.83,9.5v19a6.32,6.32,0,0,1-6.33,6.33H9.5A6.32,6.32,0,0,1,3.17,28.5V9.5A6.32,6.32,0,0,1,9.5,3.17Z" transform="translate(-3.17 -3.17)"/><circle class="cls-1" cx="15.83" cy="15.83" r="6.54"/><circle class="cls-2" cx="15.83" cy="15.83" r="4.11"/><circle class="cls-1" cx="23.89" cy="7.9" r="2.02"/></svg>