<svg width="335" height="210" viewBox="0 0 335 210" fill="none" xmlns="http://www.w3.org/2000/svg">
<rect width="335" height="210" rx="5" fill="#F5FDFE"/>
<g clip-path="url(#clip0)">
<path d="M172.875 151.792V53.2083C172.875 45.4625 166.537 39.125 158.792 39.125H60.2083C52.4625 39.125 46.125 45.4625 46.125 53.2083V151.792C46.125 159.537 52.4625 165.875 60.2083 165.875H158.792C166.537 165.875 172.875 159.537 172.875 151.792ZM84.8542 113.062L102.458 134.258L127.104 102.5L158.792 144.75H60.2083L84.8542 113.062Z" fill="#BEC6DE"/>
</g>
<path d="M201.166 104.375H297.833V96.4583H201.166V104.375ZM201.166 120.208H297.833V112.292H201.166V120.208ZM201.166 88.5416H297.833V80.625H201.166V88.5416ZM201.166 64.7916V72.7083H297.833V64.7916H201.166Z" fill="black"/>
<path d="M202 140C202 137.239 204.239 135 207 135H236C238.761 135 241 137.239 241 140V144C241 146.761 238.761 149 236 149H207C204.239 149 202 146.761 202 144V140Z" fill="#0E8993"/>
<defs>
<clipPath id="clip0">
<rect width="169" height="169" fill="white" transform="translate(25 18)"/>
</clipPath>
</defs>
</svg>
