<svg width="335" height="210" viewBox="0 0 335 210" fill="none" xmlns="http://www.w3.org/2000/svg">
<rect width="335" height="210" rx="5" fill="#F5FDFE"/>
<path d="M54.166 106.375H150.833V98.4583H54.166V106.375ZM54.166 122.208H150.833V114.292H54.166V122.208ZM54.166 90.5416H150.833V82.625H54.166V90.5416ZM54.166 66.7916V74.7083H150.833V66.7916H54.166Z" fill="black"/>
<path d="M112 142C112 139.239 114.239 137 117 137H146C148.761 137 151 139.239 151 142V146C151 148.761 148.761 151 146 151H117C114.239 151 112 148.761 112 146V142Z" fill="#0E8993"/>
<path d="M304.75 154.667V56.0833C304.75 48.3375 298.412 42 290.667 42H192.083C184.337 42 178 48.3375 178 56.0833V154.667C178 162.412 184.337 168.75 192.083 168.75H290.667C298.412 168.75 304.75 162.412 304.75 154.667ZM216.729 115.938L234.333 137.133L258.979 105.375L290.667 147.625H192.083L216.729 115.938Z" fill="#BEC6DE"/>
</svg>
