<svg width="335" height="210" viewBox="0 0 335 210" fill="none" xmlns="http://www.w3.org/2000/svg">
<rect width="335" height="210" rx="5" fill="#F5FDFE"/>
<path d="M254 171.889V38.1111C254 27.6 245.4 19 234.889 19H101.111C90.6 19 82 27.6 82 38.1111V171.889C82 182.4 90.6 191 101.111 191H234.889C245.4 191 254 182.4 254 171.889ZM134.556 119.333L158.444 148.096L191.889 105L234.889 162.333H101.111L134.556 119.333Z" fill="#BEC6DE" fill-opacity="0.31"/>
<path d="M119.166 105.25H215.833V97.3333H119.166V105.25ZM119.166 121.083H215.833V113.167H119.166V121.083ZM119.166 89.4166H215.833V81.5H119.166V89.4166ZM119.166 65.6666V73.5833H215.833V65.6666H119.166Z" fill="black"/>
<path d="M148 139.875C148 137.114 150.239 134.875 153 134.875H182C184.761 134.875 187 137.114 187 139.875V143.875C187 146.636 184.761 148.875 182 148.875H153C150.239 148.875 148 146.636 148 143.875V139.875Z" fill="#0E8993"/>
</svg>
