<svg width="392" height="382" viewBox="0 0 392 382" fill="none" xmlns="http://www.w3.org/2000/svg">
<path d="M151.352 347.931L141.143 357.345L149.256 343.709C142.864 332.099 132.411 322.065 132.411 322.065C132.411 322.065 110.724 342.878 110.724 359.238C110.724 375.599 120.433 381.311 132.411 381.311C144.388 381.311 154.098 375.599 154.098 359.238C154.098 355.597 153.022 351.735 151.352 347.931Z" fill="#0E8993"/>
<path d="M138.518 357.854V358.66C138.471 368.034 136.892 375.348 133.796 380.498C133.752 380.574 133.704 380.646 133.66 380.722L133.313 380.51L132.983 380.302C136.418 374.741 137.634 366.881 137.677 358.704C137.681 358.441 137.685 358.173 137.681 357.906C137.67 354.445 137.458 350.943 137.12 347.542C137.096 347.279 137.068 347.011 137.04 346.744C136.57 342.256 135.892 337.969 135.199 334.244C135.151 333.98 135.099 333.717 135.047 333.457C133.847 327.158 132.624 322.595 132.345 321.585C132.313 321.461 132.293 321.393 132.289 321.377L132.668 321.269L132.672 321.265L133.054 321.157C133.058 321.173 133.126 321.401 133.238 321.824C133.664 323.405 134.772 327.697 135.86 333.358C135.908 333.613 135.96 333.877 136.008 334.14C136.574 337.162 137.127 340.54 137.566 344.085C137.678 344.975 137.777 345.853 137.865 346.72C137.897 346.987 137.925 347.255 137.949 347.518C138.315 351.195 138.505 354.64 138.518 357.854Z" fill="#F5FDFE"/>
<path d="M135.859 333.358C135.592 333.394 135.321 333.43 135.046 333.458C134.3 333.535 133.549 333.573 132.798 333.573C129.599 333.578 126.439 332.863 123.552 331.481C123.385 331.693 123.217 331.905 123.046 332.12C126.083 333.605 129.419 334.375 132.798 334.372C133.6 334.372 134.401 334.329 135.198 334.244C135.469 334.216 135.74 334.18 136.007 334.14C138.211 333.824 140.354 333.173 142.364 332.212C142.192 331.992 142.025 331.777 141.862 331.565C139.96 332.456 137.937 333.06 135.859 333.358Z" fill="#F5FDFE"/>
<path d="M137.864 346.72C137.589 346.736 137.314 346.744 137.039 346.744C136.956 346.748 136.868 346.748 136.784 346.748C133.317 346.748 129.902 345.908 126.829 344.3C123.756 342.692 121.117 340.364 119.136 337.514C118.977 337.749 118.818 337.985 118.662 338.224C120.726 341.108 123.447 343.458 126.598 345.079C129.75 346.7 133.242 347.546 136.784 347.546C136.896 347.546 137.008 347.546 137.119 347.542C137.398 347.538 137.673 347.53 137.948 347.518C142.203 347.3 146.306 345.858 149.765 343.366C149.638 343.131 149.51 342.895 149.379 342.66C146.017 345.106 142.015 346.518 137.864 346.72Z" fill="#F5FDFE"/>
<path d="M138.519 357.854C138.24 357.878 137.961 357.894 137.682 357.906C137.383 357.918 137.084 357.926 136.785 357.926C132.126 357.921 127.595 356.404 123.869 353.603C120.143 350.802 117.423 346.867 116.116 342.388C115.937 342.712 115.757 343.031 115.586 343.354C117.058 347.823 119.899 351.713 123.705 354.472C127.51 357.232 132.087 358.72 136.785 358.725C137.084 358.725 137.383 358.721 137.678 358.705C137.961 358.697 138.24 358.681 138.519 358.661C144.154 358.219 149.411 355.649 153.225 351.471C153.142 351.175 153.046 350.884 152.95 350.588C149.266 354.798 144.089 357.404 138.519 357.854Z" fill="#F5FDFE"/>
<path d="M391.433 20.457H0.567288C0.417171 20.4565 0.273391 20.3964 0.167425 20.2899C0.0614594 20.1834 0.00195312 20.0391 0.00195312 19.8888C0.00195312 19.7384 0.0614594 19.5941 0.167425 19.4876C0.273391 19.3811 0.417171 19.321 0.567288 19.3205H391.433C391.583 19.321 391.727 19.3811 391.833 19.4876C391.939 19.5941 391.998 19.7384 391.998 19.8888C391.998 20.0391 391.939 20.1834 391.833 20.2899C391.727 20.3964 391.583 20.4565 391.433 20.457Z" fill="#CACACA"/>
<path d="M13.3359 12.5015C16.7823 12.5015 19.5762 9.70294 19.5762 6.25075C19.5762 2.79856 16.7823 0 13.3359 0C9.88955 0 7.0957 2.79856 7.0957 6.25075C7.0957 9.70294 9.88955 12.5015 13.3359 12.5015Z" fill="#3F3D56"/>
<path d="M34.8926 12.5015C38.339 12.5015 41.1328 9.70294 41.1328 6.25075C41.1328 2.79856 38.339 0 34.8926 0C31.4462 0 28.6523 2.79856 28.6523 6.25075C28.6523 9.70294 31.4462 12.5015 34.8926 12.5015Z" fill="#3F3D56"/>
<path d="M56.4502 12.5015C59.8966 12.5015 62.6904 9.70294 62.6904 6.25075C62.6904 2.79856 59.8966 0 56.4502 0C53.0038 0 50.21 2.79856 50.21 6.25075C50.21 9.70294 53.0038 12.5015 56.4502 12.5015Z" fill="#3F3D56"/>
<path d="M378.517 3.82335H363.2C362.9 3.82231 362.612 3.70212 362.4 3.4891C362.188 3.27608 362.069 2.9876 362.069 2.68686C362.069 2.38612 362.188 2.09764 362.4 1.88461C362.612 1.67159 362.9 1.5514 363.2 1.55036H378.517C378.666 1.54984 378.814 1.57886 378.952 1.63574C379.09 1.69262 379.216 1.77626 379.322 1.88184C379.428 1.98743 379.511 2.11288 379.569 2.25103C379.626 2.38917 379.655 2.53728 379.655 2.68686C379.655 2.83644 379.626 2.98454 379.569 3.12269C379.511 3.26083 379.428 3.38629 379.322 3.49187C379.216 3.59746 379.09 3.68109 378.952 3.73797C378.814 3.79486 378.666 3.82387 378.517 3.82335Z" fill="#3F3D56"/>
<path d="M378.517 8.08526H363.2C362.9 8.08422 362.612 7.96402 362.4 7.751C362.188 7.53798 362.069 7.2495 362.069 6.94876C362.069 6.64802 362.188 6.35954 362.4 6.14652C362.612 5.93349 362.9 5.8133 363.2 5.81226H378.517C378.666 5.81175 378.814 5.84076 378.952 5.89764C379.09 5.95452 379.216 6.03816 379.322 6.14374C379.428 6.24933 379.511 6.37479 379.569 6.51293C379.626 6.65107 379.655 6.79918 379.655 6.94876C379.655 7.09834 379.626 7.24645 379.569 7.38459C379.511 7.52273 379.428 7.64819 379.322 7.75377C379.216 7.85936 379.09 7.94299 378.952 7.99988C378.814 8.05676 378.666 8.08577 378.517 8.08526Z" fill="#3F3D56"/>
<path d="M378.517 12.3471H363.2C362.9 12.3461 362.612 12.2259 362.4 12.0128C362.188 11.7998 362.069 11.5113 362.069 11.2106C362.069 10.9099 362.188 10.6214 362.4 10.4084C362.612 10.1953 362.9 10.0751 363.2 10.0741H378.517C378.666 10.0736 378.814 10.1026 378.952 10.1595C379.09 10.2164 379.216 10.3 379.322 10.4056C379.428 10.5112 379.511 10.6366 379.569 10.7748C379.626 10.9129 379.655 11.061 379.655 11.2106C379.655 11.3602 379.626 11.5083 379.569 11.6464C379.511 11.7846 379.428 11.91 379.322 12.0156C379.216 12.1212 379.09 12.2048 378.952 12.2617C378.814 12.3186 378.666 12.3476 378.517 12.3471Z" fill="#3F3D56"/>
<path d="M369.97 46.1553H11.7754V236.252H369.97V46.1553Z" fill="#F5FDFE"/>
<path d="M369.97 81.7383V79.874H300.243V46.1553H298.382V79.874H228.656V46.1553H226.795V79.874H157.068V46.1553H155.207V79.874H85.4809V46.1553H83.6198V79.874H11.7754V81.7383H83.6198V118.989H11.7754V120.853H83.6198V158.104H11.7754V159.968H83.6198V197.212H11.7754V199.076H83.6198V236.252H85.4809V199.076H155.207V236.252H157.068V199.076H226.795V236.252H228.656V199.076H298.382V236.252H300.243V199.076H369.97V197.212H300.243V159.968H369.97V158.104H300.243V120.853H369.97V118.989H300.243V81.7383L369.97 81.7383ZM155.207 197.212H85.4809V159.968H155.207V197.212ZM155.207 158.104H85.4809V120.853H155.207V158.104ZM155.207 118.989H85.4809V81.7383H155.207V118.989ZM226.795 197.212H157.068V159.968H226.795V197.212ZM226.795 158.104H157.068V120.853H226.795V158.104ZM226.795 118.989H157.068V81.7383H226.795V118.989ZM298.382 197.212H228.656V159.968H298.382V197.212ZM298.382 158.104H228.656V120.853H298.382V158.104ZM298.382 118.989H228.656V81.7384H298.382V118.989Z" fill="#E6E6E6"/>
<path d="M123.315 90.7974H99.3516V114.036H123.315V90.7974Z" fill="#CACACA"/>
<path d="M343.938 166.044H319.975V189.283H343.938V166.044Z" fill="#CACACA"/>
<path d="M130.759 204.684H106.796V227.923H130.759V204.684Z" fill="#CACACA"/>
<path d="M137.841 86.486H113.878V109.724H137.841V86.486Z" fill="#0E8993"/>
<path d="M250.488 183.084L278.925 157.706L287.314 161.869L253.208 197.702L250.488 183.084Z" fill="#FFB6B6"/>
<path d="M282.668 166.428C286.406 166.428 289.436 163.393 289.436 159.649C289.436 155.905 286.406 152.87 282.668 152.87C278.93 152.87 275.9 155.905 275.9 159.649C275.9 163.393 278.93 166.428 282.668 166.428Z" fill="#FFB6B6"/>
<path d="M223.871 374.103H217.141L213.94 348.105L223.871 348.106L223.871 374.103Z" fill="#FFB6B6"/>
<path d="M225.587 380.636L203.891 380.635V380.36C203.891 378.117 204.781 375.965 206.364 374.379C207.948 372.793 210.096 371.902 212.335 371.901H212.336L225.587 371.902L225.587 380.636Z" fill="#2F2E41"/>
<path d="M199.507 374.103H192.778L189.577 348.105L199.508 348.106L199.507 374.103Z" fill="#FFB6B6"/>
<path d="M201.223 380.636L179.527 380.635V380.36C179.527 378.117 180.417 375.965 182.001 374.379C183.585 372.793 185.732 371.902 187.972 371.901H187.973L201.224 371.902L201.223 380.636Z" fill="#2F2E41"/>
<path d="M229.522 225.496C229.522 225.496 246.441 224.14 241.027 253.967C235.613 283.795 224.399 365.388 224.399 365.388L214.231 366.788L208.225 257.944L203.68 366.788L190.749 365.388L178.089 248.544C178.089 248.544 174.023 239.15 178.086 232.662C182.149 226.174 229.522 225.496 229.522 225.496Z" fill="#7FA3A6"/>
<path d="M218.693 151.605L223.391 149.084C223.391 149.084 234.964 148.095 239.687 161.713L252.213 180.664L272.516 163.039L281.314 169.14L255.726 199.73L245.087 201.091L222.077 171.264L218.693 151.605Z" fill="#00113D"/>
<path d="M201.649 96.6046C182.349 96.6046 176.947 117.841 176.947 129.822C176.947 141.802 188.007 139.99 201.649 139.99C207.505 139.99 212.881 140.321 217.114 139.755L219.15 134.775L220.789 138.901C224.264 137.622 226.351 135.023 226.351 129.822C226.351 117.841 221.613 96.6046 201.649 96.6046Z" fill="#2F2E41"/>
<path d="M201.566 139.97C210.746 139.97 218.188 132.516 218.188 123.32C218.188 114.125 210.746 106.67 201.566 106.67C192.386 106.67 184.944 114.125 184.944 123.32C184.944 132.516 192.386 139.97 201.566 139.97Z" fill="#FFB6B6"/>
<path d="M182.361 121.687H188.936L191.836 113.552L192.416 121.687H195.558L197.25 116.942L197.588 121.687H220.937C220.937 117.012 219.083 112.529 215.783 109.224C212.483 105.918 208.007 104.061 203.341 104.061H199.957C195.29 104.061 190.815 105.918 187.515 109.224C184.215 112.529 182.361 117.012 182.361 121.687Z" fill="#2F2E41"/>
<path d="M293.496 133.939H269.532V157.177H293.496V133.939Z" fill="#0E8993"/>
<path d="M234.781 219.362C232.229 219.395 224.541 173.705 224.541 173.705L223.391 149.084L214.991 148.801V148.248C214.991 147.136 214.551 146.071 213.766 145.285C212.982 144.499 211.918 144.058 210.808 144.057H194.811C193.749 144.058 192.726 144.464 191.951 145.193C191.177 145.922 190.709 146.919 190.642 147.981L184.055 147.759L172.647 184.063C172.647 184.063 183.159 217.796 178.086 232.662C178.086 232.662 227.515 236.913 236.977 227.476C236.977 227.476 237.333 219.329 234.781 219.362Z" fill="#00113D"/>
<path d="M186.887 152.283L184.056 147.759C184.056 147.759 174.845 145.478 171.053 151.592C167.261 157.706 156.114 190.832 156.114 190.832L167.619 194.9L180.675 176.566L186.887 152.283Z" fill="#00113D"/>
<path d="M215.668 175.969H191.705V199.207H215.668V175.969Z" fill="#0E8993"/>
<path d="M173.32 184.368L164.983 183.484C164.457 184.609 164.193 185.839 164.211 187.082C164.229 188.324 164.529 189.546 165.088 190.655C165.648 191.764 166.451 192.731 167.439 193.483C168.426 194.235 169.571 194.752 170.788 194.995L203.775 201.59L200.334 190.975L173.32 184.368Z" fill="#FFB6B6"/>
<path d="M203.874 201.712C207.612 201.712 210.642 198.677 210.642 194.933C210.642 191.189 207.612 188.154 203.874 188.154C200.136 188.154 197.106 191.189 197.106 194.933C197.106 198.677 200.136 201.712 203.874 201.712Z" fill="#FFB6B6"/>
<path d="M195.426 201.919L170.295 196.166C168.474 195.744 166.793 194.859 165.413 193.595C164.034 192.331 163.004 190.732 162.423 188.953L161.407 185.816L167.929 180.675L197.81 189.04L195.426 201.919Z" fill="#00113D"/>
<path d="M336.646 382H78.8008C78.6213 382 78.4492 381.929 78.3223 381.801C78.1953 381.674 78.124 381.502 78.124 381.322C78.124 381.142 78.1953 380.97 78.3223 380.843C78.4492 380.716 78.6213 380.644 78.8008 380.644H336.646C336.825 380.644 336.997 380.716 337.124 380.843C337.251 380.97 337.322 381.142 337.322 381.322C337.322 381.502 337.251 381.674 337.124 381.801C336.997 381.929 336.825 382 336.646 382Z" fill="#CACACA"/>
</svg>
