<svg width="38" height="38" viewBox="0 0 38 38" fill="none" xmlns="http://www.w3.org/2000/svg">
<path d="M26.9163 14.1659C26.3337 14.4193 25.7083 14.5934 25.0512 14.6694C25.7225 14.2736 26.2355 13.6466 26.4793 12.9009C25.8396 13.2737 25.1416 13.536 24.4147 13.6767C24.1089 13.3562 23.741 13.1013 23.3335 12.9276C22.926 12.754 22.4874 12.6651 22.0444 12.6665C20.2505 12.6665 18.797 14.0994 18.797 15.8649C18.797 16.115 18.8255 16.3589 18.8809 16.5932C17.5942 16.5321 16.3343 16.2034 15.1817 15.6282C14.0291 15.053 13.009 14.2438 12.1866 13.2524C11.8977 13.7386 11.7456 14.2939 11.7464 14.8594C11.7464 15.9678 12.3212 16.9494 13.192 17.521C12.6765 17.5049 12.1721 17.3676 11.7195 17.1204V17.16C11.7244 17.9033 11.9868 18.622 12.462 19.1936C12.9371 19.7652 13.5958 20.1544 14.3257 20.295C13.8465 20.4217 13.3451 20.4401 12.8579 20.3489C13.0703 20.9883 13.4765 21.5458 14.0201 21.9439C14.5638 22.3419 15.2179 22.5609 15.8916 22.5703C14.7357 23.461 13.3165 23.9422 11.8573 23.9383C11.596 23.9383 11.3379 23.9224 11.083 23.8939C12.5721 24.8365 14.2987 25.3357 16.061 25.3332C22.0365 25.3332 25.3029 20.4597 25.3029 16.2322L25.2918 15.8174C25.9288 15.3697 26.4792 14.8102 26.9163 14.1659Z" fill="#A2F8FE"/>
<path d="M9.50033 6.33317C8.66047 6.33317 7.85502 6.6668 7.26115 7.26067C6.66729 7.85453 6.33366 8.65999 6.33366 9.49984V28.4998C6.33366 29.3397 6.66729 30.1451 7.26115 30.739C7.85502 31.3329 8.66047 31.6665 9.50033 31.6665H28.5003C29.3402 31.6665 30.1456 31.3329 30.7395 30.739C31.3334 30.1451 31.667 29.3397 31.667 28.4998V9.49984C31.667 8.65999 31.3334 7.85453 30.7395 7.26067C30.1456 6.6668 29.3402 6.33317 28.5003 6.33317H9.50033ZM9.50033 3.1665H28.5003C30.18 3.1665 31.7909 3.83376 32.9787 5.02149C34.1664 6.20922 34.8337 7.82013 34.8337 9.49984V28.4998C34.8337 30.1795 34.1664 31.7905 32.9787 32.9782C31.7909 34.1659 30.18 34.8332 28.5003 34.8332H9.50033C7.82062 34.8332 6.20971 34.1659 5.02198 32.9782C3.83425 31.7905 3.16699 30.1795 3.16699 28.4998V9.49984C3.16699 7.82013 3.83425 6.20922 5.02198 5.02149C6.20971 3.83376 7.82062 3.1665 9.50033 3.1665Z" fill="#A2F8FE"/>
</svg>
