<svg width="38" height="38" viewBox="0 0 38 38" fill="none" xmlns="http://www.w3.org/2000/svg">
<path d="M23.6278 13.4995H14.3716C12.5555 13.4995 11.083 14.9562 11.083 16.7517V21.3275C11.083 23.1246 12.5555 24.5797 14.3716 24.5797H23.6278C25.4438 24.5797 26.9163 23.123 26.9163 21.3275V16.7517C26.9163 14.9546 25.4438 13.4995 23.6278 13.4995ZM21.4048 19.2628L17.0743 21.3053C17.0479 21.3179 17.0186 21.3235 16.9894 21.3217C16.9601 21.32 16.9318 21.3108 16.907 21.2952C16.8822 21.2796 16.8618 21.2579 16.8476 21.2323C16.8334 21.2067 16.8259 21.1779 16.8258 21.1486V16.9369C16.826 16.9073 16.8339 16.8781 16.8485 16.8523C16.8632 16.8265 16.8842 16.8049 16.9096 16.7895C16.935 16.7742 16.9639 16.7655 16.9936 16.7644C17.0232 16.7633 17.0527 16.7699 17.0791 16.7833L21.4079 18.9525C21.4364 18.9674 21.4602 18.9898 21.4767 19.0174C21.4932 19.045 21.5017 19.0765 21.5014 19.1086C21.5011 19.1408 21.4919 19.1722 21.4748 19.1994C21.4578 19.2266 21.4335 19.2486 21.4048 19.2628Z" fill="#A2F8FE"/>
<path d="M9.50033 6.33317C8.66047 6.33317 7.85502 6.6668 7.26115 7.26067C6.66729 7.85453 6.33366 8.65999 6.33366 9.49984V28.4998C6.33366 29.3397 6.66729 30.1451 7.26115 30.739C7.85502 31.3329 8.66047 31.6665 9.50033 31.6665H28.5003C29.3402 31.6665 30.1456 31.3329 30.7395 30.739C31.3334 30.1451 31.667 29.3397 31.667 28.4998V9.49984C31.667 8.65999 31.3334 7.85453 30.7395 7.26067C30.1456 6.6668 29.3402 6.33317 28.5003 6.33317H9.50033ZM9.50033 3.1665H28.5003C30.18 3.1665 31.7909 3.83376 32.9787 5.02149C34.1664 6.20922 34.8337 7.82013 34.8337 9.49984V28.4998C34.8337 30.1795 34.1664 31.7905 32.9787 32.9782C31.7909 34.1659 30.18 34.8332 28.5003 34.8332H9.50033C7.82062 34.8332 6.20971 34.1659 5.02198 32.9782C3.83425 31.7905 3.16699 30.1795 3.16699 28.4998V9.49984C3.16699 7.82013 3.83425 6.20922 5.02198 5.02149C6.20971 3.83376 7.82062 3.1665 9.50033 3.1665Z" fill="#A2F8FE"/>
</svg>
